<svg width="64" height="64" viewBox="-0.367188 -0.367188 45.6306 45.6317" preserveAspectRatio="none" fill="none" xmlns="http://www.w3.org/2000/svg">
  <path d="M21.4692 33.1582L5.6091 39.2877L-0.367188 45.264H33.5751L21.4692 33.1582Z" fill="#B35A88"/>
  <path d="M21.4617 33.1595L16.5581 28.2559L5.60156 39.289L21.4617 33.1595Z" fill="#B1447C"/>
  <path d="M21.4688 33.1587L33.5746 45.2645H42.2325V25.0371L21.4688 33.1587Z" fill="#B1447C"/>
  <path d="M-0.367188 41.5857V45.2634L5.6091 39.2871L-0.367188 41.5857Z" fill="#B1447C"/>
  <path d="M5.6091 39.2882L16.5656 28.2551L-0.367188 11.3223V41.5868L5.6091 39.2882Z" fill="#9E005D"/>
  <path d="M42.2351 2.66406H26.375L37.3315 7.56768L42.2351 2.66406Z" fill="#B35A88"/>
  <path d="M37.3263 7.56836L16.5625 28.2555L21.4661 33.1591L42.2299 25.0375V9.71369L37.3263 7.56836Z" fill="#B35A88"/>
  <path d="M-0.367188 2.66406V11.322L16.5656 28.2548L37.3294 7.56768L26.3729 2.66406H-0.367188Z" fill="#A7286C"/>
  <path d="M42.2396 9.71302V2.66406L37.3359 7.56768L42.2396 9.71302Z" fill="#C477A0"/>
</svg>
