<svg width="330" height="244" viewBox="0 0 330 244" fill="none" xmlns="http://www.w3.org/2000/svg">
<g clip-path="url(#clip0_741_18435)">
<rect width="330" height="244" rx="24" fill="#F5F5F5"/>
<rect x="45" y="31.501" width="240" height="180.999" rx="8" fill="white"/>
<g filter="url(#filter0_dd_741_18435)">
<rect x="45" y="31.501" width="240" height="181" rx="8" fill="white" fill-opacity="0.01" shape-rendering="crispEdges"/>
</g>
<path d="M62.1128 68.0049V58.1349H63.6108L67.3348 65.0089H66.8868L70.5968 58.1349H72.0668V68.0049H70.4428V60.7949H70.7508L67.6148 66.5069H66.5648L63.4008 60.7809H63.7368V68.0049H62.1128ZM74.6871 70.5249L76.1151 67.3749V68.1029L73.1051 61.1589H74.9671L77.0951 66.4649H76.6751L78.8451 61.1589H80.6091L76.4931 70.5249H74.6871ZM85.3817 68.0049V58.1349H89.6657C90.3937 58.1349 91.0097 58.2562 91.5137 58.4989C92.0177 58.7415 92.4004 59.0915 92.6617 59.5489C92.923 60.0062 93.0537 60.5615 93.0537 61.2149C93.0537 61.8589 92.923 62.4142 92.6617 62.8809C92.4004 63.3382 92.0177 63.6929 91.5137 63.9449C91.0097 64.1875 90.3937 64.3089 89.6657 64.3089H87.1737V68.0049H85.3817ZM87.1737 62.8949H89.3857C90.0204 62.8949 90.501 62.7549 90.8277 62.4749C91.1544 62.1855 91.3177 61.7655 91.3177 61.2149C91.3177 60.6642 91.1544 60.2489 90.8277 59.9689C90.501 59.6889 90.0204 59.5489 89.3857 59.5489H87.1737V62.8949ZM94.2098 68.0049V61.1589H95.9178V62.8109H95.7778C95.9085 62.2509 96.1651 61.8262 96.5478 61.5369C96.9305 61.2382 97.4391 61.0655 98.0738 61.0189L98.6058 60.9769L98.7178 62.4609L97.7098 62.5589C97.1405 62.6149 96.7111 62.7922 96.4218 63.0909C96.1325 63.3802 95.9878 63.7909 95.9878 64.3229V68.0049H94.2098ZM102.705 68.1449C101.996 68.1449 101.38 68.0002 100.857 67.7109C100.334 67.4215 99.9282 67.0109 99.6388 66.4789C99.3495 65.9375 99.2048 65.3029 99.2048 64.5749C99.2048 63.8469 99.3495 63.2169 99.6388 62.6849C99.9282 62.1529 100.334 61.7422 100.857 61.4529C101.38 61.1635 101.996 61.0189 102.705 61.0189C103.414 61.0189 104.03 61.1635 104.553 61.4529C105.076 61.7422 105.482 62.1529 105.771 62.6849C106.06 63.2169 106.205 63.8469 106.205 64.5749C106.205 65.3029 106.06 65.9375 105.771 66.4789C105.482 67.0109 105.076 67.4215 104.553 67.7109C104.03 68.0002 103.414 68.1449 102.705 68.1449ZM102.705 66.8149C103.228 66.8149 103.648 66.6282 103.965 66.2549C104.282 65.8722 104.441 65.3122 104.441 64.5749C104.441 63.8282 104.282 63.2729 103.965 62.9089C103.648 62.5355 103.228 62.3489 102.705 62.3489C102.182 62.3489 101.762 62.5355 101.445 62.9089C101.128 63.2729 100.969 63.8282 100.969 64.5749C100.969 65.3122 101.128 65.8722 101.445 66.2549C101.762 66.6282 102.182 66.8149 102.705 66.8149ZM110.841 70.6649C110.207 70.6649 109.609 70.5902 109.049 70.4409C108.499 70.3009 108.013 70.0815 107.593 69.7829L108.097 68.5649C108.359 68.7329 108.634 68.8729 108.923 68.9849C109.213 69.1062 109.507 69.1949 109.805 69.2509C110.104 69.3069 110.403 69.3349 110.701 69.3349C111.327 69.3349 111.793 69.1809 112.101 68.8729C112.419 68.5742 112.577 68.1262 112.577 67.5289V66.2689H112.703C112.563 66.7449 112.269 67.1275 111.821 67.4169C111.383 67.6969 110.883 67.8369 110.323 67.8369C109.707 67.8369 109.171 67.6969 108.713 67.4169C108.256 67.1275 107.901 66.7262 107.649 66.2129C107.397 65.6995 107.271 65.1022 107.271 64.4209C107.271 63.7395 107.397 63.1469 107.649 62.6429C107.901 62.1295 108.256 61.7329 108.713 61.4529C109.171 61.1635 109.707 61.0189 110.323 61.0189C110.902 61.0189 111.406 61.1635 111.835 61.4529C112.274 61.7329 112.559 62.1062 112.689 62.5729H112.577V61.1589H114.285V67.3189C114.285 68.0562 114.155 68.6722 113.893 69.1669C113.632 69.6709 113.245 70.0442 112.731 70.2869C112.218 70.5389 111.588 70.6649 110.841 70.6649ZM110.799 66.5069C111.341 66.5069 111.77 66.3202 112.087 65.9469C112.405 65.5735 112.563 65.0649 112.563 64.4209C112.563 63.7769 112.405 63.2729 112.087 62.9089C111.77 62.5355 111.341 62.3489 110.799 62.3489C110.258 62.3489 109.829 62.5355 109.511 62.9089C109.194 63.2729 109.035 63.7769 109.035 64.4209C109.035 65.0649 109.194 65.5735 109.511 65.9469C109.829 66.3202 110.258 66.5069 110.799 66.5069ZM116.098 68.0049V61.1589H117.806V62.8109H117.666C117.797 62.2509 118.054 61.8262 118.436 61.5369C118.819 61.2382 119.328 61.0655 119.962 61.0189L120.494 60.9769L120.606 62.4609L119.598 62.5589C119.029 62.6149 118.6 62.7922 118.31 63.0909C118.021 63.3802 117.876 63.7909 117.876 64.3229V68.0049H116.098ZM124.846 68.1449C124.071 68.1449 123.404 68.0002 122.844 67.7109C122.284 67.4215 121.85 67.0109 121.542 66.4789C121.243 65.9469 121.094 65.3169 121.094 64.5889C121.094 63.8795 121.238 63.2589 121.528 62.7269C121.826 62.1949 122.232 61.7795 122.746 61.4809C123.268 61.1729 123.861 61.0189 124.524 61.0189C125.177 61.0189 125.737 61.1589 126.204 61.4389C126.67 61.7189 127.03 62.1155 127.282 62.6289C127.543 63.1422 127.674 63.7535 127.674 64.4629V64.9809H122.508V63.9729H126.442L126.218 64.1829C126.218 63.5482 126.078 63.0629 125.798 62.7269C125.518 62.3815 125.116 62.2089 124.594 62.2089C124.202 62.2089 123.866 62.3022 123.586 62.4889C123.315 62.6662 123.105 62.9229 122.956 63.2589C122.816 63.5855 122.746 63.9775 122.746 64.4349V64.5329C122.746 65.0462 122.825 65.4709 122.984 65.8069C123.142 66.1429 123.38 66.3949 123.698 66.5629C124.015 66.7309 124.407 66.8149 124.874 66.8149C125.256 66.8149 125.639 66.7589 126.022 66.6469C126.404 66.5255 126.754 66.3389 127.072 66.0869L127.562 67.2629C127.235 67.5335 126.824 67.7482 126.33 67.9069C125.835 68.0655 125.34 68.1449 124.846 68.1449ZM131.565 68.1449C131.183 68.1449 130.809 68.1122 130.445 68.0469C130.091 67.9815 129.764 67.8929 129.465 67.7809C129.167 67.6595 128.905 67.5102 128.681 67.3329L129.129 66.1849C129.363 66.3342 129.615 66.4649 129.885 66.5769C130.156 66.6889 130.436 66.7729 130.725 66.8289C131.015 66.8849 131.299 66.9129 131.579 66.9129C132.027 66.9129 132.359 66.8382 132.573 66.6889C132.797 66.5302 132.909 66.3249 132.909 66.0729C132.909 65.8582 132.835 65.6949 132.685 65.5829C132.545 65.4615 132.331 65.3729 132.041 65.3169L130.641 65.0509C130.063 64.9389 129.619 64.7289 129.311 64.4209C129.013 64.1035 128.863 63.6975 128.863 63.2029C128.863 62.7549 128.985 62.3675 129.227 62.0409C129.479 61.7142 129.825 61.4622 130.263 61.2849C130.702 61.1075 131.206 61.0189 131.775 61.0189C132.102 61.0189 132.419 61.0515 132.727 61.1169C133.035 61.1729 133.325 61.2615 133.595 61.3829C133.875 61.4949 134.118 61.6442 134.323 61.8309L133.847 62.9789C133.67 62.8295 133.465 62.7035 133.231 62.6009C132.998 62.4889 132.755 62.4049 132.503 62.3489C132.261 62.2835 132.023 62.2509 131.789 62.2509C131.332 62.2509 130.991 62.3302 130.767 62.4889C130.553 62.6475 130.445 62.8575 130.445 63.1189C130.445 63.3149 130.511 63.4782 130.641 63.6089C130.772 63.7395 130.973 63.8282 131.243 63.8749L132.643 64.1409C133.25 64.2529 133.707 64.4582 134.015 64.7569C134.333 65.0555 134.491 65.4569 134.491 65.9609C134.491 66.4182 134.37 66.8102 134.127 67.1369C133.885 67.4635 133.544 67.7155 133.105 67.8929C132.667 68.0609 132.153 68.1449 131.565 68.1449ZM138.401 68.1449C138.019 68.1449 137.645 68.1122 137.281 68.0469C136.927 67.9815 136.6 67.8929 136.301 67.7809C136.003 67.6595 135.741 67.5102 135.517 67.3329L135.965 66.1849C136.199 66.3342 136.451 66.4649 136.721 66.5769C136.992 66.6889 137.272 66.7729 137.561 66.8289C137.851 66.8849 138.135 66.9129 138.415 66.9129C138.863 66.9129 139.195 66.8382 139.409 66.6889C139.633 66.5302 139.745 66.3249 139.745 66.0729C139.745 65.8582 139.671 65.6949 139.521 65.5829C139.381 65.4615 139.167 65.3729 138.877 65.3169L137.477 65.0509C136.899 64.9389 136.455 64.7289 136.147 64.4209C135.849 64.1035 135.699 63.6975 135.699 63.2029C135.699 62.7549 135.821 62.3675 136.063 62.0409C136.315 61.7142 136.661 61.4622 137.099 61.2849C137.538 61.1075 138.042 61.0189 138.611 61.0189C138.938 61.0189 139.255 61.0515 139.563 61.1169C139.871 61.1729 140.161 61.2615 140.431 61.3829C140.711 61.4949 140.954 61.6442 141.159 61.8309L140.683 62.9789C140.506 62.8295 140.301 62.7035 140.067 62.6009C139.834 62.4889 139.591 62.4049 139.339 62.3489C139.097 62.2835 138.859 62.2509 138.625 62.2509C138.168 62.2509 137.827 62.3302 137.603 62.4889C137.389 62.6475 137.281 62.8575 137.281 63.1189C137.281 63.3149 137.347 63.4782 137.477 63.6089C137.608 63.7395 137.809 63.8282 138.079 63.8749L139.479 64.1409C140.086 64.2529 140.543 64.4582 140.851 64.7569C141.169 65.0555 141.327 65.4569 141.327 65.9609C141.327 66.4182 141.206 66.8102 140.963 67.1369C140.721 67.4635 140.38 67.7155 139.941 67.8929C139.503 68.0609 138.989 68.1449 138.401 68.1449Z" fill="#111315"/>
<rect x="237.002" y="47.501" width="31.9978" height="32.0078" rx="15.9989" fill="#8C000E" fill-opacity="0.1"/>
<path d="M249.668 66.8382H251.001V63.5049H249.668V66.8382ZM255.001 66.8382H256.334V60.1715H255.001V66.8382ZM252.334 66.8382H253.668V64.8382H252.334V66.8382ZM252.334 63.5049H253.668V62.1715H252.334V63.5049ZM248.334 69.5049C247.968 69.5049 247.654 69.3743 247.393 69.1132C247.132 68.8521 247.001 68.5382 247.001 68.1715V58.8382C247.001 58.4715 247.132 58.1577 247.393 57.8965C247.654 57.6354 247.968 57.5049 248.334 57.5049H257.668C258.034 57.5049 258.348 57.6354 258.609 57.8965C258.87 58.1577 259.001 58.4715 259.001 58.8382V68.1715C259.001 68.5382 258.87 68.8521 258.609 69.1132C258.348 69.3743 258.034 69.5049 257.668 69.5049H248.334Z" fill="#B91317"/>
<g clip-path="url(#clip1_741_18435)">
<rect x="61" y="95.5" width="208" height="7.99962" rx="3.99981" fill="#E2E2E2"/>
<rect x="61" y="95.5" width="155.995" height="7.99962" rx="3.99981" fill="#B91317"/>
</g>
<mask id="path-9-inside-1_741_18435" fill="white">
<path d="M61 115.5H269V150.5H61V115.5Z"/>
</mask>
<path d="M269 150.5V149.5H61V150.5V151.5H269V150.5Z" fill="#EBEBEB" mask="url(#path-9-inside-1_741_18435)"/>
<path d="M67.45 135.95L72.7375 130.662L71.6875 129.612L67.45 133.85L65.3125 131.712L64.2625 132.762L67.45 135.95ZM68.5 140C67.4625 140 66.4875 139.803 65.575 139.409C64.6625 139.016 63.8687 138.481 63.1937 137.806C62.5187 137.131 61.9844 136.337 61.5906 135.425C61.1969 134.512 61 133.537 61 132.5C61 131.462 61.1969 130.487 61.5906 129.575C61.9844 128.662 62.5187 127.869 63.1937 127.194C63.8687 126.519 64.6625 125.984 65.575 125.591C66.4875 125.197 67.4625 125 68.5 125C69.5375 125 70.5125 125.197 71.425 125.591C72.3375 125.984 73.1312 126.519 73.8062 127.194C74.4812 127.869 75.0156 128.662 75.4094 129.575C75.8031 130.487 76 131.462 76 132.5C76 133.537 75.8031 134.512 75.4094 135.425C75.0156 136.337 74.4812 137.131 73.8062 137.806C73.1312 138.481 72.3375 139.016 71.425 139.409C70.5125 139.803 69.5375 140 68.5 140ZM68.5 138.5C70.175 138.5 71.5937 137.919 72.7562 136.756C73.9187 135.594 74.5 134.175 74.5 132.5C74.5 130.825 73.9187 129.406 72.7562 128.244C71.5937 127.081 70.175 126.5 68.5 126.5C66.825 126.5 65.4062 127.081 64.2437 128.244C63.0813 129.406 62.5 130.825 62.5 132.5C62.5 134.175 63.0813 135.594 64.2437 136.756C65.4062 137.919 66.825 138.5 68.5 138.5Z" fill="#16A34A"/>
<path d="M91.6835 136.5L87.9875 128.04H89.0435L92.3435 135.708H91.9595L95.2475 128.04H96.2795L92.5715 136.5H91.6835ZM98.9058 136.608C98.3378 136.608 97.8458 136.484 97.4298 136.236C97.0138 135.988 96.6898 135.64 96.4578 135.192C96.2338 134.736 96.1218 134.2 96.1218 133.584C96.1218 132.968 96.2338 132.436 96.4578 131.988C96.6898 131.532 97.0138 131.18 97.4298 130.932C97.8458 130.684 98.3378 130.56 98.9058 130.56C99.4738 130.56 99.9658 130.684 100.382 130.932C100.798 131.18 101.118 131.532 101.342 131.988C101.574 132.436 101.69 132.968 101.69 133.584C101.69 134.2 101.574 134.736 101.342 135.192C101.118 135.64 100.798 135.988 100.382 136.236C99.9658 136.484 99.4738 136.608 98.9058 136.608ZM98.9058 135.828C99.4578 135.828 99.8938 135.636 100.214 135.252C100.542 134.86 100.706 134.3 100.706 133.572C100.706 132.852 100.542 132.3 100.214 131.916C99.8938 131.532 99.4578 131.34 98.9058 131.34C98.3618 131.34 97.9258 131.532 97.5978 131.916C97.2698 132.3 97.1058 132.852 97.1058 133.572C97.1058 134.3 97.2698 134.86 97.5978 135.252C97.9258 135.636 98.3618 135.828 98.9058 135.828ZM105.622 136.608C105.038 136.608 104.534 136.48 104.11 136.224C103.686 135.968 103.358 135.612 103.126 135.156C102.902 134.692 102.79 134.156 102.79 133.548C102.79 132.932 102.902 132.4 103.126 131.952C103.358 131.504 103.686 131.16 104.11 130.92C104.534 130.68 105.038 130.56 105.622 130.56C105.982 130.56 106.338 130.624 106.69 130.752C107.042 130.88 107.334 131.06 107.566 131.292L107.23 132C106.998 131.776 106.742 131.612 106.462 131.508C106.19 131.404 105.93 131.352 105.682 131.352C105.074 131.352 104.606 131.544 104.278 131.928C103.95 132.304 103.786 132.848 103.786 133.56C103.786 134.256 103.95 134.808 104.278 135.216C104.606 135.616 105.074 135.816 105.682 135.816C105.93 135.816 106.19 135.764 106.462 135.66C106.742 135.556 106.998 135.388 107.23 135.156L107.566 135.864C107.334 136.096 107.038 136.28 106.678 136.416C106.326 136.544 105.974 136.608 105.622 136.608ZM110.494 136.608C110.094 136.608 109.734 136.532 109.414 136.38C109.102 136.22 108.854 136.004 108.67 135.732C108.486 135.46 108.394 135.156 108.394 134.82C108.394 134.388 108.502 134.048 108.718 133.8C108.942 133.552 109.306 133.376 109.81 133.272C110.322 133.168 111.018 133.116 111.898 133.116H112.438V133.752H111.91C111.422 133.752 111.014 133.768 110.686 133.8C110.358 133.832 110.098 133.888 109.906 133.968C109.714 134.048 109.578 134.152 109.498 134.28C109.418 134.408 109.378 134.568 109.378 134.76C109.378 135.088 109.49 135.356 109.714 135.564C109.946 135.772 110.258 135.876 110.65 135.876C110.97 135.876 111.25 135.8 111.49 135.648C111.738 135.496 111.93 135.288 112.066 135.024C112.21 134.76 112.282 134.456 112.282 134.112V132.744C112.282 132.248 112.182 131.892 111.982 131.676C111.782 131.452 111.454 131.34 110.998 131.34C110.646 131.34 110.306 131.392 109.978 131.496C109.65 131.592 109.314 131.752 108.97 131.976L108.634 131.268C108.842 131.124 109.078 131 109.342 130.896C109.606 130.784 109.882 130.7 110.17 130.644C110.458 130.588 110.734 130.56 110.998 130.56C111.502 130.56 111.918 130.644 112.246 130.812C112.574 130.972 112.818 131.22 112.978 131.556C113.138 131.884 113.218 132.308 113.218 132.828V136.5H112.306V135.144H112.414C112.35 135.448 112.226 135.708 112.042 135.924C111.866 136.14 111.646 136.308 111.382 136.428C111.118 136.548 110.822 136.608 110.494 136.608ZM117.973 136.608C117.445 136.608 116.989 136.472 116.605 136.2C116.229 135.928 115.977 135.564 115.849 135.108H115.969V136.5H115.021V128.04H115.993V132.024H115.849C115.985 131.576 116.241 131.22 116.617 130.956C116.993 130.692 117.445 130.56 117.973 130.56C118.501 130.56 118.957 130.684 119.341 130.932C119.725 131.172 120.021 131.52 120.229 131.976C120.445 132.424 120.553 132.96 120.553 133.584C120.553 134.2 120.445 134.736 120.229 135.192C120.021 135.64 119.721 135.988 119.329 136.236C118.945 136.484 118.493 136.608 117.973 136.608ZM117.769 135.828C118.321 135.828 118.757 135.636 119.077 135.252C119.405 134.86 119.569 134.304 119.569 133.584C119.569 132.856 119.405 132.3 119.077 131.916C118.757 131.532 118.321 131.34 117.769 131.34C117.225 131.34 116.789 131.532 116.461 131.916C116.133 132.3 115.969 132.856 115.969 133.584C115.969 134.304 116.133 134.86 116.461 135.252C116.789 135.636 117.225 135.828 117.769 135.828ZM124.081 136.608C123.609 136.608 123.217 136.524 122.905 136.356C122.601 136.18 122.369 135.92 122.209 135.576C122.057 135.232 121.981 134.804 121.981 134.292V130.668H122.953V134.28C122.953 134.624 122.997 134.912 123.085 135.144C123.181 135.368 123.329 135.536 123.529 135.648C123.729 135.752 123.977 135.804 124.273 135.804C124.609 135.804 124.901 135.728 125.149 135.576C125.397 135.424 125.593 135.212 125.737 134.94C125.881 134.668 125.953 134.348 125.953 133.98V130.668H126.925V136.5H125.977V135.156H126.133C125.973 135.628 125.709 135.988 125.341 136.236C124.981 136.484 124.561 136.608 124.081 136.608ZM130.532 136.608C129.94 136.608 129.492 136.432 129.188 136.08C128.892 135.728 128.744 135.224 128.744 134.568V128.04H129.716V134.496C129.716 134.776 129.752 135.012 129.824 135.204C129.904 135.396 130.02 135.54 130.172 135.636C130.324 135.732 130.512 135.78 130.736 135.78C130.832 135.78 130.924 135.776 131.012 135.768C131.108 135.752 131.196 135.732 131.276 135.708L131.252 136.524C131.124 136.548 131 136.568 130.88 136.584C130.768 136.6 130.652 136.608 130.532 136.608ZM134.13 136.608C133.73 136.608 133.37 136.532 133.05 136.38C132.738 136.22 132.49 136.004 132.306 135.732C132.122 135.46 132.03 135.156 132.03 134.82C132.03 134.388 132.138 134.048 132.354 133.8C132.578 133.552 132.942 133.376 133.446 133.272C133.958 133.168 134.654 133.116 135.534 133.116H136.074V133.752H135.546C135.058 133.752 134.65 133.768 134.322 133.8C133.994 133.832 133.734 133.888 133.542 133.968C133.35 134.048 133.214 134.152 133.134 134.28C133.054 134.408 133.014 134.568 133.014 134.76C133.014 135.088 133.126 135.356 133.35 135.564C133.582 135.772 133.894 135.876 134.286 135.876C134.606 135.876 134.886 135.8 135.126 135.648C135.374 135.496 135.566 135.288 135.702 135.024C135.846 134.76 135.918 134.456 135.918 134.112V132.744C135.918 132.248 135.818 131.892 135.618 131.676C135.418 131.452 135.09 131.34 134.634 131.34C134.282 131.34 133.942 131.392 133.614 131.496C133.286 131.592 132.95 131.752 132.606 131.976L132.27 131.268C132.478 131.124 132.714 131 132.978 130.896C133.242 130.784 133.518 130.7 133.806 130.644C134.094 130.588 134.37 130.56 134.634 130.56C135.138 130.56 135.554 130.644 135.882 130.812C136.21 130.972 136.454 131.22 136.614 131.556C136.774 131.884 136.854 132.308 136.854 132.828V136.5H135.942V135.144H136.05C135.986 135.448 135.862 135.708 135.678 135.924C135.502 136.14 135.282 136.308 135.018 136.428C134.754 136.548 134.458 136.608 134.13 136.608ZM138.658 136.5V130.668H139.606V132.048H139.486C139.622 131.576 139.858 131.22 140.194 130.98C140.53 130.732 140.974 130.588 141.526 130.548L141.874 130.512L141.946 131.352L141.334 131.424C140.79 131.472 140.37 131.648 140.074 131.952C139.786 132.248 139.642 132.656 139.642 133.176V136.5H138.658ZM143.994 138.66L145.086 136.2V136.62L142.53 130.668H143.586L145.674 135.78H145.35L147.462 130.668H148.482L145.014 138.66H143.994ZM158.592 138.912L157.584 137.292C157.456 137.068 157.28 136.896 157.056 136.776C156.832 136.664 156.564 136.608 156.252 136.608L157.068 136.26C157.316 136.26 157.528 136.288 157.704 136.344C157.888 136.4 158.052 136.492 158.196 136.62C158.34 136.756 158.48 136.944 158.616 137.184L159.42 138.48L158.592 138.912ZM156.252 136.608C155.668 136.608 155.136 136.508 154.656 136.308C154.176 136.1 153.768 135.808 153.432 135.432C153.096 135.056 152.836 134.6 152.652 134.064C152.476 133.528 152.388 132.928 152.388 132.264C152.388 131.592 152.476 130.992 152.652 130.464C152.836 129.928 153.096 129.476 153.432 129.108C153.768 128.732 154.172 128.444 154.644 128.244C155.124 128.036 155.66 127.932 156.252 127.932C156.852 127.932 157.388 128.032 157.86 128.232C158.34 128.432 158.748 128.72 159.084 129.096C159.428 129.472 159.688 129.928 159.864 130.464C160.048 130.992 160.14 131.588 160.14 132.252C160.14 132.924 160.048 133.528 159.864 134.064C159.68 134.6 159.42 135.056 159.084 135.432C158.748 135.808 158.34 136.1 157.86 136.308C157.388 136.508 156.852 136.608 156.252 136.608ZM156.252 135.732C156.86 135.732 157.372 135.596 157.788 135.324C158.212 135.052 158.536 134.656 158.76 134.136C158.984 133.616 159.096 132.992 159.096 132.264C159.096 131.528 158.984 130.904 158.76 130.392C158.536 129.88 158.212 129.488 157.788 129.216C157.372 128.944 156.86 128.808 156.252 128.808C155.66 128.808 155.152 128.944 154.728 129.216C154.312 129.488 153.992 129.884 153.768 130.404C153.544 130.916 153.432 131.536 153.432 132.264C153.432 132.992 153.544 133.616 153.768 134.136C153.992 134.648 154.312 135.044 154.728 135.324C155.152 135.596 155.66 135.732 156.252 135.732ZM163.831 136.608C163.359 136.608 162.967 136.524 162.655 136.356C162.351 136.18 162.119 135.92 161.959 135.576C161.807 135.232 161.731 134.804 161.731 134.292V130.668H162.703V134.28C162.703 134.624 162.747 134.912 162.835 135.144C162.931 135.368 163.079 135.536 163.279 135.648C163.479 135.752 163.727 135.804 164.023 135.804C164.359 135.804 164.651 135.728 164.899 135.576C165.147 135.424 165.343 135.212 165.487 134.94C165.631 134.668 165.703 134.348 165.703 133.98V130.668H166.675V136.5H165.727V135.156H165.883C165.723 135.628 165.459 135.988 165.091 136.236C164.731 136.484 164.311 136.608 163.831 136.608ZM168.374 129.216V128.124H169.574V129.216H168.374ZM168.494 136.5V130.668H169.466V136.5H168.494ZM171.031 136.5V135.852L174.547 131.172V131.424H171.031V130.668H175.447V131.316L171.895 136.02V135.744H175.579V136.5H171.031Z" fill="#4A4A4A"/>
<path d="M70.975 183.025L72.025 181.975L69.25 179.2V175.75H67.75V179.8L70.975 183.025ZM68.5 187C67.4625 187 66.4875 186.803 65.575 186.409C64.6625 186.016 63.8687 185.481 63.1937 184.806C62.5187 184.131 61.9844 183.337 61.5906 182.425C61.1969 181.512 61 180.537 61 179.5C61 178.462 61.1969 177.487 61.5906 176.575C61.9844 175.662 62.5187 174.869 63.1937 174.194C63.8687 173.519 64.6625 172.984 65.575 172.591C66.4875 172.197 67.4625 172 68.5 172C69.5375 172 70.5125 172.197 71.425 172.591C72.3375 172.984 73.1312 173.519 73.8062 174.194C74.4812 174.869 75.0156 175.662 75.4094 176.575C75.8031 177.487 76 178.462 76 179.5C76 180.537 75.8031 181.512 75.4094 182.425C75.0156 183.337 74.4812 184.131 73.8062 184.806C73.1312 185.481 72.3375 186.016 71.425 186.409C70.5125 186.803 69.5375 187 68.5 187ZM68.5 185.5C70.1625 185.5 71.5781 184.916 72.7469 183.747C73.9156 182.578 74.5 181.162 74.5 179.5C74.5 177.837 73.9156 176.422 72.7469 175.253C71.5781 174.084 70.1625 173.5 68.5 173.5C66.8375 173.5 65.4219 174.084 64.2531 175.253C63.0844 176.422 62.5 177.837 62.5 179.5C62.5 181.162 63.0844 182.578 64.2531 183.747C65.4219 184.916 66.8375 185.5 68.5 185.5Z" fill="#3B82F6"/>
<path d="M92.9075 183.608C92.0035 183.608 91.2395 183.436 90.6155 183.092C89.9995 182.748 89.5315 182.252 89.2115 181.604C88.8915 180.956 88.7315 180.18 88.7315 179.276C88.7315 178.38 88.8915 177.608 89.2115 176.96C89.5315 176.312 89.9915 175.812 90.5915 175.46C91.1915 175.108 91.9155 174.932 92.7635 174.932C93.1635 174.932 93.5395 174.972 93.8915 175.052C94.2515 175.132 94.5835 175.252 94.8875 175.412C95.1995 175.564 95.4715 175.756 95.7035 175.988L95.3195 176.78C94.9355 176.444 94.5395 176.2 94.1315 176.048C93.7235 175.896 93.2635 175.82 92.7515 175.82C91.7835 175.82 91.0435 176.12 90.5315 176.72C90.0275 177.32 89.7755 178.172 89.7755 179.276C89.7755 180.396 90.0355 181.252 90.5555 181.844C91.0835 182.436 91.8755 182.732 92.9315 182.732C93.3155 182.732 93.6915 182.696 94.0595 182.624C94.4275 182.544 94.7755 182.436 95.1035 182.3L94.8875 182.864V179.876H92.7395V179.096H95.7395V183.008C95.5235 183.12 95.2555 183.224 94.9355 183.32C94.6155 183.408 94.2795 183.476 93.9275 183.524C93.5755 183.58 93.2355 183.608 92.9075 183.608ZM100.043 183.608C99.4745 183.608 98.9825 183.484 98.5665 183.236C98.1505 182.988 97.8265 182.64 97.5945 182.192C97.3705 181.736 97.2585 181.2 97.2585 180.584C97.2585 179.968 97.3705 179.436 97.5945 178.988C97.8265 178.532 98.1505 178.18 98.5665 177.932C98.9825 177.684 99.4745 177.56 100.043 177.56C100.611 177.56 101.103 177.684 101.519 177.932C101.935 178.18 102.255 178.532 102.479 178.988C102.711 179.436 102.827 179.968 102.827 180.584C102.827 181.2 102.711 181.736 102.479 182.192C102.255 182.64 101.935 182.988 101.519 183.236C101.103 183.484 100.611 183.608 100.043 183.608ZM100.043 182.828C100.595 182.828 101.031 182.636 101.351 182.252C101.679 181.86 101.843 181.3 101.843 180.572C101.843 179.852 101.679 179.3 101.351 178.916C101.031 178.532 100.595 178.34 100.043 178.34C99.4985 178.34 99.0625 178.532 98.7345 178.916C98.4065 179.3 98.2425 179.852 98.2425 180.572C98.2425 181.3 98.4065 181.86 98.7345 182.252C99.0625 182.636 99.4985 182.828 100.043 182.828ZM106.915 183.608C106.299 183.608 105.767 183.488 105.319 183.248C104.879 183 104.535 182.652 104.287 182.204C104.047 181.756 103.927 181.22 103.927 180.596C103.927 179.988 104.047 179.46 104.287 179.012C104.527 178.556 104.855 178.2 105.271 177.944C105.695 177.688 106.183 177.56 106.735 177.56C107.263 177.56 107.715 177.676 108.091 177.908C108.467 178.14 108.755 178.468 108.955 178.892C109.163 179.316 109.267 179.824 109.267 180.416V180.788H104.671V180.152H108.619L108.427 180.308C108.427 179.668 108.283 179.172 107.995 178.82C107.715 178.46 107.303 178.28 106.759 178.28C106.351 178.28 106.003 178.376 105.715 178.568C105.435 178.752 105.223 179.012 105.079 179.348C104.935 179.676 104.863 180.06 104.863 180.5V180.572C104.863 181.06 104.939 181.472 105.091 181.808C105.251 182.144 105.487 182.4 105.799 182.576C106.111 182.744 106.483 182.828 106.915 182.828C107.259 182.828 107.591 182.776 107.911 182.672C108.239 182.56 108.547 182.38 108.835 182.132L109.171 182.816C108.907 183.056 108.571 183.248 108.163 183.392C107.755 183.536 107.339 183.608 106.915 183.608ZM113.013 183.608C112.325 183.608 111.809 183.424 111.465 183.056C111.121 182.688 110.949 182.164 110.949 181.484V178.424H109.809V177.668H110.949V175.88H111.921V177.668H113.769V178.424H111.921V181.388C111.921 181.844 112.017 182.192 112.209 182.432C112.401 182.664 112.713 182.78 113.145 182.78C113.273 182.78 113.401 182.764 113.529 182.732C113.657 182.7 113.773 182.668 113.877 182.636L114.045 183.38C113.941 183.436 113.789 183.488 113.589 183.536C113.389 183.584 113.197 183.608 113.013 183.608ZM114.869 183.5V175.04H115.841V178.964H115.685C115.853 178.5 116.125 178.152 116.501 177.92C116.885 177.68 117.325 177.56 117.821 177.56C118.285 177.56 118.669 177.644 118.973 177.812C119.285 177.98 119.517 178.236 119.669 178.58C119.821 178.916 119.897 179.344 119.897 179.864V183.5H118.925V179.924C118.925 179.564 118.877 179.268 118.781 179.036C118.693 178.804 118.549 178.632 118.349 178.52C118.157 178.408 117.905 178.352 117.593 178.352C117.241 178.352 116.933 178.428 116.669 178.58C116.405 178.732 116.201 178.944 116.057 179.216C115.913 179.488 115.841 179.808 115.841 180.176V183.5H114.869ZM124.317 183.608C123.701 183.608 123.169 183.488 122.721 183.248C122.281 183 121.937 182.652 121.689 182.204C121.449 181.756 121.329 181.22 121.329 180.596C121.329 179.988 121.449 179.46 121.689 179.012C121.929 178.556 122.257 178.2 122.673 177.944C123.097 177.688 123.585 177.56 124.137 177.56C124.665 177.56 125.117 177.676 125.493 177.908C125.869 178.14 126.157 178.468 126.357 178.892C126.565 179.316 126.669 179.824 126.669 180.416V180.788H122.073V180.152H126.021L125.829 180.308C125.829 179.668 125.685 179.172 125.397 178.82C125.117 178.46 124.705 178.28 124.161 178.28C123.753 178.28 123.405 178.376 123.117 178.568C122.837 178.752 122.625 179.012 122.481 179.348C122.337 179.676 122.265 180.06 122.265 180.5V180.572C122.265 181.06 122.341 181.472 122.493 181.808C122.653 182.144 122.889 182.4 123.201 182.576C123.513 182.744 123.885 182.828 124.317 182.828C124.661 182.828 124.993 182.776 125.313 182.672C125.641 182.56 125.949 182.38 126.237 182.132L126.573 182.816C126.309 183.056 125.973 183.248 125.565 183.392C125.157 183.536 124.741 183.608 124.317 183.608ZM134.95 183.608C134.118 183.608 133.406 183.432 132.814 183.08C132.222 182.728 131.766 182.228 131.446 181.58C131.134 180.932 130.978 180.16 130.978 179.264C130.978 178.368 131.134 177.6 131.446 176.96C131.766 176.312 132.222 175.812 132.814 175.46C133.406 175.108 134.118 174.932 134.95 174.932C135.534 174.932 136.074 175.024 136.57 175.208C137.066 175.392 137.482 175.66 137.818 176.012L137.434 176.816C137.066 176.472 136.682 176.224 136.282 176.072C135.89 175.912 135.454 175.832 134.974 175.832C134.022 175.832 133.294 176.132 132.79 176.732C132.286 177.332 132.034 178.176 132.034 179.264C132.034 180.352 132.286 181.2 132.79 181.808C133.294 182.408 134.022 182.708 134.974 182.708C135.454 182.708 135.89 182.632 136.282 182.48C136.682 182.32 137.066 182.068 137.434 181.724L137.818 182.528C137.482 182.872 137.066 183.14 136.57 183.332C136.074 183.516 135.534 183.608 134.95 183.608ZM139.808 183.5V182.66H141.74V175.892H142.256L140.216 177.188L139.796 176.456L142.016 175.04H142.724V182.66H144.536V183.5H139.808ZM149.665 183.5V175.04H150.493L153.925 181.484H153.565L156.973 175.04H157.801V183.5H156.889V176.36H157.177L154.069 182.192H153.421L150.277 176.348H150.565V183.5H149.665ZM162.199 183.608C161.631 183.608 161.139 183.484 160.723 183.236C160.307 182.988 159.983 182.64 159.751 182.192C159.527 181.736 159.415 181.2 159.415 180.584C159.415 179.968 159.527 179.436 159.751 178.988C159.983 178.532 160.307 178.18 160.723 177.932C161.139 177.684 161.631 177.56 162.199 177.56C162.767 177.56 163.259 177.684 163.675 177.932C164.091 178.18 164.411 178.532 164.635 178.988C164.867 179.436 164.983 179.968 164.983 180.584C164.983 181.2 164.867 181.736 164.635 182.192C164.411 182.64 164.091 182.988 163.675 183.236C163.259 183.484 162.767 183.608 162.199 183.608ZM162.199 182.828C162.751 182.828 163.187 182.636 163.507 182.252C163.835 181.86 163.999 181.3 163.999 180.572C163.999 179.852 163.835 179.3 163.507 178.916C163.187 178.532 162.751 178.34 162.199 178.34C161.655 178.34 161.219 178.532 160.891 178.916C160.563 179.3 160.399 179.852 160.399 180.572C160.399 181.3 160.563 181.86 160.891 182.252C161.219 182.636 161.655 182.828 162.199 182.828ZM168.915 183.608C168.331 183.608 167.827 183.48 167.403 183.224C166.979 182.968 166.651 182.612 166.419 182.156C166.195 181.692 166.083 181.156 166.083 180.548C166.083 179.932 166.195 179.4 166.419 178.952C166.651 178.504 166.979 178.16 167.403 177.92C167.827 177.68 168.331 177.56 168.915 177.56C169.275 177.56 169.631 177.624 169.983 177.752C170.335 177.88 170.627 178.06 170.859 178.292L170.523 179C170.291 178.776 170.035 178.612 169.755 178.508C169.483 178.404 169.223 178.352 168.975 178.352C168.367 178.352 167.899 178.544 167.571 178.928C167.243 179.304 167.079 179.848 167.079 180.56C167.079 181.256 167.243 181.808 167.571 182.216C167.899 182.616 168.367 182.816 168.975 182.816C169.223 182.816 169.483 182.764 169.755 182.66C170.035 182.556 170.291 182.388 170.523 182.156L170.859 182.864C170.627 183.096 170.331 183.28 169.971 183.416C169.619 183.544 169.267 183.608 168.915 183.608ZM171.997 183.5V175.04H172.969V180.26H172.993L175.693 177.668H176.929L173.725 180.74V180.212L177.181 183.5H175.945L172.993 180.764H172.969V183.5H171.997ZM181.211 183.5V175.04H186.551V175.868H182.171V178.796H186.299V179.624H182.171V182.672H186.551V183.5H181.211ZM187.332 183.5L189.948 180.236V180.74L187.476 177.668H188.628L190.488 180.032H190.152L192.024 177.668H193.164L190.704 180.716V180.272L193.308 183.5H192.156L190.14 180.968H190.488L188.484 183.5H187.332ZM196.169 183.608C195.769 183.608 195.409 183.532 195.089 183.38C194.777 183.22 194.529 183.004 194.345 182.732C194.161 182.46 194.069 182.156 194.069 181.82C194.069 181.388 194.177 181.048 194.393 180.8C194.617 180.552 194.981 180.376 195.485 180.272C195.997 180.168 196.693 180.116 197.573 180.116H198.113V180.752H197.585C197.097 180.752 196.689 180.768 196.361 180.8C196.033 180.832 195.773 180.888 195.581 180.968C195.389 181.048 195.253 181.152 195.173 181.28C195.093 181.408 195.053 181.568 195.053 181.76C195.053 182.088 195.165 182.356 195.389 182.564C195.621 182.772 195.933 182.876 196.325 182.876C196.645 182.876 196.925 182.8 197.165 182.648C197.413 182.496 197.605 182.288 197.741 182.024C197.885 181.76 197.957 181.456 197.957 181.112V179.744C197.957 179.248 197.857 178.892 197.657 178.676C197.457 178.452 197.129 178.34 196.673 178.34C196.321 178.34 195.981 178.392 195.653 178.496C195.325 178.592 194.989 178.752 194.645 178.976L194.309 178.268C194.517 178.124 194.753 178 195.017 177.896C195.281 177.784 195.557 177.7 195.845 177.644C196.133 177.588 196.409 177.56 196.673 177.56C197.177 177.56 197.593 177.644 197.921 177.812C198.249 177.972 198.493 178.22 198.653 178.556C198.813 178.884 198.893 179.308 198.893 179.828V183.5H197.981V182.144H198.089C198.025 182.448 197.901 182.708 197.717 182.924C197.541 183.14 197.321 183.308 197.057 183.428C196.793 183.548 196.497 183.608 196.169 183.608ZM200.721 183.5V177.668H201.669V178.964H201.537C201.633 178.668 201.773 178.416 201.957 178.208C202.149 177.992 202.373 177.832 202.629 177.728C202.893 177.616 203.181 177.56 203.493 177.56C203.989 177.56 204.389 177.68 204.693 177.92C205.005 178.152 205.213 178.516 205.317 179.012H205.137C205.281 178.564 205.537 178.212 205.905 177.956C206.281 177.692 206.717 177.56 207.213 177.56C207.653 177.56 208.013 177.644 208.293 177.812C208.581 177.98 208.797 178.236 208.941 178.58C209.085 178.916 209.157 179.344 209.157 179.864V183.5H208.185V179.912C208.185 179.376 208.093 178.984 207.909 178.736C207.725 178.48 207.413 178.352 206.973 178.352C206.661 178.352 206.385 178.428 206.145 178.58C205.913 178.732 205.733 178.948 205.605 179.228C205.485 179.5 205.425 179.824 205.425 180.2V183.5H204.453V179.912C204.453 179.376 204.357 178.984 204.165 178.736C203.981 178.48 203.673 178.352 203.241 178.352C202.921 178.352 202.645 178.428 202.413 178.58C202.181 178.732 202.001 178.948 201.873 179.228C201.753 179.5 201.693 179.824 201.693 180.2V183.5H200.721Z" fill="#4A4A4A"/>
<rect x="209.832" y="2" width="108.293" height="25" rx="6" transform="rotate(12 209.832 2)" fill="#FFEB3B"/>
<path d="M222.23 21.112C221.159 20.8842 220.399 20.435 219.95 19.7642C219.502 19.0934 219.393 18.2137 219.624 17.1251L220.563 12.7098L222.233 13.0649L221.294 17.4863C221.162 18.1048 221.203 18.5996 221.416 18.9705C221.63 19.3414 222.001 19.5832 222.531 19.6959C223.062 19.8086 223.498 19.7386 223.842 19.486C224.185 19.2333 224.422 18.7978 224.554 18.1792L225.493 13.7578L227.143 14.1084L226.204 18.5238C225.973 19.6123 225.522 20.3731 224.851 20.8059C224.181 21.2388 223.307 21.3408 222.23 21.112ZM226.455 23.9146L227.988 16.6996L229.574 17.0366L229.354 18.0707L229.25 18.0486C229.428 17.7276 229.703 17.4963 230.075 17.3546C230.447 17.2129 230.846 17.1875 231.273 17.2782C231.729 17.3753 232.108 17.572 232.409 17.8683C232.709 18.1646 232.914 18.5378 233.022 18.9878C233.13 19.4379 233.123 19.9485 233.001 20.5197C232.882 21.0837 232.68 21.5523 232.397 21.9256C232.114 22.2989 231.776 22.56 231.384 22.709C230.991 22.8579 230.564 22.8833 230.102 22.7852C229.685 22.6964 229.336 22.5157 229.056 22.2428C228.776 21.9699 228.615 21.6592 228.571 21.3108L228.7 21.3383L228.079 24.26L226.455 23.9146ZM229.869 21.4665C230.217 21.5404 230.525 21.4736 230.795 21.266C231.065 21.0584 231.255 20.6938 231.366 20.1721C231.478 19.6454 231.452 19.2349 231.289 18.9405C231.126 18.6461 230.871 18.462 230.523 18.388C230.176 18.3141 229.867 18.3785 229.599 18.5811C229.33 18.7838 229.14 19.1484 229.028 19.6751C228.917 20.1968 228.943 20.6073 229.104 20.9066C229.266 21.206 229.521 21.3926 229.869 21.4665ZM235.972 24.0328C235.399 23.9111 234.924 23.6926 234.546 23.3773C234.168 23.062 233.907 22.671 233.764 22.2045C233.62 21.7379 233.608 21.2226 233.728 20.6586C233.848 20.0924 234.068 19.6296 234.387 19.2704C234.707 18.9112 235.102 18.6668 235.575 18.5374C236.047 18.408 236.57 18.4041 237.142 18.5258C237.486 18.5989 237.817 18.7226 238.136 18.8969C238.454 19.0711 238.703 19.2737 238.881 19.5046L238.187 20.5293C238.045 20.3455 237.87 20.1888 237.661 20.0591C237.452 19.9294 237.244 19.8426 237.038 19.7988C236.614 19.7087 236.259 19.7692 235.973 19.9803C235.687 20.1914 235.492 20.5378 235.39 21.0196C235.289 21.4943 235.325 21.8917 235.499 22.212C235.672 22.5322 235.971 22.7374 236.394 22.8274C236.595 22.8702 236.819 22.8751 237.065 22.8422C237.311 22.8092 237.537 22.7352 237.743 22.62L237.958 23.8457C237.703 23.977 237.393 24.059 237.028 24.0918C236.663 24.1245 236.311 24.1049 235.972 24.0328ZM240.978 25.097C240.413 24.9767 239.943 24.7608 239.571 24.4493C239.199 24.1378 238.941 23.75 238.797 23.286C238.652 22.822 238.64 22.3079 238.76 21.7438C238.88 21.1775 239.101 20.7135 239.42 20.3518C239.74 19.9901 240.133 19.7426 240.6 19.6094C241.067 19.4762 241.583 19.4697 242.149 19.59C242.717 19.7108 243.187 19.9268 243.558 20.2381C243.929 20.5494 244.187 20.9357 244.332 21.3972C244.477 21.8587 244.489 22.3716 244.369 22.9359C244.249 23.5 244.029 23.9647 243.708 24.3299C243.388 24.6952 242.995 24.9445 242.529 25.078C242.064 25.2115 241.547 25.2178 240.978 25.097ZM241.234 23.8822C241.583 23.9565 241.893 23.8898 242.163 23.6823C242.432 23.4747 242.623 23.1088 242.734 22.5846C242.846 22.0604 242.82 21.6511 242.657 21.3568C242.494 21.0624 242.238 20.878 241.888 20.8038C241.542 20.7302 241.235 20.7947 240.966 20.9974C240.698 21.2 240.508 21.5634 240.396 22.0876C240.285 22.6118 240.31 23.0236 240.472 23.3229C240.634 23.6222 240.888 23.8086 241.234 23.8822ZM244.824 25.7949L245.946 20.5166L247.532 20.8537L247.321 21.8441L247.203 21.8189C247.347 21.6111 247.519 21.4425 247.719 21.3133C247.919 21.1841 248.142 21.0988 248.39 21.0575C248.637 21.0161 248.899 21.0247 249.174 21.0832C249.579 21.1694 249.898 21.3386 250.131 21.5909C250.363 21.8432 250.495 22.1818 250.526 22.6069L250.376 22.5749C250.608 22.2411 250.912 22.0037 251.285 21.8627C251.659 21.7217 252.055 21.6957 252.475 21.7848C252.881 21.8711 253.199 22.0229 253.429 22.2403C253.658 22.4576 253.803 22.7441 253.864 23.1C253.924 23.4559 253.901 23.8856 253.794 24.3891L253.12 27.5584L251.496 27.213L252.158 24.0975C252.234 23.7408 252.233 23.4696 252.155 23.2839C252.077 23.0982 251.903 22.9768 251.635 22.9197C251.434 22.8772 251.25 22.8889 251.08 22.9551C250.911 23.0212 250.769 23.1384 250.653 23.3066C250.538 23.4748 250.452 23.6914 250.396 23.9563L249.781 26.8485L248.156 26.5032L248.818 23.3877C248.894 23.0309 248.893 22.7597 248.815 22.574C248.737 22.3883 248.566 22.2675 248.303 22.2115C248.097 22.1678 247.911 22.1794 247.745 22.246C247.578 22.3126 247.437 22.4301 247.321 22.5983C247.206 22.7666 247.12 22.9831 247.064 23.248L246.449 26.1403L244.824 25.7949ZM255.639 21.5052L255.961 19.9903L257.716 20.3635L257.394 21.8784L255.639 21.5052ZM254.368 27.8235L255.49 22.5452L257.115 22.8906L255.993 28.1689L254.368 27.8235ZM257.252 28.4365L258.373 23.1581L259.959 23.4952L259.749 24.4856L259.63 24.4604C259.871 24.1377 260.175 23.9164 260.542 23.7965C260.909 23.6765 261.299 23.6606 261.714 23.7486C262.137 23.8386 262.468 23.993 262.708 24.2118C262.948 24.4307 263.1 24.7192 263.165 25.0773C263.23 25.4354 263.209 25.8655 263.102 26.3676L262.429 29.5369L260.804 29.1916L261.463 26.0936C261.515 25.848 261.528 25.6429 261.501 25.4784C261.474 25.3139 261.409 25.1835 261.306 25.0871C261.203 24.9908 261.061 24.9232 260.878 24.8844C260.653 24.8367 260.446 24.8435 260.256 24.9047C260.066 24.9659 259.905 25.076 259.775 25.235C259.645 25.394 259.554 25.5933 259.503 25.833L258.876 28.7818L257.252 28.4365ZM265.755 32.3877C265.249 32.2802 264.785 32.1258 264.363 31.9246C263.941 31.7233 263.591 31.4743 263.312 31.1774L263.986 30.1558C264.155 30.3172 264.344 30.4647 264.554 30.5983C264.764 30.732 264.982 30.8446 265.207 30.9363C265.432 31.0279 265.652 31.0967 265.868 31.1426C266.331 31.241 266.699 31.2103 266.972 31.0506C267.246 30.8908 267.428 30.5983 267.518 30.1729L267.693 29.3495L267.787 29.3693C267.606 29.6804 267.326 29.9029 266.947 30.037C266.568 30.1711 266.174 30.1945 265.764 30.1073C265.293 30.0072 264.904 29.8102 264.598 29.5165C264.292 29.2228 264.083 28.8574 263.973 28.4203C263.862 27.9833 263.862 27.5018 263.974 26.9759C264.086 26.4478 264.282 26.0079 264.56 25.6561C264.839 25.3043 265.177 25.0565 265.576 24.9127C265.975 24.7688 266.411 24.747 266.882 24.8472C267.306 24.9374 267.66 25.1193 267.944 25.393C268.227 25.6666 268.385 25.9791 268.418 26.3303L268.335 26.3127L268.546 25.3204L270.132 25.6574L269.14 30.3209C269.015 30.91 268.803 31.3803 268.503 31.7318C268.203 32.0832 267.822 32.3128 267.361 32.4205C266.9 32.5282 266.365 32.5173 265.755 32.3877ZM266.502 28.9952C266.867 29.0726 267.183 29.0088 267.453 28.8037C267.722 28.5986 267.903 28.2744 267.998 27.8311C268.092 27.3879 268.058 27.0185 267.895 26.723C267.732 26.4275 267.468 26.241 267.104 26.1635C266.74 26.0861 266.423 26.1492 266.154 26.353C265.885 26.5568 265.704 26.8803 265.61 27.3236C265.515 27.7668 265.55 28.1369 265.712 28.4337C265.874 28.7306 266.138 28.9177 266.502 28.9952ZM273.394 31.8677L275.007 24.2822L280.205 25.387L279.927 26.6935L276.329 25.9287L275.952 27.7026L279.31 28.4164L279.032 29.7228L275.674 29.009L275.272 30.9013L278.87 31.6661L278.592 32.9726L273.394 31.8677ZM279.003 33.0598L282.191 30.5064L282.034 31.2457L280.268 27.812L282.159 28.2139L283.18 30.3206L282.612 30.1999L284.402 28.6906L286.293 29.0926L283.28 31.5063L283.435 30.7791L285.317 34.4021L283.416 33.9978L282.289 31.7223L282.842 31.8399L280.894 33.4618L279.003 33.0598ZM287.526 34.9911C287.133 34.9074 286.799 34.7585 286.525 34.5442C286.251 34.33 286.056 34.0763 285.938 33.783C285.821 33.4898 285.797 33.1809 285.866 32.8563C285.948 32.469 286.114 32.1842 286.362 32.0021C286.611 31.8199 286.971 31.727 287.441 31.7233C287.912 31.7196 288.522 31.7973 289.271 31.9565L289.836 32.0766L289.658 32.9154L289.097 32.7961C288.823 32.7378 288.587 32.7002 288.389 32.6833C288.192 32.6664 288.027 32.6703 287.896 32.695C287.764 32.7198 287.663 32.7674 287.591 32.8379C287.519 32.9084 287.471 33.0017 287.446 33.1177C287.403 33.3208 287.439 33.5019 287.553 33.6613C287.667 33.8206 287.854 33.928 288.114 33.9833C288.322 34.0274 288.516 34.0189 288.698 33.9578C288.88 33.8967 289.037 33.7925 289.169 33.6451C289.301 33.4978 289.39 33.3143 289.437 33.0947L289.701 31.8539C289.767 31.5425 289.742 31.3054 289.626 31.1428C289.509 30.9801 289.277 30.8618 288.929 30.7878C288.644 30.7272 288.333 30.7067 287.995 30.7264C287.658 30.7461 287.313 30.8134 286.958 30.9284L286.751 29.7522C286.965 29.6627 287.215 29.5973 287.502 29.5558C287.788 29.5144 288.086 29.4977 288.394 29.5059C288.703 29.5141 288.987 29.5458 289.247 29.6011C289.8 29.7185 290.237 29.8969 290.559 30.1362C290.882 30.3755 291.096 30.681 291.203 31.0525C291.309 31.424 291.307 31.8709 291.196 32.3932L290.533 35.5107L289.018 35.1886L289.244 34.1269L289.32 34.1431C289.225 34.3737 289.09 34.5617 288.913 34.7071C288.737 34.8526 288.531 34.9511 288.296 35.0025C288.061 35.054 287.804 35.0502 287.526 34.9911ZM291.779 35.7755L292.901 30.4972L294.487 30.8343L294.276 31.8247L294.158 31.7995C294.302 31.5917 294.474 31.4231 294.674 31.2939C294.874 31.1647 295.097 31.0794 295.345 31.0381C295.592 30.9968 295.854 31.0053 296.129 31.0639C296.534 31.15 296.853 31.3192 297.086 31.5715C297.318 31.8238 297.45 32.1624 297.481 32.5875L297.331 32.5555C297.563 32.2217 297.867 31.9843 298.24 31.8433C298.614 31.7023 299.01 31.6763 299.43 31.7654C299.836 31.8517 300.154 32.0036 300.384 32.2209C300.613 32.4382 300.758 32.7248 300.819 33.0806C300.879 33.4365 300.856 33.8662 300.749 34.3697L300.075 37.539L298.451 37.1936L299.113 34.0781C299.189 33.7214 299.188 33.4502 299.11 33.2645C299.032 33.0788 298.858 32.9574 298.59 32.9003C298.39 32.8578 298.205 32.8695 298.035 32.9357C297.866 33.0018 297.724 33.119 297.608 33.2872C297.493 33.4554 297.407 33.672 297.351 33.9369L296.736 36.8291L295.111 36.4838L295.774 33.3683C295.849 33.0116 295.848 32.7403 295.77 32.5546C295.692 32.3689 295.521 32.2481 295.258 32.1921C295.052 32.1485 294.866 32.16 294.7 32.2266C294.533 32.2933 294.392 32.4107 294.276 32.5789C294.161 32.7472 294.075 32.9637 294.019 33.2286L293.404 36.1209L291.779 35.7755Z" fill="black"/>
<path d="M11.6467 205.787C11.3003 202.492 13.6911 199.54 16.9867 199.193L116.629 188.72C118.826 188.489 120.794 190.083 121.025 192.28L122.593 207.198C122.939 210.494 120.549 213.446 117.253 213.792L19.5999 224.056C16.3043 224.403 13.3519 222.012 13.0056 218.716L11.6467 205.787Z" fill="#B91317"/>
<g filter="url(#filter1_dd_741_18435)">
<rect x="11.0195" y="199.82" width="110.19" height="25.5" rx="6" transform="rotate(-5.99997 11.0195 199.82)" fill="white" fill-opacity="0.01" shape-rendering="crispEdges"/>
</g>
<path d="M24.5208 214.489L27.2548 206.404L28.6228 206.26L32.978 213.6L31.268 213.78L30.1233 211.735L30.8524 212.132L26.2872 212.612L26.9178 212.072L26.2308 214.31L24.5208 214.489ZM28.1121 208.139L27.062 211.628L26.718 211.223L30.1423 210.863L29.8975 211.33L28.134 208.137L28.1121 208.139ZM35.4711 213.456C35.1561 213.489 34.8505 213.497 34.5543 213.478C34.2581 213.46 33.9846 213.419 33.7339 213.356C33.4832 213.292 33.2588 213.204 33.0608 213.092L33.3428 211.979C33.5364 212.067 33.7462 212.142 33.9723 212.203C34.1983 212.264 34.4302 212.305 34.6679 212.326C34.9055 212.346 35.136 212.345 35.3594 212.321C35.6706 212.288 35.8936 212.215 36.0282 212.099C36.1628 211.984 36.2217 211.847 36.2049 211.686C36.1901 211.546 36.1309 211.444 36.0272 211.38C35.9235 211.316 35.7786 211.277 35.5925 211.264L34.4188 211.181C33.9579 211.146 33.593 211.016 33.3241 210.793C33.0552 210.569 32.8999 210.259 32.8581 209.861C32.8198 209.497 32.8886 209.172 33.0643 208.886C33.2401 208.601 33.5004 208.367 33.8451 208.185C34.1898 208.003 34.5949 207.887 35.0604 207.838C35.3179 207.811 35.5733 207.806 35.8266 207.824C36.0799 207.842 36.3233 207.883 36.5568 207.947C36.7903 208.011 37.0017 208.106 37.191 208.231L36.8792 209.337C36.7293 209.244 36.5568 209.168 36.3615 209.108C36.1663 209.049 35.9679 209.006 35.7663 208.981C35.5648 208.955 35.3763 208.951 35.2008 208.97C34.8708 209.005 34.6375 209.081 34.5009 209.199C34.3642 209.316 34.3046 209.458 34.322 209.623C34.3347 209.744 34.388 209.842 34.4818 209.917C34.5755 209.992 34.7115 210.035 34.8895 210.047L36.0632 210.13C36.5437 210.163 36.9204 210.286 37.1931 210.498C37.4659 210.71 37.6235 211.018 37.6661 211.424C37.7056 211.799 37.6405 212.13 37.4708 212.416C37.3011 212.703 37.0448 212.935 36.702 213.113C36.3591 213.291 35.9488 213.406 35.4711 213.456ZM40.8534 212.89C40.5384 212.923 40.2328 212.931 39.9366 212.913C39.6404 212.894 39.367 212.854 39.1163 212.79C38.8655 212.727 38.6412 212.639 38.4432 212.526L38.7251 211.413C38.9188 211.501 39.1286 211.576 39.3546 211.637C39.5807 211.699 39.8126 211.74 40.0502 211.76C40.2879 211.78 40.5184 211.779 40.7418 211.755C41.053 211.723 41.2759 211.649 41.4106 211.534C41.5452 211.419 41.6041 211.281 41.5872 211.121C41.5725 210.98 41.5132 210.878 41.4096 210.814C41.3059 210.75 41.161 210.712 40.9749 210.699L39.8012 210.615C39.3403 210.58 38.9754 210.451 38.7065 210.227C38.4376 210.004 38.2822 209.693 38.2404 209.295C38.2022 208.931 38.2709 208.607 38.4467 208.321C38.6225 208.035 38.8827 207.801 39.2275 207.619C39.5722 207.437 39.9773 207.321 40.4427 207.272C40.7003 207.245 40.9557 207.241 41.209 207.259C41.4623 207.276 41.7057 207.317 41.9392 207.382C42.1727 207.446 42.3841 207.54 42.5733 207.666L42.2615 208.772C42.1117 208.679 41.9391 208.602 41.7439 208.543C41.5487 208.483 41.3503 208.44 41.1487 208.415C40.9471 208.389 40.7586 208.386 40.5831 208.404C40.2532 208.439 40.0199 208.515 39.8832 208.633C39.7466 208.751 39.687 208.892 39.7043 209.058C39.7171 209.179 39.7703 209.277 39.8641 209.352C39.9579 209.427 40.0938 209.47 40.2719 209.481L41.4456 209.564C41.9261 209.598 42.3027 209.72 42.5755 209.932C42.8482 210.144 43.0059 210.453 43.0485 210.858C43.088 211.233 43.0229 211.564 42.8531 211.851C42.6834 212.137 42.4272 212.369 42.0843 212.548C41.7415 212.726 41.3312 212.84 40.8534 212.89ZM43.4254 206.022L43.2635 204.482L45.0486 204.295L45.2105 205.835L43.4254 206.022ZM44.1694 212.424L43.6053 207.057L45.2572 206.884L45.8213 212.251L44.1694 212.424ZM49.9004 213.93C49.3862 213.984 48.8972 213.981 48.4336 213.92C47.97 213.859 47.5597 213.73 47.2026 213.534L47.5287 212.354C47.7389 212.456 47.9645 212.537 48.2054 212.6C48.4463 212.662 48.6879 212.702 48.9304 212.719C49.1728 212.737 49.4038 212.734 49.6235 212.711C50.0939 212.662 50.4344 212.519 50.645 212.282C50.8556 212.046 50.9382 211.712 50.8928 211.279L50.8048 210.442L50.8998 210.432C50.8238 210.784 50.6265 211.082 50.3077 211.326C49.9889 211.571 49.621 211.715 49.204 211.759C48.7249 211.809 48.2945 211.742 47.9126 211.557C47.5307 211.372 47.2196 211.089 46.9792 210.708C46.7389 210.326 46.5906 209.868 46.5344 209.334C46.478 208.797 46.5278 208.318 46.6838 207.897C46.8399 207.477 47.0855 207.136 47.4206 206.876C47.7557 206.616 48.1628 206.461 48.6419 206.411C49.0735 206.365 49.4664 206.429 49.8205 206.602C50.1745 206.774 50.4214 207.023 50.561 207.347L50.4769 207.355L50.3709 206.346L51.9831 206.177L52.4814 210.918C52.5444 211.518 52.4875 212.03 52.3109 212.457C52.1343 212.884 51.8434 213.22 51.4382 213.465C51.033 213.71 50.5204 213.865 49.9004 213.93ZM49.5627 210.473C49.9332 210.434 50.2147 210.275 50.4073 209.997C50.5999 209.719 50.6725 209.354 50.6251 208.904C50.5777 208.453 50.431 208.112 50.1849 207.882C49.9388 207.651 49.6306 207.555 49.2601 207.594C48.8896 207.633 48.608 207.791 48.4153 208.068C48.2226 208.344 48.1499 208.708 48.1973 209.159C48.2446 209.61 48.3914 209.951 48.6377 210.183C48.8839 210.415 49.1922 210.512 49.5627 210.473ZM53.8292 211.409L53.2651 206.042L54.8773 205.873L54.9832 206.88L54.8628 206.892C54.9919 206.511 55.2125 206.207 55.5245 205.979C55.8366 205.752 56.2032 205.616 56.6243 205.572C57.0546 205.526 57.4175 205.571 57.713 205.705C58.0086 205.839 58.2426 206.066 58.4152 206.387C58.5877 206.707 58.7008 207.123 58.7545 207.633L59.0932 210.856L57.4413 211.029L57.1102 207.879C57.084 207.63 57.0327 207.431 56.9563 207.283C56.8799 207.134 56.7779 207.03 56.6503 206.971C56.5228 206.911 56.3662 206.891 56.1805 206.91C55.9522 206.934 55.7571 207.005 55.5952 207.122C55.4332 207.239 55.3148 207.393 55.2399 207.584C55.165 207.776 55.1403 207.993 55.166 208.237L55.4811 211.235L53.8292 211.409ZM60.3602 210.722L59.7962 205.356L61.4084 205.186L61.5142 206.193L61.3939 206.206C61.4666 205.964 61.578 205.75 61.7282 205.566C61.8784 205.381 62.0648 205.231 62.2875 205.115C62.5101 204.999 62.7613 204.927 63.0412 204.897C63.4532 204.854 63.8087 204.916 64.1078 205.084C64.4068 205.252 64.637 205.534 64.7983 205.928L64.6451 205.944C64.7632 205.555 64.9782 205.236 65.29 204.986C65.6018 204.736 65.9708 204.589 66.3969 204.544C66.8099 204.501 67.1593 204.547 67.445 204.683C67.7307 204.819 67.9573 205.046 68.1248 205.366C68.2923 205.686 68.4029 206.102 68.4567 206.614L68.7954 209.836L67.1435 210.01L66.8106 206.842C66.7725 206.479 66.6876 206.222 66.5559 206.069C66.4243 205.917 66.222 205.855 65.9491 205.883C65.7454 205.905 65.5732 205.973 65.4326 206.088C65.292 206.204 65.1928 206.359 65.1351 206.555C65.0773 206.75 65.0626 206.983 65.0909 207.252L65.4 210.193L63.7481 210.366L63.4152 207.199C63.3771 206.836 63.2922 206.578 63.1605 206.426C63.0289 206.273 62.8291 206.211 62.5612 206.239C62.3525 206.261 62.1791 206.33 62.041 206.445C61.9029 206.56 61.8049 206.715 61.7472 206.911C61.6894 207.106 61.6747 207.339 61.703 207.608L62.0121 210.549L60.3602 210.722ZM72.8598 209.526C72.2294 209.592 71.6736 209.535 71.1926 209.355C70.7116 209.175 70.326 208.888 70.0358 208.495C69.7455 208.101 69.5704 207.619 69.5104 207.048C69.4521 206.494 69.5193 205.995 69.712 205.552C69.9046 205.11 70.1965 204.747 70.5877 204.465C70.9789 204.183 71.4402 204.014 71.9717 203.959C72.4982 203.903 72.963 203.967 73.366 204.151C73.769 204.334 74.0962 204.62 74.3478 205.007C74.5993 205.394 74.7546 205.868 74.8136 206.429L74.8572 206.844L70.9095 207.259L70.8199 206.406L73.5753 206.117L73.4195 206.285C73.3727 205.84 73.2403 205.512 73.0225 205.303C72.8047 205.094 72.5167 205.008 72.1586 205.045C71.8911 205.073 71.6683 205.16 71.4902 205.304C71.312 205.448 71.185 205.641 71.1089 205.884C71.0329 206.128 71.0123 206.415 71.0473 206.748L71.056 206.831C71.0953 207.205 71.1838 207.505 71.3214 207.732C71.459 207.958 71.6487 208.117 71.8904 208.207C72.1321 208.297 72.4238 208.324 72.7656 208.288C73.0555 208.257 73.3459 208.183 73.6369 208.063C73.9278 207.944 74.1845 207.782 74.4068 207.578L74.9564 208.63C74.7112 208.863 74.3983 209.06 74.0176 209.222C73.6368 209.384 73.2509 209.485 72.8598 209.526ZM76.0697 209.071L75.5056 203.705L77.1178 203.535L77.2237 204.542L77.1033 204.555C77.2324 204.174 77.453 203.869 77.765 203.642C78.0771 203.414 78.4437 203.278 78.8648 203.234C79.2951 203.189 79.658 203.233 79.9535 203.367C80.249 203.501 80.4831 203.729 80.6556 204.049C80.8282 204.37 80.9413 204.785 80.995 205.296L81.3337 208.518L79.6818 208.692L79.3507 205.542C79.3245 205.292 79.2732 205.093 79.1968 204.945C79.1204 204.797 79.0184 204.693 78.8908 204.633C78.7633 204.573 78.6066 204.553 78.421 204.573C78.1927 204.597 77.9976 204.667 77.8357 204.784C77.6737 204.901 77.5553 205.055 77.4804 205.247C77.4055 205.438 77.3808 205.656 77.4065 205.9L77.7216 208.898L76.0697 209.071ZM85.2266 208.226C84.4616 208.307 83.8738 208.182 83.4633 207.852C83.0528 207.523 82.8094 206.996 82.7333 206.271L82.5165 204.208L81.4984 204.315L81.3695 203.088L82.3875 202.981L82.2214 201.401L83.8733 201.228L84.0394 202.808L85.6174 202.642L85.7463 203.869L84.1684 204.035L84.3779 206.028C84.4103 206.337 84.5049 206.56 84.6615 206.698C84.818 206.835 85.0517 206.887 85.3625 206.855C85.4578 206.845 85.5577 206.822 85.6624 206.788C85.7671 206.753 85.8807 206.714 86.0032 206.669L86.3648 207.846C86.2236 207.942 86.0495 208.024 85.8423 208.092C85.6352 208.16 85.4299 208.205 85.2266 208.226ZM90.1744 207.589L89.3638 199.876L92.3877 199.559C93.2642 199.466 94.0255 199.539 94.6714 199.775C95.3173 200.012 95.8324 200.4 96.2167 200.938C96.601 201.477 96.8362 202.156 96.9223 202.975C97.0085 203.795 96.9198 204.51 96.6562 205.12C96.3927 205.73 95.9696 206.218 95.387 206.584C94.8044 206.95 94.0749 207.179 93.1983 207.271L90.1744 207.589ZM91.7265 206.018L92.9473 205.889C93.7781 205.802 94.3749 205.533 94.7378 205.082C95.1007 204.63 95.2386 203.99 95.1514 203.161C95.0641 202.33 94.7944 201.734 94.3425 201.373C93.8906 201.013 93.2529 200.876 92.4294 200.962L91.2086 201.09L91.7265 206.018ZM100.493 206.622C100.039 206.67 99.6554 206.625 99.3415 206.489C99.0276 206.352 98.7807 206.124 98.6008 205.803C98.421 205.482 98.3046 205.069 98.2515 204.564L97.9136 201.349L99.5655 201.176L99.9072 204.426C99.9294 204.638 99.9769 204.812 100.05 204.948C100.122 205.085 100.224 205.182 100.355 205.239C100.486 205.295 100.645 205.314 100.833 205.294C101.044 205.272 101.225 205.203 101.374 205.087C101.523 204.971 101.634 204.817 101.707 204.625C101.78 204.433 101.804 204.215 101.778 203.971L101.464 200.976L103.115 200.803L103.679 206.169L102.067 206.339L101.957 205.288L102.12 205.271C102.002 205.663 101.804 205.975 101.527 206.208C101.249 206.441 100.905 206.579 100.493 206.622ZM107.758 205.858C107.127 205.925 106.571 205.868 106.09 205.687C105.609 205.507 105.224 205.22 104.934 204.827C104.643 204.434 104.468 203.951 104.408 203.38C104.35 202.826 104.417 202.327 104.61 201.884C104.802 201.442 105.094 201.079 105.485 200.797C105.877 200.515 106.338 200.347 106.87 200.291C107.396 200.235 107.861 200.299 108.264 200.483C108.667 200.666 108.994 200.952 109.246 201.339C109.497 201.726 109.652 202.2 109.711 202.761L109.755 203.176L105.807 203.591L105.718 202.739L108.473 202.449L108.317 202.617C108.27 202.172 108.138 201.844 107.92 201.635C107.703 201.426 107.415 201.34 107.056 201.377C106.789 201.406 106.566 201.492 106.388 201.636C106.21 201.78 106.083 201.973 106.007 202.217C105.931 202.46 105.91 202.747 105.945 203.08L105.954 203.163C105.993 203.537 106.082 203.837 106.219 204.064C106.357 204.291 106.546 204.449 106.788 204.539C107.03 204.629 107.322 204.656 107.663 204.62C107.953 204.59 108.244 204.515 108.535 204.395C108.826 204.276 109.082 204.114 109.305 203.91L109.854 204.962C109.609 205.195 109.296 205.392 108.915 205.554C108.535 205.716 108.149 205.817 107.758 205.858Z" fill="white"/>
</g>
<defs>
<filter id="filter0_dd_741_18435" x="25" y="31.501" width="280" height="221" filterUnits="userSpaceOnUse" color-interpolation-filters="sRGB">
<feFlood flood-opacity="0" result="BackgroundImageFix"/>
<feColorMatrix in="SourceAlpha" type="matrix" values="0 0 0 0 0 0 0 0 0 0 0 0 0 0 0 0 0 0 127 0" result="hardAlpha"/>
<feMorphology radius="6" operator="erode" in="SourceAlpha" result="effect1_dropShadow_741_18435"/>
<feOffset dy="8"/>
<feGaussianBlur stdDeviation="5"/>
<feComposite in2="hardAlpha" operator="out"/>
<feColorMatrix type="matrix" values="0 0 0 0 0 0 0 0 0 0 0 0 0 0 0 0 0 0 0.1 0"/>
<feBlend mode="normal" in2="BackgroundImageFix" result="effect1_dropShadow_741_18435"/>
<feColorMatrix in="SourceAlpha" type="matrix" values="0 0 0 0 0 0 0 0 0 0 0 0 0 0 0 0 0 0 127 0" result="hardAlpha"/>
<feMorphology radius="5" operator="erode" in="SourceAlpha" result="effect2_dropShadow_741_18435"/>
<feOffset dy="20"/>
<feGaussianBlur stdDeviation="12.5"/>
<feComposite in2="hardAlpha" operator="out"/>
<feColorMatrix type="matrix" values="0 0 0 0 0 0 0 0 0 0 0 0 0 0 0 0 0 0 0.1 0"/>
<feBlend mode="normal" in2="effect1_dropShadow_741_18435" result="effect2_dropShadow_741_18435"/>
<feBlend mode="normal" in="SourceGraphic" in2="effect2_dropShadow_741_18435" result="shape"/>
</filter>
<filter id="filter1_dd_741_18435" x="6.61328" y="187.896" width="121.064" height="45.6904" filterUnits="userSpaceOnUse" color-interpolation-filters="sRGB">
<feFlood flood-opacity="0" result="BackgroundImageFix"/>
<feColorMatrix in="SourceAlpha" type="matrix" values="0 0 0 0 0 0 0 0 0 0 0 0 0 0 0 0 0 0 127 0" result="hardAlpha"/>
<feMorphology radius="2" operator="erode" in="SourceAlpha" result="effect1_dropShadow_741_18435"/>
<feOffset dy="2"/>
<feGaussianBlur stdDeviation="2"/>
<feComposite in2="hardAlpha" operator="out"/>
<feColorMatrix type="matrix" values="0 0 0 0 0 0 0 0 0 0 0 0 0 0 0 0 0 0 0.1 0"/>
<feBlend mode="normal" in2="BackgroundImageFix" result="effect1_dropShadow_741_18435"/>
<feColorMatrix in="SourceAlpha" type="matrix" values="0 0 0 0 0 0 0 0 0 0 0 0 0 0 0 0 0 0 127 0" result="hardAlpha"/>
<feMorphology radius="1" operator="erode" in="SourceAlpha" result="effect2_dropShadow_741_18435"/>
<feOffset dy="4"/>
<feGaussianBlur stdDeviation="3"/>
<feComposite in2="hardAlpha" operator="out"/>
<feColorMatrix type="matrix" values="0 0 0 0 0 0 0 0 0 0 0 0 0 0 0 0 0 0 0.1 0"/>
<feBlend mode="normal" in2="effect1_dropShadow_741_18435" result="effect2_dropShadow_741_18435"/>
<feBlend mode="normal" in="SourceGraphic" in2="effect2_dropShadow_741_18435" result="shape"/>
</filter>
<clipPath id="clip0_741_18435">
<rect width="330" height="244" rx="24" fill="white"/>
</clipPath>
<clipPath id="clip1_741_18435">
<rect x="61" y="95.5" width="208" height="7.99962" rx="3.99981" fill="white"/>
</clipPath>
</defs>
</svg>
