<svg width="59" height="59" viewBox="0 0 59 59" fill="none" xmlns="http://www.w3.org/2000/svg">
<g clip-path="url(#clip0_475_23939)">
<path d="M12.1745 51.5641C11.7047 51.5641 11.2958 51.4672 10.9478 51.2732C10.6041 51.075 10.3387 50.7973 10.1517 50.4404C9.96461 50.079 9.87109 49.6561 9.87109 49.1713C9.87109 48.6864 9.96461 48.2657 10.1517 47.9087C10.3387 47.5474 10.6041 47.2697 10.9478 47.0759C11.2958 46.8819 11.7047 46.785 12.1745 46.785C12.6444 46.785 13.0511 46.8819 13.3948 47.0759C13.7428 47.2697 14.0082 47.5474 14.1909 47.9087C14.3779 48.2657 14.4715 48.6864 14.4715 49.1713C14.4715 49.6561 14.3779 50.079 14.1909 50.4404C14.0038 50.7973 13.7363 51.075 13.3882 51.2732C13.0446 51.4672 12.64 51.5641 12.1745 51.5641ZM12.1745 50.6321C12.5226 50.6321 12.7944 50.5088 12.9902 50.2619C13.186 50.0108 13.2838 49.6472 13.2838 49.1713C13.2838 48.6953 13.1838 48.3339 12.9837 48.0872C12.7879 47.8403 12.5182 47.717 12.1745 47.717C11.8265 47.717 11.5546 47.8403 11.3589 48.0872C11.1631 48.3295 11.0652 48.6908 11.0652 49.1713C11.0652 49.6516 11.1631 50.0152 11.3589 50.2619C11.5546 50.5088 11.8265 50.6321 12.1745 50.6321ZM11.0065 45.4298H12.0375V46.4214H11.0065V45.4298ZM12.2985 45.4298H13.3295V46.4214H12.2985V45.4298Z" fill="white"/>
<path d="M17.6618 51.5626C17.3181 51.5626 16.9788 51.5164 16.6438 51.4238C16.3088 51.3312 16.0369 51.2079 15.8281 51.0536L16.2001 50.1944C16.4219 50.3352 16.659 50.4433 16.9113 50.5181C17.1636 50.5932 17.4181 50.6306 17.6748 50.6306C17.9358 50.6306 18.1338 50.5954 18.2686 50.5248C18.4078 50.4499 18.4774 50.3463 18.4774 50.2141C18.4774 50.0952 18.4143 49.9982 18.2882 49.9234C18.1664 49.8483 17.9315 49.7735 17.5834 49.6986C17.1528 49.606 16.8156 49.4958 16.572 49.368C16.3284 49.2402 16.1566 49.0903 16.0565 48.9185C15.9608 48.7467 15.913 48.5352 15.913 48.2839C15.913 47.9976 15.9913 47.742 16.1479 47.5173C16.3088 47.2881 16.5329 47.1096 16.82 46.9818C17.1114 46.8496 17.4442 46.7834 17.8184 46.7834C18.149 46.7834 18.4687 46.8319 18.7776 46.9289C19.0908 47.0215 19.3344 47.1426 19.5084 47.2925L19.143 48.1517C18.7254 47.8609 18.286 47.7155 17.8249 47.7155C17.603 47.7155 17.4247 47.7595 17.2898 47.8477C17.1549 47.9314 17.0875 48.0438 17.0875 48.1849C17.0875 48.2686 17.1114 48.3368 17.1593 48.3897C17.2071 48.4426 17.2963 48.4956 17.4268 48.5483C17.5573 48.5968 17.7509 48.6475 18.0076 48.7004C18.4252 48.793 18.7536 48.9052 18.9929 49.0374C19.2322 49.1654 19.4018 49.3151 19.502 49.4869C19.6019 49.659 19.652 49.8638 19.652 50.1018C19.652 50.56 19.478 50.9192 19.1299 51.1791C18.782 51.4349 18.2925 51.5626 17.6618 51.5626Z" fill="white"/>
<path d="M22.0877 51.5038V47.8287H20.7109V46.8438H24.6783V47.8287H23.3014V51.5038H22.0877Z" fill="white"/>
<path d="M25.9883 51.5038V46.8438H29.2574V47.7824H27.1563V48.6681H29.1269V49.6002H27.1563V50.5652H29.2574V51.5038H25.9883Z" fill="white"/>
<path d="M34.8364 51.5037H33.5183L32.7222 50.0165C32.6221 49.8445 32.4633 49.7586 32.2458 49.7586H31.8803V51.5037H30.6992V46.8436H32.8918C33.4486 46.8436 33.8662 46.967 34.1446 47.2137C34.4275 47.4561 34.5689 47.8086 34.5689 48.2714C34.5689 48.624 34.473 48.9236 34.2816 49.1704C34.0902 49.4127 33.8205 49.5757 33.4726 49.6596C33.7379 49.7167 33.9488 49.8908 34.1055 50.1817L34.8364 51.5037ZM32.7026 48.8465C32.968 48.8465 33.1571 48.8046 33.2703 48.7209C33.3878 48.637 33.4464 48.5006 33.4464 48.3111C33.4464 48.1171 33.3878 47.9783 33.2703 47.8946C33.1571 47.8064 32.968 47.7624 32.7026 47.7624H31.8672V48.8465H32.7026Z" fill="white"/>
<path d="M40.2661 51.5038H38.948L38.1519 50.0167C38.0518 49.8446 37.893 49.7587 37.6754 49.7587H37.31V51.5038H36.1289V46.8438H38.3215C38.8783 46.8438 39.2959 46.9671 39.5743 47.2138C39.8572 47.4562 39.9986 47.8088 39.9986 48.2715C39.9986 48.6241 39.9029 48.9237 39.7113 49.1706C39.5199 49.4128 39.2502 49.5758 38.9023 49.6597C39.1676 49.7169 39.3785 49.8909 39.5352 50.1819L40.2661 51.5038ZM38.1323 48.8466C38.3976 48.8466 38.5868 48.8048 38.7 48.7211C38.8175 48.6372 38.8761 48.5007 38.8761 48.3112C38.8761 48.1172 38.8175 47.9784 38.7 47.8947C38.5868 47.8066 38.3976 47.7625 38.1323 47.7625H37.2969V48.8466H38.1323Z" fill="white"/>
<path d="M41.5586 51.5038V46.8438H44.8279V47.7824H42.7266V48.6681H44.6974V49.6002H42.7266V50.5652H44.8279V51.5038H41.5586Z" fill="white"/>
<path d="M46.2656 51.5038V46.8438H47.4663V51.5038H46.2656Z" fill="white"/>
<path d="M51.3491 51.5624C50.8707 51.5624 50.4531 51.4632 50.0963 51.265C49.744 51.0666 49.472 50.7867 49.2806 50.4253C49.0935 50.064 49 49.6454 49 49.1696C49 48.6935 49.0935 48.2772 49.2806 47.9202C49.472 47.5589 49.744 47.279 50.0963 47.0806C50.4531 46.8824 50.8707 46.7832 51.3491 46.7832C51.6493 46.7832 51.9386 46.8295 52.217 46.922C52.4998 47.0146 52.7303 47.1379 52.9087 47.2923L52.5367 48.1514C52.1583 47.8826 51.7712 47.7482 51.3753 47.7482C51.0012 47.7482 50.714 47.8673 50.5139 48.1052C50.3181 48.3432 50.2202 48.6979 50.2202 49.1696C50.2202 49.641 50.3181 49.998 50.5139 50.2404C50.714 50.4783 51.0012 50.5972 51.3753 50.5972C51.7712 50.5972 52.1583 50.463 52.5367 50.1941L52.9087 51.0533C52.7303 51.2077 52.4998 51.331 52.217 51.4236C51.9386 51.5161 51.6493 51.5624 51.3491 51.5624Z" fill="white"/>
<path d="M57.4056 46.8438H58.58V51.5038H57.4056V49.6199H55.5262V51.5038H54.3516V46.8438H55.5262V48.6549H57.4056V46.8438Z" fill="white"/>
<path d="M23.2383 58.9413V54.2812H24.4389V58.9413H23.2383Z" fill="white"/>
<path d="M29.068 54.2812H30.1905V58.9413H29.3029L27.2018 56.2775V58.9413H26.0859V54.2812H26.9604L29.068 56.9451V54.2812Z" fill="white"/>
<path d="M33.5055 58.9999C33.1618 58.9999 32.8224 58.9536 32.4875 58.8611C32.1525 58.7685 31.8806 58.6452 31.6719 58.4908L32.0438 57.6316C32.2656 57.7727 32.5027 57.8805 32.7551 57.9554C33.0073 58.0304 33.2619 58.0679 33.5186 58.0679C33.7795 58.0679 33.9775 58.0327 34.1123 57.962C34.2515 57.8872 34.3212 57.7836 34.3212 57.6514C34.3212 57.5324 34.2581 57.4355 34.1318 57.3606C34.0101 57.2856 33.7752 57.2107 33.4271 57.1359C32.9964 57.0433 32.6594 56.933 32.4156 56.8053C32.1721 56.6775 32.0002 56.5276 31.9001 56.3558C31.8044 56.1839 31.7567 55.9725 31.7567 55.7213C31.7567 55.4348 31.835 55.1793 31.9916 54.9545C32.1525 54.7253 32.3766 54.5469 32.6636 54.4191C32.9551 54.2869 33.2879 54.2207 33.662 54.2207C33.9926 54.2207 34.3125 54.2692 34.6213 54.3662C34.9346 54.4587 35.1781 54.5799 35.3522 54.7298L34.9868 55.5891C34.5691 55.2982 34.1298 55.1527 33.6687 55.1527C33.4467 55.1527 33.2684 55.1968 33.1334 55.2849C32.9986 55.3686 32.9312 55.4811 32.9312 55.6221C32.9312 55.7058 32.9551 55.7741 33.0031 55.827C33.0508 55.8799 33.1401 55.9328 33.2706 55.9857C33.4011 56.0342 33.5945 56.0847 33.8514 56.1376C34.269 56.2302 34.5974 56.3427 34.8367 56.4749C35.0758 56.6026 35.2456 56.7524 35.3455 56.9244C35.4457 57.0962 35.4956 57.3011 35.4956 57.5391C35.4956 57.9973 35.3218 58.3564 34.9737 58.6166C34.6256 58.8721 34.1362 58.9999 33.5055 58.9999Z" fill="white"/>
<path d="M37.9316 58.9413V55.2662H36.5547V54.2812H40.5223V55.2662H39.1453V58.9413H37.9316Z" fill="white"/>
<path d="M41.832 58.9413V54.2812H43.0329V58.9413H41.832Z" fill="white"/>
<path d="M45.7168 58.9413V55.2662H44.3398V54.2812H48.3074V55.2662H46.9305V58.9413H45.7168Z" fill="white"/>
<path d="M51.6296 59.0009C50.964 59.0009 50.4572 58.829 50.1093 58.4854C49.7656 58.1415 49.5938 57.6393 49.5938 56.9781V54.2812H50.7682V57.0244C50.7682 57.3594 50.8423 57.6171 50.9902 57.7978C51.1381 57.9785 51.3512 58.0689 51.6296 58.0689C51.908 58.0689 52.1212 57.9785 52.2692 57.7978C52.4171 57.6171 52.491 57.3594 52.491 57.0244V54.2812H53.6721V56.9781C53.6721 57.6348 53.4959 58.1371 53.1435 58.4854C52.7954 58.829 52.291 59.0009 51.6296 59.0009Z" fill="white"/>
<path d="M56.3339 58.9413V55.2662H54.957V54.2812H58.9244V55.2662H57.5477V58.9413H56.3339Z" fill="white"/>
<path fill-rule="evenodd" clip-rule="evenodd" d="M31.8381 3.86922C31.5755 4.7273 31.4328 5.64293 31.4328 6.58995V6.59257C31.4328 11.3748 35.0513 15.2885 39.6331 15.6103C40.0282 17.2244 40.2397 18.9145 40.2397 20.6566C40.2397 32.0656 31.234 41.3135 20.121 41.3135C9.00812 41.3135 0 32.0656 0 20.6566C0 9.24792 9.00812 0 20.121 0C24.4939 0 28.5379 1.43886 31.8381 3.86922ZM12.3107 20.6541C12.3107 25.0831 15.8069 28.6725 20.121 28.6725C24.4352 28.6725 27.9315 25.0831 27.9315 20.6541C27.9315 16.2251 24.4352 12.6358 20.121 12.6358C15.8069 12.6358 12.3107 16.2251 12.3107 20.6541ZM40.6475 13.4957C44.1763 13.4957 47.0368 10.4746 47.0368 6.74787C47.0368 3.02111 44.1763 0 40.6475 0C37.1187 0 34.258 3.02111 34.258 6.74787C34.258 10.4746 37.1187 13.4957 40.6475 13.4957ZM54.2831 1.10169H47.9473C47.8536 1.10169 47.7633 1.10836 47.6722 1.11508L47.6014 1.12018C48.6239 2.62061 49.2305 4.45651 49.2305 6.44564C49.2305 10.5084 46.7116 13.9504 43.2304 15.1339V35.7911C43.2304 38.5357 45.3432 40.7625 47.9473 40.7625H54.2831C56.8872 40.7625 59 38.5357 59 35.7911V6.07316C59 3.32856 56.8872 1.10169 54.2831 1.10169Z" fill="white"/>
</g>
<defs>
<clipPath id="clip0_475_23939">
<rect width="59" height="59" fill="white"/>
</clipPath>
</defs>
</svg>
