<svg width="52" height="52" viewBox="0 0 52 52" fill="none" xmlns="http://www.w3.org/2000/svg">
<g clip-path="url(#clip0_475_24991)">
<path d="M10.7294 45.4458C10.3153 45.4458 9.95487 45.3603 9.64815 45.1894C9.34525 45.0147 9.11138 44.7699 8.94651 44.4553C8.78164 44.1368 8.69922 43.7641 8.69922 43.3368C8.69922 42.9095 8.78164 42.5386 8.94651 42.224C9.11138 41.9055 9.34525 41.6608 9.64815 41.49C9.95487 41.3191 10.3153 41.2336 10.7294 41.2336C11.1434 41.2336 11.5019 41.3191 11.8048 41.49C12.1116 41.6608 12.3454 41.9055 12.5065 42.224C12.6713 42.5386 12.7538 42.9095 12.7538 43.3368C12.7538 43.7641 12.6713 44.1368 12.5065 44.4553C12.3416 44.7699 12.1058 45.0147 11.7991 45.1894C11.4962 45.3603 11.1396 45.4458 10.7294 45.4458ZM10.7294 44.6243C11.0361 44.6243 11.2757 44.5156 11.4483 44.298C11.6208 44.0767 11.7071 43.7563 11.7071 43.3368C11.7071 42.9173 11.6189 42.5988 11.4425 42.3813C11.27 42.1638 11.0323 42.055 10.7294 42.055C10.4226 42.055 10.183 42.1638 10.0105 42.3813C9.83794 42.5949 9.75167 42.9134 9.75167 43.3368C9.75167 43.7602 9.83794 44.0806 10.0105 44.298C10.183 44.5156 10.4226 44.6243 10.7294 44.6243ZM9.69991 40.0392H10.6086V40.9132H9.69991V40.0392ZM10.8386 40.0392H11.7473V40.9132H10.8386V40.0392Z" fill="black"/>
<path d="M15.5653 45.4446C15.2624 45.4446 14.9633 45.4038 14.6681 45.3222C14.3729 45.2406 14.1332 45.1319 13.9492 44.9959L14.277 44.2387C14.4726 44.3628 14.6815 44.458 14.9039 44.524C15.1263 44.5902 15.3506 44.6231 15.5768 44.6231C15.8068 44.6231 15.9813 44.5921 16.1002 44.5299C16.2228 44.4639 16.2842 44.3726 16.2842 44.2561C16.2842 44.1512 16.2286 44.0658 16.1174 43.9998C16.01 43.9337 15.803 43.8677 15.4963 43.8017C15.1167 43.7201 14.8196 43.623 14.6048 43.5103C14.3901 43.3977 14.2387 43.2656 14.1505 43.1142C14.0662 42.9627 14.024 42.7763 14.024 42.5548C14.024 42.3025 14.093 42.0773 14.231 41.8792C14.3729 41.6772 14.5703 41.5199 14.8234 41.4073C15.0803 41.2908 15.3736 41.2324 15.7033 41.2324C15.9947 41.2324 16.2765 41.2752 16.5487 41.3606C16.8248 41.4422 17.0395 41.549 17.1929 41.6811L16.8708 42.4383C16.5027 42.1821 16.1155 42.0539 15.7091 42.0539C15.5135 42.0539 15.3563 42.0927 15.2375 42.1704C15.1186 42.2441 15.0592 42.3433 15.0592 42.4676C15.0592 42.5414 15.0803 42.6015 15.1225 42.6481C15.1646 42.6948 15.2432 42.7414 15.3583 42.7879C15.4733 42.8306 15.6439 42.8753 15.8701 42.9219C16.2382 43.0035 16.5276 43.1025 16.7385 43.219C16.9494 43.3318 17.0989 43.4637 17.1872 43.6152C17.2753 43.7668 17.3195 43.9473 17.3195 44.1571C17.3195 44.5609 17.1661 44.8775 16.8593 45.1066C16.5526 45.332 16.1212 45.4446 15.5653 45.4446Z" fill="black"/>
<path d="M19.4673 45.3923V42.1532H18.2539V41.2852H21.7506V42.1532H20.537V45.3923H19.4673Z" fill="black"/>
<path d="M22.9023 45.3923V41.2852H25.7836V42.1124H23.9318V42.8931H25.6686V43.7145H23.9318V44.5651H25.7836V45.3923H22.9023Z" fill="black"/>
<path d="M30.701 45.3923H29.5393L28.8376 44.0816C28.7494 43.93 28.6095 43.8543 28.4177 43.8543H28.0957V45.3923H27.0547V41.2852H28.9871C29.4779 41.2852 29.846 41.3939 30.0913 41.6113C30.3406 41.825 30.4652 42.1357 30.4652 42.5436C30.4652 42.8543 30.3807 43.1183 30.2121 43.3359C30.0434 43.5494 29.8056 43.6931 29.499 43.767C29.7329 43.8174 29.9187 43.9708 30.0569 44.2272L30.701 45.3923ZM28.8204 43.0504C29.0543 43.0504 29.221 43.0135 29.3208 42.9397C29.4243 42.8658 29.4759 42.7455 29.4759 42.5785C29.4759 42.4075 29.4243 42.2852 29.3208 42.2114C29.221 42.1337 29.0543 42.0949 28.8204 42.0949H28.0841V43.0504H28.8204Z" fill="black"/>
<path d="M35.4862 45.3923H34.3245L33.6228 44.0816C33.5346 43.93 33.3946 43.8543 33.2029 43.8543H32.8808V45.3923H31.8398V41.2852H33.7723C34.263 41.2852 34.6311 41.3939 34.8765 41.6113C35.1258 41.825 35.2504 42.1357 35.2504 42.5436C35.2504 42.8543 35.1661 43.1183 34.9972 43.3359C34.8285 43.5494 34.5908 43.6931 34.2842 43.767C34.518 43.8174 34.7039 43.9708 34.842 44.2272L35.4862 45.3923ZM33.6056 43.0504C33.8394 43.0504 34.0061 43.0135 34.1059 42.9397C34.2094 42.8658 34.2611 42.7455 34.2611 42.5785C34.2611 42.4075 34.2094 42.2852 34.1059 42.2114C34.0061 42.1337 33.8394 42.0949 33.6056 42.0949H32.8693V43.0504H33.6056Z" fill="black"/>
<path d="M36.6289 45.3923V41.2852H39.5104V42.1124H37.6583V42.8931H39.3953V43.7145H37.6583V44.5651H39.5104V45.3923H36.6289Z" fill="black"/>
<path d="M40.7773 45.3923V41.2852H41.8355V45.3923H40.7773Z" fill="black"/>
<path d="M45.2579 45.4446C44.8362 45.4446 44.4682 45.3572 44.1537 45.1825C43.8432 45.0076 43.6035 44.7609 43.4348 44.4424C43.2699 44.1239 43.1875 43.7551 43.1875 43.3357C43.1875 42.9161 43.2699 42.5492 43.4348 42.2346C43.6035 41.9161 43.8432 41.6694 44.1537 41.4945C44.4682 41.3198 44.8362 41.2324 45.2579 41.2324C45.5225 41.2324 45.7774 41.2732 46.0228 41.3548C46.2721 41.4364 46.4752 41.5451 46.6325 41.6811L46.3046 42.4383C45.9711 42.2014 45.6299 42.0829 45.281 42.0829C44.9513 42.0829 44.6981 42.1879 44.5218 42.3975C44.3492 42.6073 44.2629 42.92 44.2629 43.3357C44.2629 43.7512 44.3492 44.0658 44.5218 44.2795C44.6981 44.4891 44.9513 44.5939 45.281 44.5939C45.6299 44.5939 45.9711 44.4756 46.3046 44.2387L46.6325 44.9959C46.4752 45.1319 46.2721 45.2406 46.0228 45.3222C45.7774 45.4038 45.5225 45.4446 45.2579 45.4446Z" fill="black"/>
<path d="M50.594 41.2854H51.6291V45.3925H50.594V43.7321H48.9376V45.3925H47.9023V41.2854H48.9376V42.8816H50.594V41.2854Z" fill="black"/>
<path d="M20.4805 51.947V47.8398H21.5387V51.947H20.4805Z" fill="black"/>
<path d="M25.6205 47.8398H26.6098V51.947H25.8275L23.9756 49.5992V51.947H22.9922V47.8398H23.7629L25.6205 50.1876V47.8398Z" fill="black"/>
<path d="M29.5301 51.9993C29.2272 51.9993 28.9281 51.9585 28.633 51.8769C28.3377 51.7953 28.098 51.6866 27.9141 51.5506L28.2418 50.7934C28.4373 50.9177 28.6463 51.0127 28.8687 51.0787C29.091 51.1448 29.3155 51.1778 29.5417 51.1778C29.7716 51.1778 29.9461 51.1468 30.0649 51.0846C30.1876 51.0186 30.249 50.9273 30.249 50.8107C30.249 50.7059 30.1934 50.6205 30.0821 50.5545C29.9749 50.4883 29.7679 50.4224 29.4611 50.3564C29.0815 50.2748 28.7844 50.1776 28.5696 50.065C28.3549 49.9524 28.2035 49.8203 28.1152 49.6689C28.0309 49.5174 27.9888 49.331 27.9888 49.1097C27.9888 48.8572 28.0579 48.6319 28.1958 48.4339C28.3377 48.2319 28.5351 48.0746 28.7881 47.962C29.0451 47.8454 29.3384 47.7871 29.6681 47.7871C29.9594 47.7871 30.2414 47.8298 30.5136 47.9153C30.7897 47.9969 31.0043 48.1037 31.1577 48.2358L30.8356 48.9932C30.4676 48.7368 30.0804 48.6085 29.6739 48.6085C29.4783 48.6085 29.3211 48.6474 29.2022 48.7251C29.0834 48.7988 29.0239 48.898 29.0239 49.0223C29.0239 49.096 29.0451 49.1562 29.0873 49.2028C29.1294 49.2494 29.208 49.2961 29.3231 49.3427C29.4381 49.3855 29.6086 49.43 29.835 49.4766C30.203 49.5582 30.4924 49.6573 30.7034 49.7738C30.9141 49.8864 31.0638 50.0184 31.1519 50.17C31.2401 50.3215 31.2842 50.502 31.2842 50.7118C31.2842 51.1156 31.1309 51.4321 30.8241 51.6614C30.5173 51.8867 30.086 51.9993 29.5301 51.9993Z" fill="black"/>
<path d="M33.4323 51.947V48.7079H32.2188V47.8398H35.7156V48.7079H34.502V51.947H33.4323Z" fill="black"/>
<path d="M36.8672 51.947V47.8398H37.9256V51.947H36.8672Z" fill="black"/>
<path d="M40.2917 51.947V48.7079H39.0781V47.8398H42.575V48.7079H41.3614V51.947H40.2917Z" fill="black"/>
<path d="M45.5053 51.9995C44.9186 51.9995 44.4719 51.8481 44.1653 51.5452C43.8624 51.2421 43.7109 50.7995 43.7109 50.2167V47.8398H44.7461V50.2575C44.7461 50.5528 44.8114 50.78 44.9417 50.9392C45.072 51.0985 45.2599 51.1781 45.5053 51.1781C45.7506 51.1781 45.9385 51.0985 46.069 50.9392C46.1993 50.78 46.2645 50.5528 46.2645 50.2575V47.8398H47.3054V50.2167C47.3054 50.7956 47.1501 51.2382 46.8396 51.5452C46.5328 51.8481 46.0882 51.9995 45.5053 51.9995Z" fill="black"/>
<path d="M49.6511 51.947V48.7079H48.4375V47.8398H51.9342V48.7079H50.7208V51.947H49.6511Z" fill="black"/>
<path fill-rule="evenodd" clip-rule="evenodd" d="M28.0607 3.41016C27.8293 4.16644 27.7035 4.97343 27.7035 5.80809V5.8104C27.7035 10.0252 30.8927 13.4746 34.9308 13.7582C35.2791 15.1808 35.4655 16.6704 35.4655 18.2059C35.4655 28.2612 27.5283 36.4119 17.7338 36.4119C7.93936 36.4119 0 28.2612 0 18.2059C0 8.15071 7.93936 0 17.7338 0C21.5878 0 25.1521 1.26814 28.0607 3.41016ZM10.8501 18.2036C10.8501 22.1071 13.9315 25.2707 17.7338 25.2707C21.5361 25.2707 24.6176 22.1071 24.6176 18.2036C24.6176 14.3 21.5361 11.1366 17.7338 11.1366C13.9315 11.1366 10.8501 14.3 10.8501 18.2036ZM35.8249 11.8945C38.935 11.8945 41.4562 9.23185 41.4562 5.94727C41.4562 2.66268 38.935 0 35.8249 0C32.7148 0 30.1935 2.66268 30.1935 5.94727C30.1935 9.23185 32.7148 11.8945 35.8249 11.8945ZM47.8428 0.970983H42.2586C42.1761 0.970983 42.0964 0.976862 42.0162 0.982782L41.9538 0.98728C42.855 2.30969 43.3896 3.92777 43.3896 5.6809C43.3896 9.26165 41.1695 12.2953 38.1014 13.3383V31.5447C38.1014 33.9636 39.9635 35.9263 42.2586 35.9263H47.8428C50.1379 35.9263 52 33.9636 52 31.5447V5.35262C52 2.93365 50.1379 0.970983 47.8428 0.970983Z" fill="#B91317"/>
</g>
<defs>
<clipPath id="clip0_475_24991">
<rect width="52" height="52" fill="white"/>
</clipPath>
</defs>
</svg>
