<svg width="328" height="244" viewBox="0 0 328 244" fill="none" xmlns="http://www.w3.org/2000/svg">
<g clip-path="url(#clip0_741_18513)">
<rect width="328" height="244" rx="24" fill="#F5F5F5"/>
<g filter="url(#filter0_d_741_18513)">
<g clip-path="url(#clip1_741_18513)">
<rect x="107" y="11.5" width="114" height="221" rx="32" fill="black"/>
<rect width="106" height="217.937" transform="matrix(1 0 0 0.978148 111 15.4121)" fill="white"/>
<rect x="123" y="38.8877" width="48" height="7.83" rx="4.00246" fill="#EEEEEE"/>
<rect x="123" y="62.3682" width="37" height="46.95" rx="8" fill="#8C000E" fill-opacity="0.1"/>
<path d="M139 90.2447L146 85.843L139 81.4413V90.2447ZM141.5 95.6245C140.117 95.6245 138.817 95.3677 137.6 94.8542C136.383 94.3407 135.325 93.6437 134.425 92.7634C133.525 91.8831 132.812 90.8479 132.288 89.6578C131.763 88.4677 131.5 87.1961 131.5 85.843C131.5 84.4899 131.763 83.2183 132.288 82.0282C132.812 80.8381 133.525 79.8029 134.425 78.9226C135.325 78.0423 136.383 77.3453 137.6 76.8318C138.817 76.3183 140.117 76.0615 141.5 76.0615C142.883 76.0615 144.183 76.3183 145.4 76.8318C146.617 77.3453 147.675 78.0423 148.575 78.9226C149.475 79.8029 150.188 80.8381 150.712 82.0282C151.237 83.2183 151.5 84.4899 151.5 85.843C151.5 87.1961 151.237 88.4677 150.712 89.6578C150.188 90.8479 149.475 91.8831 148.575 92.7634C147.675 93.6437 146.617 94.3407 145.4 94.8542C144.183 95.3677 142.883 95.6245 141.5 95.6245Z" fill="#B91317"/>
<rect x="168" y="62.3682" width="37" height="46.95" rx="8" fill="#EEEEEE"/>
<rect x="123" y="124.97" width="82" height="7.82" rx="3.99735" fill="#EEEEEE"/>
<rect x="123" y="140.615" width="76.79" height="7.82" rx="3.99735" fill="#EEEEEE"/>
<rect x="123" y="156.26" width="86.39" height="7.82" rx="3.99735" fill="#EEEEEE"/>
<rect x="145" y="180.73" width="38" height="37.13" rx="19" stroke="#8C000E" stroke-opacity="0.3" stroke-width="2"/>
<path d="M159.09 202.719V201.682H160.68V196.879H161.3L159.45 197.975L158.95 197.055L161.05 195.823H161.96V201.682H163.45V202.719H159.09ZM164.8 202.719V201.789L167.08 199.412C167.287 199.197 167.452 198.998 167.575 198.816C167.698 198.633 167.79 198.457 167.85 198.288C167.91 198.118 167.94 197.949 167.94 197.779C167.94 197.453 167.835 197.205 167.625 197.036C167.415 196.866 167.11 196.781 166.71 196.781C166.397 196.781 166.092 196.838 165.795 196.952C165.498 197.067 165.213 197.244 164.94 197.486L164.51 196.546C164.79 196.299 165.14 196.1 165.56 195.95C165.98 195.8 166.417 195.725 166.87 195.725C167.377 195.725 167.803 195.8 168.15 195.95C168.497 196.1 168.76 196.318 168.94 196.605C169.12 196.892 169.21 197.241 169.21 197.652C169.21 197.86 169.185 198.064 169.135 198.263C169.085 198.462 169.008 198.659 168.905 198.855C168.802 199.051 168.672 199.251 168.515 199.456C168.358 199.662 168.17 199.875 167.95 200.097L166.07 202.014V201.682H169.48V202.719H164.8Z" fill="#B91317"/>
<rect width="106" height="16.0098" transform="matrix(1 0 0 0.978148 111 15.4121)" fill="black"/>
<rect x="140" y="19.332" width="48" height="7.82" rx="3.99735" fill="#111827"/>
</g>
<rect x="109" y="13.5" width="110" height="217" rx="30" stroke="#1F2937" stroke-width="4"/>
</g>
<rect x="10.6211" y="86.4707" width="107.045" height="25" rx="6" transform="rotate(5.99997 10.6211 86.4707)" fill="#4CAF50"/>
<g filter="url(#filter1_dd_741_18513)">
<rect x="10.6211" y="86.4707" width="107.05" height="25.5" rx="6" transform="rotate(5.99997 10.6211 86.4707)" fill="white" fill-opacity="0.01" shape-rendering="crispEdges"/>
</g>
<path d="M24.4056 104.125C24.0022 104.083 23.616 104.008 23.2468 103.9C22.8777 103.792 22.5403 103.658 22.2346 103.496C21.929 103.335 21.6639 103.154 21.4394 102.953L22.0707 101.677C22.288 101.858 22.5266 102.02 22.7864 102.165C23.0461 102.309 23.3252 102.428 23.6236 102.522C23.9221 102.616 24.2322 102.68 24.5539 102.714C25.0821 102.77 25.4689 102.728 25.7143 102.59C25.9596 102.451 26.0954 102.257 26.1216 102.008C26.1363 101.868 26.1146 101.744 26.0564 101.636C25.9982 101.527 25.8933 101.427 25.7417 101.336C25.5901 101.244 25.3846 101.159 25.1253 101.079L23.9152 100.687C23.2333 100.466 22.7409 100.16 22.4379 99.7698C22.1349 99.3796 22.0135 98.8978 22.0737 98.3243C22.1258 97.8293 22.3033 97.4124 22.6062 97.0737C22.9091 96.735 23.3064 96.489 23.7982 96.3358C24.2899 96.1827 24.8449 96.1386 25.463 96.2035C25.8154 96.2406 26.1525 96.3104 26.4745 96.4132C26.7965 96.5159 27.0896 96.6471 27.354 96.8067C27.6183 96.9662 27.842 97.1469 28.0249 97.3486L27.4012 98.5527C27.133 98.2895 26.8224 98.0783 26.4693 97.9191C26.1162 97.7599 25.7254 97.6578 25.2969 97.6127C24.9934 97.5808 24.7297 97.5935 24.5058 97.6509C24.2818 97.7082 24.1059 97.8029 23.978 97.935C23.85 98.0671 23.7759 98.2305 23.7554 98.425C23.7333 98.635 23.7915 98.8138 23.9298 98.9615C24.0682 99.1092 24.3242 99.2423 24.6978 99.3608L25.9004 99.752C26.5995 99.9803 27.1069 100.283 27.4226 100.659C27.7384 101.036 27.8672 101.501 27.8089 102.055C27.7587 102.533 27.5854 102.939 27.2891 103.275C26.9927 103.61 26.5982 103.853 26.1054 104.002C25.6127 104.151 25.0461 104.192 24.4056 104.125ZM28.5562 104.444L29.1203 99.0772L30.7325 99.2467L30.6267 100.254L30.5063 100.241C30.6278 100.019 30.7812 99.8336 30.9665 99.6842C31.1518 99.5348 31.3654 99.4266 31.6072 99.3597C31.8491 99.2927 32.1099 99.2739 32.3898 99.3033C32.8018 99.3466 33.1366 99.4816 33.3941 99.7082C33.6517 99.9348 33.8183 100.258 33.8941 100.677L33.7409 100.661C33.9374 100.305 34.2141 100.037 34.5709 99.8578C34.9278 99.6785 35.3193 99.6112 35.7455 99.656C36.1585 99.6994 36.4906 99.8172 36.7419 100.009C36.9931 100.201 37.1674 100.471 37.2648 100.819C37.3621 101.166 37.3839 101.596 37.3301 102.108L36.9914 105.33L35.3395 105.157L35.6725 101.989C35.7106 101.626 35.6811 101.357 35.5841 101.18C35.487 101.004 35.302 100.901 35.0291 100.873C34.8254 100.851 34.6428 100.882 34.4813 100.966C34.3198 101.049 34.1905 101.18 34.0933 101.36C33.9961 101.539 33.9334 101.764 33.9051 102.033L33.596 104.974L31.9441 104.8L32.2771 101.632C32.3152 101.27 32.2857 101 32.1886 100.823C32.0916 100.647 31.9091 100.545 31.6412 100.516C31.4325 100.495 31.2486 100.525 31.0896 100.609C30.9307 100.693 30.8026 100.824 30.7054 101.004C30.6083 101.183 30.5455 101.408 30.5172 101.677L30.2081 104.618L28.5562 104.444ZM40.0637 105.771C39.6635 105.729 39.316 105.616 39.0213 105.431C38.7266 105.247 38.5055 105.015 38.3581 104.735C38.2107 104.456 38.1544 104.151 38.1891 103.821C38.2305 103.428 38.3653 103.127 38.5935 102.92C38.8218 102.713 39.1698 102.583 39.6376 102.53C40.1054 102.477 40.7201 102.491 41.4817 102.571L42.0561 102.631L41.9665 103.484L41.3962 103.424C41.1174 103.394 40.8789 103.382 40.6806 103.386C40.4824 103.389 40.3191 103.41 40.191 103.449C40.0628 103.487 39.9667 103.545 39.9028 103.623C39.8389 103.7 39.8008 103.798 39.7884 103.916C39.7667 104.123 39.8208 104.299 39.9507 104.446C40.0807 104.592 40.278 104.679 40.5428 104.707C40.7537 104.729 40.9465 104.701 41.1209 104.621C41.2954 104.541 41.4406 104.421 41.5565 104.261C41.6724 104.1 41.7421 103.908 41.7656 103.685L41.8982 102.424C41.9315 102.107 41.8818 101.874 41.7491 101.724C41.6165 101.575 41.3731 101.481 41.019 101.444C40.7291 101.414 40.4176 101.426 40.0843 101.481C39.7511 101.535 39.4143 101.638 39.074 101.79L38.7445 100.642C38.9479 100.53 39.19 100.439 39.4708 100.368C39.7516 100.297 40.0458 100.249 40.3535 100.225C40.6611 100.201 40.9472 100.203 41.2116 100.231C41.7732 100.29 42.2269 100.421 42.5725 100.626C42.9182 100.83 43.1633 101.111 43.308 101.47C43.4526 101.828 43.497 102.273 43.4412 102.804L43.1081 105.973L41.5677 105.811L41.6811 104.732L41.7584 104.74C41.6886 104.979 41.5735 105.18 41.4133 105.344C41.2531 105.507 41.0587 105.626 40.8303 105.702C40.6018 105.778 40.3463 105.801 40.0637 105.771ZM44.3532 106.104L44.9173 100.738L46.5295 100.907L46.392 102.215L46.2826 102.204C46.4147 101.775 46.6416 101.458 46.9632 101.253C47.2848 101.047 47.6931 100.953 48.188 100.971L48.6658 100.984L48.6172 102.387L47.6864 102.381C47.2671 102.376 46.9457 102.466 46.7221 102.649C46.4985 102.832 46.3665 103.116 46.3262 103.5L46.0339 106.281L44.3532 106.104ZM51.801 107.005C51.036 106.924 50.487 106.68 50.154 106.272C49.821 105.864 49.6925 105.298 49.7687 104.574L49.9855 102.511L48.9674 102.404L49.0964 101.177L50.1145 101.284L50.2805 99.7037L51.9324 99.8773L51.7663 101.457L53.3443 101.623L53.2153 102.85L51.6374 102.684L51.4279 104.678C51.3954 104.987 51.4415 105.225 51.5661 105.392C51.6907 105.558 51.9084 105.658 52.2192 105.691C52.3144 105.701 52.4168 105.7 52.5264 105.688C52.6359 105.676 52.7553 105.661 52.8844 105.643L52.9934 106.869C52.8354 106.933 52.648 106.977 52.4312 107.001C52.2144 107.025 52.0043 107.026 51.801 107.005ZM59.5222 107.816C59.1188 107.774 58.7325 107.699 58.3634 107.591C57.9943 107.483 57.6569 107.349 57.3512 107.187C57.0455 107.026 56.7804 106.845 56.5559 106.644L57.1872 105.368C57.4046 105.549 57.6432 105.711 57.9029 105.856C58.1627 106 58.4418 106.119 58.7402 106.213C59.0386 106.307 59.3487 106.371 59.6705 106.405C60.1987 106.46 60.5855 106.419 60.8308 106.281C61.0762 106.142 61.212 105.948 61.2382 105.699C61.2529 105.559 61.2312 105.435 61.173 105.326C61.1148 105.218 61.0099 105.118 60.8583 105.027C60.7067 104.935 60.5012 104.849 60.2419 104.77L59.0318 104.378C58.3499 104.157 57.8575 103.851 57.5544 103.461C57.2514 103.07 57.13 102.589 57.1903 102.015C57.2424 101.52 57.4198 101.103 57.7227 100.765C58.0257 100.426 58.423 100.18 58.9147 100.027C59.4065 99.8735 59.9615 99.8294 60.5796 99.8944C60.932 99.9314 61.2691 100.001 61.5911 100.104C61.913 100.207 62.2062 100.338 62.4705 100.498C62.7349 100.657 62.9586 100.838 63.1415 101.039L62.5178 102.244C62.2496 101.98 61.939 101.769 61.5858 101.61C61.2327 101.451 60.842 101.349 60.4135 101.304C60.11 101.272 59.8463 101.284 59.6223 101.342C59.3984 101.399 59.2224 101.494 59.0945 101.626C58.9666 101.758 58.8924 101.921 58.872 102.116C58.8499 102.326 58.9081 102.505 59.0464 102.652C59.1848 102.8 59.4408 102.933 59.8144 103.052L61.017 103.443C61.7161 103.671 62.2235 103.974 62.5392 104.35C62.855 104.727 62.9837 105.192 62.9255 105.746C62.8753 106.224 62.702 106.63 62.4057 106.966C62.1093 107.301 61.7147 107.544 61.222 107.693C60.7293 107.842 60.1627 107.883 59.5222 107.816ZM66.2482 108.523C65.666 108.462 65.1706 108.294 64.7617 108.02C64.3529 107.746 64.0526 107.384 63.8608 106.935C63.669 106.486 63.6033 105.975 63.6636 105.402C63.7241 104.826 63.8943 104.343 64.1744 103.952C64.4544 103.562 64.8226 103.277 65.2789 103.099C65.7353 102.921 66.2545 102.863 66.8367 102.924C67.1863 102.961 67.5285 103.049 67.8634 103.189C68.1983 103.329 68.4664 103.505 68.6677 103.716L68.0849 104.807C67.9247 104.639 67.7338 104.502 67.5124 104.394C67.2909 104.287 67.0754 104.223 66.8657 104.201C66.435 104.155 66.0884 104.253 65.8256 104.493C65.5629 104.732 65.4058 105.097 65.3543 105.587C65.3036 106.07 65.3812 106.461 65.5872 106.762C65.7931 107.062 66.1114 107.235 66.542 107.28C66.7467 107.302 66.9697 107.283 67.2111 107.225C67.4525 107.166 67.6693 107.069 67.8614 106.933L68.2038 108.129C67.9638 108.287 67.664 108.4 67.3044 108.471C66.9449 108.542 66.5928 108.559 66.2482 108.523ZM68.8801 108.682L69.6907 100.97L71.3426 101.143L70.9902 104.496L70.8302 104.479C71.0358 104.133 71.3148 103.881 71.6673 103.724C72.0198 103.566 72.4067 103.509 72.8278 103.554C73.2581 103.599 73.6032 103.718 73.8631 103.911C74.123 104.104 74.3048 104.374 74.4083 104.723C74.5118 105.071 74.5366 105.501 74.4828 106.013L74.1441 109.235L72.4922 109.062L72.8233 105.912C72.8495 105.662 72.8407 105.457 72.7968 105.296C72.7529 105.135 72.6745 105.012 72.5616 104.927C72.4487 104.842 72.3 104.79 72.1154 104.77C71.8872 104.746 71.6819 104.775 71.4997 104.856C71.3174 104.938 71.1695 105.064 71.0559 105.236C70.9422 105.407 70.8727 105.615 70.8471 105.858L70.532 108.856L68.8801 108.682ZM78.1609 109.775C77.5304 109.709 76.9987 109.537 76.5657 109.261C76.1327 108.985 75.8151 108.624 75.613 108.179C75.4109 107.734 75.3399 107.226 75.3999 106.655C75.4581 106.1 75.6275 105.627 75.9081 105.234C76.1886 104.84 76.5495 104.547 76.9907 104.352C77.4319 104.158 77.9183 104.089 78.4498 104.144C78.9763 104.2 79.4176 104.359 79.7736 104.622C80.1296 104.886 80.3904 105.233 80.556 105.664C80.7216 106.095 80.7748 106.591 80.7159 107.152L80.6722 107.567L76.7246 107.152L76.8142 106.299L79.5696 106.589L79.3822 106.721C79.429 106.276 79.3677 105.928 79.1981 105.678C79.0286 105.428 78.7648 105.284 78.4066 105.246C78.1391 105.218 77.9033 105.256 77.6991 105.36C77.4949 105.464 77.3304 105.627 77.2054 105.849C77.0805 106.071 77.0006 106.348 76.9657 106.68L76.9569 106.764C76.9176 107.137 76.9417 107.449 77.0292 107.7C77.1167 107.95 77.2693 108.145 77.487 108.283C77.7047 108.421 77.9844 108.508 78.3262 108.544C78.6161 108.575 78.9158 108.562 79.2251 108.506C79.5345 108.449 79.8192 108.345 80.079 108.191L80.398 109.334C80.1098 109.511 79.7627 109.639 79.3566 109.718C78.9506 109.797 78.552 109.816 78.1609 109.775ZM83.4636 110.332C83.0014 110.284 82.6048 110.128 82.2737 109.864C81.9426 109.601 81.7002 109.248 81.5464 108.806C81.3927 108.363 81.346 107.855 81.4062 107.282C81.4673 106.701 81.6187 106.213 81.8604 105.819C82.1021 105.424 82.4117 105.132 82.7892 104.943C83.1667 104.754 83.5877 104.684 84.0521 104.733C84.4765 104.778 84.8409 104.92 85.1455 105.159C85.45 105.399 85.6422 105.689 85.7219 106.031L85.5982 106.018L85.9492 102.678L87.6011 102.852L86.7905 110.565L85.1782 110.395L85.2895 109.336L85.388 109.347C85.2459 109.69 84.9982 109.951 84.6447 110.131C84.2912 110.311 83.8975 110.378 83.4636 110.332ZM84.0928 109.15C84.4464 109.187 84.7464 109.089 84.9929 108.854C85.2394 108.619 85.3905 108.237 85.4463 107.706C85.5026 107.171 85.4343 106.765 85.2414 106.49C85.0486 106.214 84.7754 106.057 84.4218 106.02C84.0682 105.983 83.7684 106.079 83.5224 106.309C83.2765 106.539 83.1253 106.921 83.0691 107.457C83.0133 107.987 83.0816 108.393 83.2739 108.673C83.4662 108.954 83.7392 109.113 84.0928 109.15ZM90.0303 111.023C89.5762 110.975 89.2099 110.852 88.9312 110.653C88.6525 110.454 88.4586 110.179 88.3494 109.828C88.2403 109.476 88.2122 109.048 88.2652 108.544L88.6031 105.329L90.255 105.503L89.9134 108.753C89.8911 108.965 89.9014 109.145 89.9442 109.293C89.987 109.442 90.0664 109.558 90.1826 109.641C90.2988 109.724 90.4507 109.775 90.6383 109.795C90.85 109.817 91.0408 109.787 91.211 109.704C91.3811 109.622 91.5218 109.494 91.633 109.321C91.7442 109.149 91.8126 108.941 91.8382 108.697L92.153 105.702L93.8049 105.876L93.2408 111.242L91.6286 111.073L91.739 110.022L91.9025 110.039C91.7053 110.398 91.4468 110.663 91.1272 110.833C90.8075 111.003 90.4418 111.066 90.0303 111.023ZM96.5041 111.703C95.8125 111.63 95.3263 111.397 95.0456 111.002C94.7649 110.607 94.6621 110.052 94.7372 109.338L95.3335 103.665L96.9854 103.838L96.3956 109.45C96.376 109.636 96.3874 109.798 96.4298 109.937C96.4722 110.075 96.5473 110.183 96.6552 110.261C96.7631 110.339 96.9025 110.387 97.0734 110.405C97.1514 110.414 97.2297 110.418 97.3084 110.419C97.3871 110.42 97.4628 110.414 97.5355 110.402L97.3823 111.682C97.2381 111.703 97.0943 111.716 96.951 111.721C96.8076 111.725 96.6586 111.719 96.5041 111.703ZM100.883 112.163C100.252 112.097 99.7205 111.926 99.2875 111.649C98.8545 111.373 98.537 111.012 98.3349 110.567C98.1327 110.122 98.0617 109.614 98.1217 109.043C98.18 108.489 98.3494 108.015 98.6299 107.622C98.9104 107.229 99.2713 106.935 99.7125 106.74C100.154 106.546 100.64 106.477 101.172 106.533C101.698 106.588 102.139 106.747 102.495 107.01C102.851 107.274 103.112 107.621 103.278 108.052C103.443 108.483 103.497 108.979 103.438 109.54L103.394 109.955L99.4464 109.54L99.536 108.688L102.291 108.977L102.104 109.109C102.151 108.664 102.09 108.316 101.92 108.066C101.75 107.816 101.487 107.672 101.128 107.634C100.861 107.606 100.625 107.644 100.421 107.748C100.217 107.852 100.052 108.015 99.9273 108.237C99.8023 108.459 99.7224 108.736 99.6875 109.068L99.6787 109.152C99.6395 109.526 99.6636 109.838 99.751 110.088C99.8385 110.338 99.9911 110.533 100.209 110.671C100.427 110.809 100.706 110.896 101.048 110.932C101.338 110.963 101.638 110.95 101.947 110.894C102.256 110.838 102.541 110.733 102.801 110.58L103.12 111.722C102.832 111.899 102.485 112.027 102.078 112.106C101.672 112.185 101.274 112.204 100.883 112.163Z" fill="white"/>
<rect x="201.422" y="185.516" width="111" height="25" rx="6" transform="rotate(-3 201.422 185.516)" fill="#B91317"/>
<g filter="url(#filter2_dd_741_18513)">
<rect x="201.422" y="185.516" width="110.98" height="25.5" rx="6" transform="rotate(-3 201.422 185.516)" fill="white" fill-opacity="0.01" shape-rendering="crispEdges"/>
</g>
<path d="M215.089 200.821L214.683 193.077L216.199 192.997L219.163 197.854L218.877 197.869L221.307 192.73L222.79 192.652L223.195 200.396L221.625 200.479L221.356 195.349L221.543 195.339L219.574 199.396L218.586 199.448L216.181 195.609L216.39 195.598L216.659 200.739L215.089 200.821ZM227.339 200.3C226.753 200.331 226.238 200.244 225.794 200.04C225.35 199.828 224.996 199.516 224.732 199.104C224.475 198.692 224.332 198.196 224.301 197.618C224.271 197.039 224.362 196.535 224.574 196.105C224.794 195.668 225.114 195.324 225.534 195.075C225.954 194.818 226.456 194.674 227.042 194.643C227.628 194.612 228.143 194.703 228.588 194.914C229.032 195.119 229.382 195.427 229.638 195.84C229.902 196.245 230.049 196.736 230.079 197.315C230.11 197.893 230.015 198.401 229.796 198.839C229.584 199.276 229.268 199.623 228.848 199.88C228.428 200.129 227.925 200.27 227.339 200.3ZM227.272 199.026C227.638 199.007 227.924 198.863 228.131 198.595C228.337 198.32 228.426 197.923 228.399 197.403C228.371 196.876 228.241 196.493 228.008 196.256C227.775 196.011 227.475 195.898 227.109 195.917C226.743 195.936 226.457 196.08 226.25 196.348C226.044 196.608 225.954 197.002 225.982 197.529C226.009 198.049 226.14 198.435 226.373 198.688C226.606 198.932 226.906 199.045 227.272 199.026ZM234.683 199.915C234.244 199.938 233.85 199.852 233.502 199.658C233.162 199.463 232.919 199.185 232.776 198.826L232.853 198.822L232.908 199.887L231.305 199.971L230.899 192.227L232.58 192.139L232.753 195.445L232.654 195.45C232.761 195.114 232.971 194.839 233.283 194.624C233.594 194.402 233.966 194.28 234.398 194.257C234.874 194.233 235.297 194.328 235.669 194.543C236.04 194.759 236.335 195.07 236.555 195.477C236.774 195.884 236.899 196.377 236.93 196.956C236.96 197.527 236.887 198.034 236.712 198.476C236.536 198.911 236.272 199.256 235.918 199.509C235.571 199.755 235.159 199.89 234.683 199.915ZM234.112 198.679C234.478 198.659 234.764 198.512 234.97 198.237C235.176 197.962 235.265 197.564 235.238 197.044C235.21 196.517 235.08 196.131 234.847 195.886C234.614 195.641 234.314 195.529 233.948 195.548C233.582 195.567 233.295 195.711 233.089 195.978C232.883 196.246 232.794 196.644 232.821 197.171C232.848 197.691 232.979 198.077 233.212 198.329C233.446 198.581 233.746 198.698 234.112 198.679ZM237.745 193.168L237.662 191.597L239.486 191.501L239.568 193.072L237.745 193.168ZM238.16 199.612L237.876 194.196L239.556 194.108L239.84 199.524L238.16 199.612ZM243.223 199.468C242.527 199.504 242.009 199.352 241.668 199.01C241.326 198.66 241.137 198.134 241.1 197.431L240.8 191.708L242.481 191.62L242.777 197.266C242.786 197.449 242.82 197.605 242.879 197.734C242.944 197.863 243.033 197.958 243.147 198.018C243.26 198.078 243.401 198.104 243.569 198.095C243.657 198.09 243.741 198.082 243.821 198.071C243.901 198.052 243.981 198.029 244.06 198.003L244.139 199.288C243.987 199.34 243.839 199.38 243.693 199.41C243.548 199.44 243.391 199.459 243.223 199.468ZM247.748 199.231C247.096 199.265 246.53 199.181 246.049 198.978C245.568 198.768 245.192 198.458 244.921 198.046C244.657 197.634 244.51 197.139 244.48 196.56C244.451 196.011 244.542 195.518 244.755 195.081C244.974 194.643 245.286 194.293 245.691 194.029C246.103 193.765 246.587 193.619 247.144 193.59C247.671 193.562 248.135 193.651 248.535 193.858C248.935 194.065 249.252 194.371 249.486 194.778C249.727 195.176 249.863 195.661 249.893 196.232L249.915 196.661L245.873 196.873L245.827 195.994L248.639 195.846L248.482 196.009C248.458 195.555 248.342 195.219 248.132 195.003C247.922 194.786 247.631 194.688 247.257 194.707C246.994 194.721 246.766 194.795 246.575 194.93C246.391 195.057 246.25 195.241 246.152 195.481C246.062 195.713 246.025 195.994 246.042 196.324L246.048 196.434C246.068 196.807 246.142 197.112 246.272 197.347C246.402 197.575 246.587 197.742 246.827 197.847C247.075 197.944 247.378 197.983 247.737 197.964C248.022 197.95 248.313 197.894 248.609 197.798C248.905 197.694 249.169 197.548 249.401 197.36L249.899 198.457C249.639 198.676 249.314 198.855 248.925 198.993C248.536 199.131 248.143 199.21 247.748 199.231ZM254.351 198.763L253.945 191.019L255.669 190.929L255.999 197.223L259.58 197.035L259.656 198.485L254.351 198.763ZM263.41 198.41C262.758 198.444 262.192 198.36 261.711 198.157C261.23 197.948 260.854 197.637 260.583 197.225C260.319 196.813 260.172 196.318 260.142 195.739C260.113 195.19 260.205 194.697 260.417 194.26C260.636 193.822 260.948 193.472 261.353 193.208C261.765 192.944 262.249 192.798 262.806 192.769C263.333 192.741 263.797 192.831 264.197 193.037C264.597 193.244 264.914 193.55 265.148 193.957C265.389 194.355 265.525 194.84 265.555 195.411L265.577 195.84L261.535 196.052L261.489 195.173L264.301 195.026L264.144 195.188C264.121 194.734 264.004 194.399 263.794 194.182C263.585 193.965 263.293 193.867 262.92 193.886C262.656 193.9 262.428 193.974 262.237 194.109C262.053 194.236 261.912 194.42 261.815 194.66C261.724 194.893 261.687 195.174 261.704 195.503L261.71 195.613C261.73 195.986 261.805 196.291 261.934 196.526C262.064 196.755 262.249 196.921 262.489 197.026C262.737 197.123 263.04 197.162 263.399 197.144C263.684 197.129 263.975 197.073 264.271 196.977C264.567 196.873 264.831 196.727 265.063 196.539L265.561 197.636C265.301 197.855 264.976 198.034 264.587 198.172C264.198 198.31 263.805 198.389 263.41 198.41ZM268.611 198.137C268.208 198.158 267.842 198.1 267.511 197.964C267.188 197.826 266.932 197.63 266.743 197.376C266.553 197.122 266.449 196.826 266.432 196.489C266.411 196.094 266.501 195.773 266.701 195.528C266.901 195.282 267.229 195.096 267.685 194.969C268.148 194.842 268.764 194.759 269.533 194.718L270.149 194.686L270.194 195.554L269.601 195.585C269.323 195.6 269.082 195.627 268.878 195.667C268.682 195.699 268.519 195.744 268.39 195.803C268.268 195.86 268.18 195.935 268.126 196.026C268.072 196.109 268.047 196.21 268.054 196.327C268.065 196.539 268.147 196.708 268.3 196.832C268.453 196.949 268.665 197 268.936 196.986C269.149 196.975 269.336 196.913 269.499 196.802C269.67 196.69 269.802 196.547 269.895 196.374C269.989 196.192 270.03 195.988 270.018 195.761L269.953 194.52C269.936 194.198 269.843 193.975 269.675 193.852C269.507 193.728 269.24 193.676 268.874 193.695C268.581 193.711 268.272 193.771 267.947 193.876C267.63 193.981 267.307 194.134 266.98 194.334L266.482 193.237C266.68 193.094 266.916 192.968 267.189 192.858C267.462 192.741 267.747 192.649 268.045 192.582C268.349 192.508 268.64 192.463 268.919 192.448C269.483 192.419 269.952 192.479 270.327 192.628C270.709 192.777 271.005 193.018 271.213 193.352C271.421 193.679 271.539 194.114 271.568 194.656L271.735 197.852L270.198 197.933L270.141 196.845L270.195 196.843C270.15 197.087 270.054 197.305 269.91 197.496C269.773 197.68 269.594 197.829 269.372 197.943C269.158 198.057 268.904 198.122 268.611 198.137ZM273.067 197.783L272.783 192.367L274.387 192.283L274.456 193.612L274.368 193.617C274.441 193.18 274.617 192.833 274.898 192.576C275.185 192.311 275.573 192.151 276.062 192.096L276.587 192.024L276.773 193.469L275.8 193.608C275.384 193.666 275.08 193.807 274.886 194.03C274.692 194.253 274.605 194.555 274.625 194.936L274.769 197.693L273.067 197.783ZM277.744 197.537L277.46 192.122L279.075 192.037L279.128 193.059L279.041 193.063C279.197 192.688 279.435 192.393 279.754 192.178C280.081 191.963 280.456 191.844 280.881 191.821C281.32 191.798 281.687 191.864 281.982 192.017C282.276 192.171 282.502 192.416 282.659 192.753C282.823 193.082 282.919 193.51 282.947 194.037L283.116 197.256L281.424 197.345L281.259 194.192C281.246 193.943 281.206 193.743 281.139 193.592C281.072 193.442 280.975 193.333 280.847 193.266C280.718 193.192 280.558 193.16 280.368 193.17C280.134 193.182 279.931 193.244 279.761 193.356C279.59 193.468 279.462 193.618 279.377 193.806C279.291 193.994 279.255 194.209 279.267 194.45L279.425 197.449L277.744 197.537ZM284.034 190.742L283.951 189.171L285.775 189.076L285.857 190.646L284.034 190.742ZM284.449 197.186L284.165 191.77L285.845 191.682L286.129 197.098L284.449 197.186ZM287.495 197.026L287.211 191.611L288.826 191.526L288.88 192.548L288.792 192.552C288.948 192.177 289.186 191.882 289.505 191.667C289.832 191.451 290.208 191.333 290.632 191.31C291.072 191.287 291.439 191.353 291.733 191.506C292.028 191.66 292.253 191.905 292.411 192.242C292.575 192.571 292.671 192.999 292.698 193.526L292.867 196.745L291.175 196.834L291.01 193.681C290.997 193.432 290.957 193.232 290.89 193.081C290.824 192.931 290.726 192.822 290.598 192.755C290.469 192.681 290.31 192.649 290.119 192.659C289.885 192.671 289.683 192.733 289.512 192.845C289.342 192.957 289.214 193.107 289.128 193.295C289.043 193.483 289.006 193.698 289.019 193.939L289.176 196.938L287.495 197.026ZM296.88 198.638C296.382 198.665 295.903 198.635 295.444 198.548C294.991 198.462 294.594 198.314 294.253 198.104L294.631 196.906C294.835 197.02 295.053 197.111 295.284 197.18C295.523 197.256 295.761 197.309 295.997 197.341C296.241 197.372 296.469 197.382 296.682 197.371C297.172 197.345 297.533 197.216 297.763 196.984C298.001 196.759 298.108 196.426 298.085 195.987L298.043 195.185L298.109 195.181C298.002 195.525 297.786 195.811 297.46 196.042C297.134 196.264 296.762 196.387 296.345 196.408C295.854 196.434 295.42 196.347 295.042 196.146C294.672 195.938 294.373 195.638 294.147 195.246C293.928 194.846 293.804 194.379 293.776 193.844C293.748 193.302 293.822 192.825 293.998 192.412C294.182 191.998 294.448 191.672 294.795 191.434C295.15 191.187 295.572 191.051 296.063 191.026C296.495 191.003 296.881 191.089 297.222 191.284C297.562 191.472 297.8 191.732 297.935 192.062L297.88 192.065L297.827 191.055L299.441 190.97L299.691 195.726C299.722 196.327 299.635 196.838 299.43 197.26C299.224 197.682 298.907 198.007 298.478 198.235C298.05 198.471 297.517 198.605 296.88 198.638ZM296.762 195.12C297.143 195.1 297.437 194.96 297.643 194.699C297.857 194.431 297.952 194.073 297.928 193.627C297.905 193.18 297.773 192.838 297.533 192.601C297.3 192.356 296.993 192.244 296.612 192.264C296.239 192.283 295.945 192.427 295.732 192.695C295.525 192.956 295.433 193.31 295.457 193.756C295.48 194.203 295.609 194.549 295.842 194.794C296.082 195.031 296.388 195.139 296.762 195.12Z" fill="white"/>
</g>
<defs>
<filter id="filter0_d_741_18513" x="69" y="-1.5" width="190" height="297" filterUnits="userSpaceOnUse" color-interpolation-filters="sRGB">
<feFlood flood-opacity="0" result="BackgroundImageFix"/>
<feColorMatrix in="SourceAlpha" type="matrix" values="0 0 0 0 0 0 0 0 0 0 0 0 0 0 0 0 0 0 127 0" result="hardAlpha"/>
<feMorphology radius="12" operator="erode" in="SourceAlpha" result="effect1_dropShadow_741_18513"/>
<feOffset dy="25"/>
<feGaussianBlur stdDeviation="25"/>
<feComposite in2="hardAlpha" operator="out"/>
<feColorMatrix type="matrix" values="0 0 0 0 0 0 0 0 0 0 0 0 0 0 0 0 0 0 0.25 0"/>
<feBlend mode="normal" in2="BackgroundImageFix" result="effect1_dropShadow_741_18513"/>
<feBlend mode="normal" in="SourceGraphic" in2="effect1_dropShadow_741_18513" result="shape"/>
</filter>
<filter id="filter1_dd_741_18513" x="3.54956" y="86.0645" width="117.941" height="45.3623" filterUnits="userSpaceOnUse" color-interpolation-filters="sRGB">
<feFlood flood-opacity="0" result="BackgroundImageFix"/>
<feColorMatrix in="SourceAlpha" type="matrix" values="0 0 0 0 0 0 0 0 0 0 0 0 0 0 0 0 0 0 127 0" result="hardAlpha"/>
<feMorphology radius="2" operator="erode" in="SourceAlpha" result="effect1_dropShadow_741_18513"/>
<feOffset dy="2"/>
<feGaussianBlur stdDeviation="2"/>
<feComposite in2="hardAlpha" operator="out"/>
<feColorMatrix type="matrix" values="0 0 0 0 0 0 0 0 0 0 0 0 0 0 0 0 0 0 0.1 0"/>
<feBlend mode="normal" in2="BackgroundImageFix" result="effect1_dropShadow_741_18513"/>
<feColorMatrix in="SourceAlpha" type="matrix" values="0 0 0 0 0 0 0 0 0 0 0 0 0 0 0 0 0 0 127 0" result="hardAlpha"/>
<feMorphology radius="1" operator="erode" in="SourceAlpha" result="effect2_dropShadow_741_18513"/>
<feOffset dy="4"/>
<feGaussianBlur stdDeviation="3"/>
<feComposite in2="hardAlpha" operator="out"/>
<feColorMatrix type="matrix" values="0 0 0 0 0 0 0 0 0 0 0 0 0 0 0 0 0 0 0.1 0"/>
<feBlend mode="normal" in2="effect1_dropShadow_741_18513" result="effect2_dropShadow_741_18513"/>
<feBlend mode="normal" in="SourceGraphic" in2="effect2_dropShadow_741_18513" result="shape"/>
</filter>
<filter id="filter2_dd_741_18513" x="196.728" y="179.013" width="121.551" height="40.6621" filterUnits="userSpaceOnUse" color-interpolation-filters="sRGB">
<feFlood flood-opacity="0" result="BackgroundImageFix"/>
<feColorMatrix in="SourceAlpha" type="matrix" values="0 0 0 0 0 0 0 0 0 0 0 0 0 0 0 0 0 0 127 0" result="hardAlpha"/>
<feMorphology radius="2" operator="erode" in="SourceAlpha" result="effect1_dropShadow_741_18513"/>
<feOffset dy="2"/>
<feGaussianBlur stdDeviation="2"/>
<feComposite in2="hardAlpha" operator="out"/>
<feColorMatrix type="matrix" values="0 0 0 0 0 0 0 0 0 0 0 0 0 0 0 0 0 0 0.1 0"/>
<feBlend mode="normal" in2="BackgroundImageFix" result="effect1_dropShadow_741_18513"/>
<feColorMatrix in="SourceAlpha" type="matrix" values="0 0 0 0 0 0 0 0 0 0 0 0 0 0 0 0 0 0 127 0" result="hardAlpha"/>
<feMorphology radius="1" operator="erode" in="SourceAlpha" result="effect2_dropShadow_741_18513"/>
<feOffset dy="4"/>
<feGaussianBlur stdDeviation="3"/>
<feComposite in2="hardAlpha" operator="out"/>
<feColorMatrix type="matrix" values="0 0 0 0 0 0 0 0 0 0 0 0 0 0 0 0 0 0 0.1 0"/>
<feBlend mode="normal" in2="effect1_dropShadow_741_18513" result="effect2_dropShadow_741_18513"/>
<feBlend mode="normal" in="SourceGraphic" in2="effect2_dropShadow_741_18513" result="shape"/>
</filter>
<clipPath id="clip0_741_18513">
<rect width="328" height="244" rx="24" fill="white"/>
</clipPath>
<clipPath id="clip1_741_18513">
<rect x="107" y="11.5" width="114" height="221" rx="32" fill="white"/>
</clipPath>
</defs>
</svg>
