<svg width="64" height="64" viewBox="0.460938 0.460938 44.8253 45.2808" preserveAspectRatio="none" fill="none" xmlns="http://www.w3.org/2000/svg">
  <path d="M38.8438 39.3057L45.2798 45.7417V21.0703L38.8438 39.3057Z" fill="#79C6C0"/>
  <path d="M45.2766 21.0674V12.8691L21.9844 22.3699L38.8406 39.3027L45.2766 21.0674Z" fill="#4FB5AE"/>
  <path d="M0.460938 24.1348V31.1071L8.3527 27.8891L0.460938 24.1348Z" fill="#A7D5C2"/>
  <path d="M0.617188 0.841797L21.9939 22.3718L45.2861 12.871V0.841797H0.617188Z" fill="#66C1BF"/>
  <path d="M8.35938 27.8877L21.9976 22.3711L38.8538 39.3039L37.8577 42.1388L8.35938 27.8877Z" fill="#6ABAB2"/>
  <path d="M45.2836 45.7387L38.8476 39.3027L37.8516 42.1376L45.2836 45.7387Z" fill="#8AC6C6"/>
  <path d="M0.460938 31.1067L8.3527 27.8887L45.2831 45.7409H0.614176L0.460938 31.1067Z" fill="#98D1CB"/>
  <path d="M37.8542 42.1387L36.3984 45.7398H45.2862L37.8542 42.1387Z" fill="#A4D8DE"/>
  <path d="M21.9909 22.3718L0.614176 0.841797H0.460938V24.134L8.3527 27.8883L21.9909 22.3718Z" fill="#79C6C0"/>
</svg>
