<svg width="64" height="64" viewBox="0.0703125 0.367188 45.1286 45.0534" preserveAspectRatio="none" fill="none" xmlns="http://www.w3.org/2000/svg">
  <path d="M6.58293 6.80319L0.0703125 0.367188V25.1151L6.58293 6.80319Z" fill="#56A7D6"/>
  <path d="M0.0703125 25.1147V33.3895L23.5157 23.8888L6.50631 6.80273L0.0703125 25.1147Z" fill="#008AC7"/>
  <path d="M45.1949 22.1271V15.0781L37.2266 18.2961L45.1949 22.1271Z" fill="#008EC8"/>
  <path d="M37.2321 18.2965L23.5172 23.8897L6.50781 6.80366L7.58048 3.96875L37.2321 18.2965Z" fill="#009AD2"/>
  <path d="M0.0703125 0.367188L6.50631 6.80319L7.57898 3.96828L0.0703125 0.367188Z" fill="#008EC8"/>
  <path d="M45.1989 15.0014L37.2306 18.2961L0.0703125 0.367188H45.1989V15.0014Z" fill="#56A7D6"/>
  <path d="M7.57898 3.96828L9.03474 0.367188H0.0703125L7.57898 3.96828Z" fill="#449CD0"/>
  <path d="M36.541 36.9925L23.5158 23.8906L0.453408 33.2382L0.0703125 33.3914V45.4206H45.0457L36.541 36.9925Z" fill="#007AB5"/>
  <path d="M37.2304 18.2969L23.5156 23.8901L36.5409 36.9919L45.0456 45.42H45.1988V37.8347V22.1278L37.2304 18.2969Z" fill="#3EA3D5"/>
</svg>