<svg width="64" height="64" viewBox="0.578125 0.578125 42.5466 42.5471" preserveAspectRatio="none" fill="none" xmlns="http://www.w3.org/2000/svg">
  <path d="M22.2852 31.0723L6.45864 37.2432L0.578125 43.1237H34.264L22.2852 31.0723Z" fill="#F9B240"/>
  <path d="M22.2875 31.0747L17.4234 26.2832L6.46094 37.2456L22.2875 31.0747Z" fill="#F7A831"/>
  <path d="M22.2812 31.0738L34.2601 43.1252H42.8993V23.0879L22.2812 31.0738Z" fill="#F7A71F"/>
  <path d="M0.578125 39.4947V43.1247L6.45864 37.2441L0.578125 39.4947Z" fill="#F5A121"/>
  <path d="M6.45864 37.2429L17.4211 26.2805L0.578125 9.4375V39.4935L6.45864 37.2429Z" fill="#F3920A"/>
  <path d="M42.9102 0.798828H27.1562L38.0461 5.66296L42.9102 0.798828Z" fill="#F7A831"/>
  <path d="M38.04 5.66406L17.4219 26.2822L22.286 31.0737L42.9041 23.0878V7.84203L38.04 5.66406Z" fill="#F9B231"/>
  <path d="M0.578125 0.798828V9.4381L17.4211 26.2811L38.0392 5.66296L27.1493 0.798828H0.578125Z" fill="#F59D21"/>
  <path d="M42.9032 7.84093V0.798828L38.0391 5.66296L42.9032 7.84093Z" fill="#FAC074"/>
</svg>
