<svg width="76" height="49" viewBox="0 0 76 49" fill="none" xmlns="http://www.w3.org/2000/svg">
<g clip-path="url(#clip0_741_18372)">
<path d="M15.9026 25.2554L15.3125 24.665V26.9405L15.9026 25.2554Z" fill="#56A7D6"/>
<path d="M15.3125 26.941V27.6924L17.4583 26.8229L15.9026 25.2559L15.3125 26.941Z" fill="#008AC7"/>
<path d="M19.4532 26.6508V26.0068L18.7129 26.3074L19.4532 26.6508Z" fill="#008EC8"/>
<path d="M18.7133 26.3075L17.458 26.8227L15.9023 25.2557L15.9989 24.998L18.7133 26.3075Z" fill="#009AD2"/>
<path d="M15.3125 24.665L15.9026 25.2554L15.9992 24.9978L15.3125 24.665Z" fill="#008EC8"/>
<path d="M19.4539 26.0067L18.7136 26.3073L15.3125 24.665H19.4539V26.0067Z" fill="#56A7D6"/>
<path d="M15.9992 24.9978L16.1279 24.665H15.3125L15.9992 24.9978Z" fill="#449CD0"/>
<path d="M18.6599 28.0254L17.4583 26.8232L15.3447 27.6819L15.3125 27.6927V28.7982H19.4324L18.6599 28.0254Z" fill="#007AB5"/>
<path d="M18.6602 28.0254L19.4326 28.7982H19.4541V28.1005L18.6602 28.0254Z" fill="#3EA3D5"/>
<path d="M19.4546 28.1001V26.6511L18.7143 26.3076L17.459 26.8228L18.6606 28.025L19.4546 28.1001Z" fill="#3EA3D5"/>
<path d="M38.8203 28.2076L39.4104 28.798V26.5225L38.8203 28.2076Z" fill="#78C6BF"/>
<path d="M39.4095 26.5228V25.7715L37.2637 26.6409L38.8194 28.208L39.4095 26.5228Z" fill="#4DB5AE"/>
<path d="M35.2793 26.8018V27.4565L36.0089 27.156L35.2793 26.8018Z" fill="#A6D5C2"/>
<path d="M35.2891 24.665L37.2632 26.64L39.409 25.7706V24.665H35.2891Z" fill="#65C1BE"/>
<path d="M36.0078 27.1558L37.2631 26.6406L38.8188 28.2077L38.7222 28.4653L36.0078 27.1558Z" fill="#69BAB2"/>
<path d="M39.4093 28.7974L38.8192 28.207L38.7227 28.4646L39.4093 28.7974Z" fill="#89C6C6"/>
<path d="M35.2793 27.4558L36.0089 27.1553L39.4099 28.7975H35.29L35.2793 27.4558Z" fill="#97D1CA"/>
<path d="M38.7225 28.4648L38.5938 28.7976H39.4091L38.7225 28.4648Z" fill="#A4D7DE"/>
<path d="M37.2641 26.64L35.29 24.665H35.2793V26.801L36.0089 27.1552L37.2641 26.64Z" fill="#78C6BF"/>
<path d="M56.2962 27.6279L54.7512 28.229L54.1719 28.7979H57.4657L56.2962 27.6279Z" fill="#F9B240"/>
<path d="M56.2969 27.6275L55.8248 27.1553L54.752 28.2286L56.2969 27.6275Z" fill="#F7A831"/>
<path d="M56.2969 27.6283L57.4663 28.7982H58.3139V26.834L56.2969 27.6283Z" fill="#F7A71F"/>
<path d="M54.1719 28.4432V28.7974L54.7512 28.2285L54.1719 28.4432Z" fill="#F5A222"/>
<path d="M54.7512 28.2292L55.8241 27.1559L54.1719 25.5029V28.4439L54.7512 28.2292Z" fill="#F3920A"/>
<path d="M58.3145 24.6543H56.7695L57.8424 25.1373L58.3145 24.6543Z" fill="#F7A831"/>
<path d="M57.8413 25.1377L55.8242 27.1556L56.2963 27.6279L58.3133 26.8336V25.3524L57.8413 25.1377Z" fill="#F9B231"/>
<path d="M54.1719 24.6543V25.5022L55.8241 27.1552L57.8412 25.1373L56.7683 24.6543H54.1719Z" fill="#F59D21"/>
<path d="M58.3139 25.352V24.6543L57.8418 25.1373L58.3139 25.352Z" fill="#FAC074"/>
<path d="M75.0949 27.5098L74.4512 28.1538L75.0949 28.7978V27.5098Z" fill="#ED695A"/>
<path d="M75.0931 28.7983L74.4494 28.1543L73.7949 28.7983H75.0931Z" fill="#E94D2A"/>
<path d="M70.9629 26.4146V28.7974H73.7953L74.4498 28.1534L72.1109 25.8135L70.9629 26.4146Z" fill="#E6301F"/>
<path d="M72.1109 25.8135L70.9629 24.665V26.4146L72.1109 25.8135Z" fill="#EA4E3B"/>
<path d="M72.0894 24.665H70.9629L72.1109 25.8135L73.3769 25.1588L72.0894 24.665Z" fill="#ED695A"/>
<path d="M73.3773 25.1592L72.1113 25.8139L74.4502 28.1538L75.094 27.5098V25.8139L73.3773 25.1592Z" fill="#EA4D33"/>
<path d="M72.0898 24.665L73.3773 25.1588L74.3107 24.665H72.0898Z" fill="#E83F29"/>
<path d="M74.3104 24.665L73.377 25.1588L75.0936 25.8135V24.665H74.3104Z" fill="#E3000B"/>
<path d="M13.6279 15.07L13.7674 17.4743L11.6216 17.1201C11.8675 18.2948 11.9684 19.4951 11.922 20.6944C11.7738 21.3959 11.4821 22.0592 11.0651 22.6425C10.6481 23.2257 10.1149 23.7163 9.49915 24.0833C8.88337 24.4503 8.19831 24.6858 7.4871 24.7749C6.77589 24.8641 6.05393 24.805 5.36667 24.6013C5.10715 24.5261 4.83199 24.5233 4.571 24.5933C4.31001 24.6633 4.07315 24.8034 3.88608 24.9985C3.11359 25.7284 3.28526 26.6514 4.3045 26.909C5.03465 27.0386 5.77339 27.114 6.51466 27.1344C7.9154 27.1658 9.31285 27.2841 10.6989 27.4886C13.7674 28.1326 14.7008 31.2131 12.598 33.553C11.7345 34.4637 10.6686 35.158 9.48677 35.5794C8.30492 36.0009 7.04041 36.1377 5.79583 35.9788C4.60167 35.8899 3.42876 35.6147 2.31965 35.1631C1.62559 34.9373 1.02394 34.4914 0.605793 33.893C0.187645 33.2945 -0.0242419 32.5761 0.00220682 31.8464C0.0709438 31.1187 0.378842 30.4342 0.877743 29.9002C1.37664 29.3661 2.03841 29.0125 2.75954 28.8947C1.79394 28.2292 0.96781 27.5208 1.17166 26.2543C1.37551 24.9877 2.24455 24.4833 3.31744 23.9466C2.32015 23.251 1.60167 22.2241 1.28968 21.0486C1.09034 20.3121 1.06167 19.5399 1.20585 18.7907C1.35003 18.0415 1.66326 17.3352 2.12166 16.7254C2.58006 16.1157 3.17154 15.6187 3.85103 15.2723C4.53051 14.9259 5.28007 14.7392 6.04259 14.7266C7.25558 14.828 8.46244 14.9928 9.65824 15.2203C10.7054 15.274 11.7546 15.274 12.8018 15.2203C13.0378 15.2203 13.2632 15.113 13.6279 15.07ZM6.84726 29.3455C6.30008 29.3455 5.61343 29.3455 4.92678 29.3455C4.36236 29.393 3.82437 29.6055 3.37985 29.9567C2.93533 30.3079 2.60393 30.7822 2.42694 31.3205C2.26601 32.1792 2.89902 33.0808 4.05774 33.5745C5.29272 34.1336 6.68039 34.2584 7.99525 33.9287C8.93863 33.7182 9.82472 33.3043 10.5917 32.7158C10.8676 32.5185 11.077 32.2419 11.1923 31.9228C11.3076 31.6036 11.3232 31.257 11.2371 30.9288C11.151 30.6005 10.9673 30.3062 10.7102 30.0848C10.4532 29.8634 10.1349 29.7254 9.79771 29.689C8.82101 29.5223 7.83613 29.4076 6.84726 29.3455ZM9.65824 19.7176C9.70137 19.3084 9.65456 18.8947 9.52108 18.5055C9.3876 18.1163 9.17069 17.761 8.88553 17.4645C8.60037 17.1679 8.25386 16.9374 7.87026 16.7889C7.48667 16.6404 7.07527 16.5776 6.66487 16.6049C6.2529 16.583 5.84095 16.6484 5.456 16.7968C5.07106 16.9453 4.72179 17.1734 4.43109 17.4662C4.14039 17.7591 3.9148 18.1101 3.76911 18.4962C3.62342 18.8823 3.56091 19.2949 3.58567 19.7069C3.55303 20.1244 3.61158 20.544 3.75725 20.9367C3.90292 21.3293 4.13222 21.6855 4.42925 21.9806C4.72628 22.2757 5.08392 22.5027 5.47737 22.6457C5.87083 22.7887 6.29067 22.8444 6.70778 22.8089C7.1127 22.8292 7.51726 22.7621 7.8939 22.612C8.27055 22.4619 8.61044 22.2324 8.89043 21.939C9.17041 21.6457 9.38393 21.2954 9.51642 20.9121C9.64892 20.5287 9.69729 20.1213 9.65824 19.7176Z" fill="#333333"/>
<path d="M33.3479 28.9697C31.7385 29.12 30.4403 28.8195 29.7537 27.2094C28.8779 28.2352 27.6562 28.9036 26.3204 29.0878C25.3618 29.2122 24.3895 29.0041 23.5656 28.4982C22.7417 27.9924 22.116 27.2193 21.7928 26.3078C21.4852 25.3807 21.5506 24.3702 21.9752 23.4905C22.3998 22.6109 23.1503 21.9313 24.0674 21.5959C25.632 21.0753 27.2357 20.6805 28.8632 20.4152C29.1128 20.3885 29.3646 20.3885 29.6142 20.4152C30.0326 18.2685 29.0241 17.0556 26.9427 16.9697C25.2904 17.0064 23.6813 17.5046 22.2971 18.408C22.1323 17.8479 22.0032 17.2779 21.9108 16.7014C21.9062 16.5737 21.932 16.4468 21.9861 16.3311C22.0402 16.2154 22.1211 16.1142 22.222 16.0359C23.2768 15.3644 24.4623 14.9252 25.6999 14.7476C26.9375 14.5699 28.1987 14.6578 29.3996 15.0055C31.2343 15.5637 32.1248 17.0341 32.1892 19.5136C32.1892 21.4885 32.1892 23.4742 32.1892 25.4492C32.1892 26.7801 32.1892 26.7801 33.4015 27.0806C33.4015 27.5315 33.4015 27.993 33.4015 28.4438C33.3908 28.5726 33.3693 28.7443 33.3479 28.9697ZM29.7322 21.9286C29.2487 21.9618 28.7682 22.03 28.2946 22.1325C27.2264 22.4048 26.1822 22.7637 25.1724 23.2059C24.7704 23.4175 24.4599 23.7693 24.2997 24.1946C24.1396 24.6199 24.1409 25.0892 24.3034 25.5136C24.4161 25.9027 24.6451 26.248 24.9596 26.5031C25.2741 26.7583 25.6591 26.9111 26.0629 26.9411C26.571 27.0253 27.0909 27.0049 27.5908 26.8813C28.0907 26.7576 28.5602 26.5333 28.9705 26.222C29.2709 25.9966 29.6571 25.6531 29.6893 25.3311C29.7859 24.2363 29.7322 23.12 29.7322 21.9286Z" fill="#333333"/>
<path d="M51.2438 15.6168L50.6752 17.6776C49.4521 17.4093 48.3041 17.098 47.1346 16.9263C46.5411 16.8404 45.9354 16.9222 45.3858 17.1624C44.9364 17.4238 44.597 17.8395 44.4309 18.3323C44.3346 18.6261 44.3529 18.9454 44.4823 19.2262C44.6117 19.5069 44.8425 19.7283 45.1283 19.8458C46.0081 20.2429 46.9415 20.5327 47.8427 20.9191C48.3255 21.0908 48.8298 21.2411 49.2911 21.4558C49.9715 21.7063 50.5585 22.1598 50.973 22.7548C51.3874 23.3499 51.6093 24.0579 51.6086 24.7831C51.6468 25.5361 51.4641 26.2839 51.0828 26.9342C50.7015 27.5846 50.1384 28.1091 49.4628 28.4432C46.9737 29.742 44.5168 29.2268 42.1242 28.1105C42.038 28.0533 41.9681 27.9749 41.9211 27.8828C41.8741 27.7906 41.8517 27.6879 41.856 27.5846C41.974 26.9728 42.1671 26.3824 42.3066 25.8887C43.4297 26.285 44.5764 26.6112 45.7399 26.8654C46.5012 26.9319 47.2683 26.8591 48.0037 26.6508C48.3436 26.57 48.647 26.3786 48.8665 26.1066C49.0859 25.8347 49.2088 25.4975 49.216 25.1481C49.242 24.814 49.1588 24.4805 48.9788 24.1978C48.7988 23.9151 48.5319 23.6987 48.2182 23.581C47.5912 23.3044 46.9502 23.0608 46.2978 22.8511C45.5362 22.6031 44.7878 22.3165 44.0554 21.9924C43.4561 21.7408 42.9437 21.319 42.5814 20.7791C42.2191 20.2393 42.0229 19.6051 42.0169 18.9549C41.9677 18.2486 42.1213 17.5429 42.4597 16.9211C42.798 16.2992 43.307 15.7871 43.9267 15.445C44.7538 15.0069 45.6601 14.7385 46.5924 14.6556C47.5246 14.5726 48.4641 14.6768 49.3555 14.962C49.9955 15.1484 50.6257 15.367 51.2438 15.6168Z" fill="#333333"/>
<path d="M62.0158 14.9732C62.0158 14.3828 62.0158 12.6333 62.0158 12H64.3761V15.0376H68.5926L68.4531 17.2809H64.1615V22.8515C64.1615 23.517 64.1615 24.1717 64.1079 24.8372C64.1079 26.3721 64.8267 27.0698 66.3502 26.8551C66.994 26.7692 67.627 26.5975 68.3458 26.4472L68.775 28.5081C67.2306 29.1803 65.4997 29.2904 63.8826 28.8193C62.5093 28.3685 61.7368 27.1342 61.7368 25.3202C61.7368 22.9696 61.8441 20.619 61.8977 18.2683C61.8977 17.9785 61.8977 17.6995 61.8977 17.3453C61.1789 17.2594 60.503 17.2701 59.752 17.1843V15.4562L62.0158 14.9732Z" fill="#333333"/>
</g>
<defs>
<clipPath id="clip0_741_18372">
<rect width="75.0949" height="48.0431" fill="white"/>
</clipPath>
</defs>
</svg>
