<svg xmlns="http://www.w3.org/2000/svg" width="400" height="400" viewBox="0 0 400 400"><path d="M0 0 C132 0 264 0 400 0 C400 132 400 264 400 400 C268 400 136 400 0 400 C0 268 0 136 0 0 Z " fill="#FEC00E" transform="translate(0,0)"/><path d="M0 0 C0 0.66 0 1.32 0 2 C1.03 2.06 2.06 2.12 3.12 2.19 C13.58 3.51 28.35 8.48 35 17 C35.47 19.61 35.67 21.65 35.62 24.25 C35.62 24.95 35.61 25.66 35.6 26.38 C35.26 34.6 32.47 41.63 29 49 C28.71 49.63 28.41 50.26 28.11 50.9 C24.04 59.37 19.11 67.1 13.51 74.63 C13.05 75.26 12.59 75.89 12.12 76.54 C11.72 77.09 11.31 77.64 10.88 78.2 C9.63 80.41 9.63 80.41 10 85 C23.37 84.01 23.37 84.01 37 83 C37.91 86.64 37.86 88.41 37.26 91.98 C36.79 95.64 36.92 99.32 37 103 C39.97 103.5 39.97 103.5 43 104 C43.26 103.27 43.53 102.54 43.8 101.79 C45.01 98.97 46.43 96.84 48.27 94.38 C52.02 89.13 54.93 83.7 57.69 77.88 C58.16 76.88 58.64 75.89 59.13 74.86 C62.88 66.76 65.41 58.77 67 50 C69.49 52.49 70.54 55.24 71.88 58.44 C72.14 59.07 72.4 59.7 72.68 60.35 C73.46 62.23 74.23 64.11 75 66 C75.58 67.41 75.58 67.41 76.18 68.84 C86.75 95.95 83.35 124.81 72 151 C71.04 153.02 70.03 155.01 69 157 C68.34 157 67.68 157 67 157 C66.74 157.73 66.47 158.45 66.2 159.2 C64.17 163.92 61.01 167.86 58 172 C57.43 172.8 56.86 173.6 56.28 174.43 C55.75 175.15 55.23 175.88 54.69 176.62 C54.22 177.28 53.75 177.93 53.26 178.6 C52.85 179.06 52.43 179.52 52 180 C51.34 180 50.68 180 50 180 C50 180.66 50 181.32 50 182 C48.05 183.63 48.05 183.63 45.31 185.56 C44.82 185.91 44.34 186.25 43.84 186.61 C42.78 187.35 41.73 188.1 40.67 188.83 C38.97 190.02 37.28 191.22 35.59 192.42 C34.45 193.22 33.32 194.02 32.19 194.81 C31.66 195.19 31.14 195.56 30.59 195.94 C21.52 202.25 11.2 205.68 0.35 207.51 C-2.09 207.96 -2.09 207.96 -4.69 209.01 C-8.39 210.12 -11.51 210.29 -15.34 210.27 C-16.37 210.27 -16.37 210.27 -17.42 210.27 C-18.86 210.27 -20.3 210.27 -21.74 210.26 C-23.93 210.25 -26.11 210.26 -28.3 210.27 C-29.71 210.27 -31.12 210.27 -32.53 210.27 C-33.49 210.27 -33.49 210.27 -34.48 210.28 C-38.99 210.23 -42.71 209.37 -47 208 C-48.37 207.69 -49.75 207.4 -51.12 207.12 C-61.71 204.79 -70.73 201.57 -80 196 C-80 195.34 -80 194.68 -80 194 C-79.04 193.79 -78.08 193.58 -77.1 193.37 C-47 186.54 -23.34 169.52 0 150 C1.11 150.94 2.23 151.88 3.34 152.82 C3.96 153.34 4.57 153.87 5.21 154.41 C6.8 155.82 8.2 157.29 9.62 158.88 C11.8 161.27 11.8 161.27 14.65 161.13 C15.81 161.07 15.81 161.07 17 161 C17.06 160.04 17.06 160.04 17.13 159.06 C17.94 148.29 19.43 137.61 20.84 126.91 C22.12 117.28 23.31 107.69 24 98 C16.18 97.9 8.48 98.15 0.69 98.84 C-0.84 98.97 -0.84 98.97 -2.39 99.1 C-4.52 99.28 -6.64 99.47 -8.77 99.65 C-12.02 99.94 -15.27 100.22 -18.53 100.49 C-20.6 100.67 -22.68 100.85 -24.75 101.03 C-25.72 101.11 -26.69 101.19 -27.69 101.28 C-28.59 101.36 -29.49 101.44 -30.42 101.52 C-31.21 101.59 -32 101.66 -32.82 101.73 C-34.94 101.99 -36.93 102.43 -39 103 C-39.8 104.79 -39.8 104.79 -40 107 C-38.73 109.1 -38.73 109.1 -36.81 111 C-36.17 111.69 -35.52 112.38 -34.86 113.09 C-34.25 113.72 -33.63 114.35 -33 115 C-32.2 115.82 -31.39 116.65 -30.56 117.5 C-30.05 118 -29.53 118.49 -29 119 C-36.71 136.67 -67.81 150.98 -85 158 C-93.34 161.27 -103.52 163.35 -112.34 161.18 C-115 160 -115 160 -116.38 157.38 C-116.58 156.59 -116.79 155.81 -117 155 C-117.66 155 -118.32 155 -119 155 C-120.13 152.29 -121.25 149.58 -122.38 146.88 C-122.69 146.11 -123.01 145.35 -123.34 144.57 C-128.61 131.82 -130.37 120.4 -130.37 106.69 C-130.37 104.33 -130.41 101.98 -130.45 99.63 C-130.56 84.66 -127.03 72.09 -120.72 58.55 C-120.08 57.16 -119.46 55.76 -118.86 54.36 C-112.77 41.02 -101.74 28.67 -90 20 C-89.34 20 -88.68 20 -88 20 C-88 19.34 -88 18.68 -88 18 C-85.99 16.56 -85.99 16.56 -83.31 15 C-82.44 14.48 -81.57 13.97 -80.68 13.44 C-78.16 12.09 -75.65 11.04 -73 10 C-72.2 9.48 -71.39 8.97 -70.56 8.44 C-67.68 6.82 -65.26 6.38 -62 6 C-62 5.34 -62 4.68 -62 4 C-60.34 3.52 -58.68 3.05 -57.02 2.58 C-55.74 2.21 -54.46 1.84 -53.18 1.46 C-35.62 -3.68 -17.92 -2.88 0 0 Z " fill="#FDFEFD" transform="translate(224,94)"/><path d="M0 0 C0.68 11.92 -1.34 23.66 -2.94 35.44 C-3.22 37.56 -3.5 39.68 -3.78 41.79 C-4.81 49.54 -4.81 49.54 -5.34 53.4 C-5.49 54.55 -5.49 54.55 -5.65 55.73 C-6.03 58.17 -6.5 60.58 -7 63 C-9.19 63.75 -9.19 63.75 -12 64 C-16.52 61.22 -19.65 57.06 -23 53 C-27.01 55.98 -31.01 58.99 -34.94 62.08 C-53.51 76.63 -75.24 91.81 -99 96 C-100.03 96.19 -101.06 96.37 -102.12 96.56 C-107.9 96.51 -112.73 91.46 -117 88 C-117.59 87.55 -118.18 87.1 -118.79 86.64 C-126.5 80.62 -133.83 71.85 -138 63 C-137.25 63.02 -136.5 63.05 -135.73 63.07 C-104.71 63.62 -76.08 43.14 -54 23 C-55.84 18.68 -58.83 16.14 -62.22 13 C-64.08 10.92 -64.69 9.74 -65 7 C-64.31 5.31 -64.31 5.31 -63 4 C-60.15 3.12 -57.36 2.78 -54.39 2.52 C-53.48 2.44 -52.57 2.36 -51.64 2.28 C-50.66 2.19 -49.69 2.11 -48.68 2.03 C-47.67 1.94 -46.65 1.85 -45.61 1.76 C-43.46 1.58 -41.31 1.4 -39.17 1.22 C-35.91 0.94 -32.65 0.66 -29.39 0.37 C-27.3 0.19 -25.21 0.02 -23.12 -0.16 C-22.15 -0.24 -21.19 -0.33 -20.2 -0.42 C-3.59 -1.79 -3.59 -1.79 0 0 Z " fill="#076D93" transform="translate(248,192)"/><path d="M0 0 C1.32 0 2.64 0 4 0 C4 132 4 264 4 400 C-128 400 -260 400 -396 400 C-396 399.01 -396 398.02 -396 397 C-265.32 396.67 -134.64 396.34 0 396 C-0.66 394.35 -1.32 392.7 -2 391 C-1.34 390.67 -0.68 390.34 0 390 C0 261.3 0 132.6 0 0 Z " fill="#FBD04A" transform="translate(396,0)"/><path d="M0 0 C4.8 2.14 8.36 4.73 12.19 8.31 C12.74 8.83 13.3 9.35 13.87 9.88 C31.48 26.68 31.48 26.68 32.15 34.87 C30.59 49.44 23.11 62.48 16 75 C15.62 75.67 15.25 76.33 14.86 77.02 C13.85 78.76 12.81 80.48 11.75 82.19 C11.17 83.13 10.58 84.07 9.98 85.04 C8 87 8 87 4.83 87.36 C2 87 2 87 1 86 C0.87 84.29 0.87 84.29 0.88 82.06 C0.87 81 0.87 81 0.87 79.91 C1.06 75.59 1.54 71.3 2 67 C1.26 67.08 0.52 67.15 -0.25 67.23 C-3 67.51 -5.76 67.77 -8.52 68.02 C-9.71 68.13 -10.9 68.25 -12.09 68.37 C-13.81 68.55 -15.52 68.7 -17.24 68.86 C-18.79 69 -18.79 69 -20.36 69.16 C-23 69 -23 69 -24.87 67.66 C-26 66 -26 66 -25.91 63.61 C-24.86 60.6 -23.48 58.68 -21.5 56.19 C-12.59 44.46 -1.53 27.29 -0.68 12.21 C-0.64 11.49 -0.6 10.78 -0.56 10.05 C-0.52 9.31 -0.48 8.57 -0.44 7.81 C-0.39 7.06 -0.35 6.31 -0.31 5.54 C-0.2 3.69 -0.1 1.85 0 0 Z " fill="#086D92" transform="translate(259,111)"/><path d="M0 0 C0.66 0 1.32 0 2 0 C3.31 1.98 4.51 3.95 5.69 6 C8.62 10.98 11.73 15.32 15.75 19.51 C17 21 17 21 17 23 C17.99 23.33 18.98 23.66 20 24 C20 24.66 20 25.32 20 26 C20.99 26.33 21.98 26.66 23 27 C23 27.66 23 28.32 23 29 C23.55 29.26 24.11 29.51 24.68 29.78 C27.33 31.18 29.69 32.82 32.12 34.56 C35.45 36.97 35.45 36.97 39 39 C39 39.66 39 40.32 39 41 C39.99 41.5 39.99 41.5 41 42 C40.01 42 39.02 42 38 42 C38 41.34 38 40.68 38 40 C36.68 40 35.36 40 34 40 C34 39.34 34 38.68 34 38 C33.24 37.73 32.47 37.46 31.69 37.19 C29 36 29 36 27.62 34.44 C25.05 32.16 22.37 32.32 19 32 C19 32.99 19 33.98 19 35 C18.34 35 17.68 35 17 35 C17 34.34 17 33.68 17 33 C16.24 32.73 15.47 32.46 14.69 32.19 C12.13 31.06 10.8 30.09 9 28 C9.33 27.34 9.66 26.68 10 26 C12.5 27.38 12.5 27.38 15 29 C15 29.66 15 30.32 15 31 C15.66 30.67 16.32 30.34 17 30 C17 29.01 17 28.02 17 27 C15.02 26.34 13.04 25.68 11 25 C11 24.34 11 23.68 11 23 C10.34 23 9.68 23 9 23 C9 22.34 9 21.68 9 21 C9.66 21 10.32 21 11 21 C11 20.34 11 19.68 11 19 C10.34 19 9.68 19 9 19 C8.94 17.89 8.94 17.89 8.88 16.75 C7.79 13.33 6.41 13.08 3.43 11.38 C0.46 8.52 0.44 3.94 0 0 Z " fill="#FBC017" transform="translate(105,249)"/><path d="M0 0 C2.47 0.5 2.47 0.5 5 1 C5 1.99 5 2.98 5 4 C5.99 4 6.98 4 8 4 C9.26 5.26 10.51 6.52 11.73 7.82 C13.36 9.33 14.81 9.76 17 10 C17 9.34 17 8.68 17 8 C18.65 7.67 20.3 7.34 22 7 C22 6.34 22 5.68 22 5 C25.63 4.67 29.26 4.34 33 4 C33 3.34 33 2.68 33 2 C35.97 2.33 38.94 2.66 42 3 C42 2.34 42 1.68 42 1 C43.98 1.66 45.96 2.32 48 3 C45.88 5.12 44.59 5.68 41.82 6.69 C41 7 40.17 7.3 39.31 7.62 C38.45 7.93 37.58 8.24 36.69 8.56 C35.83 8.88 34.98 9.2 34.1 9.52 C20.56 14.46 20.56 14.46 15 13 C9.46 9.69 4.4 5.74 0 1 C0 0.67 0 0.34 0 0 Z " fill="#106E91" transform="translate(127,275)"/><path d="M0 0 C0.18 8.33 -0.31 16.37 -1.38 24.62 C-1.56 26.24 -1.56 26.24 -1.76 27.88 C-1.95 29.41 -1.95 29.41 -2.15 30.98 C-2.26 31.9 -2.38 32.81 -2.5 33.76 C-3 36 -3 36 -5 38 C-5.66 32.06 -6.32 26.12 -7 20 C-5.68 19.67 -4.36 19.34 -3 19 C-3.5 14.54 -3.5 14.54 -4 10 C-3.34 10 -2.68 10 -2 10 C-1.67 7.03 -1.34 4.06 -1 1 C-6.61 1 -12.22 1 -18 1 C-18 1.66 -18 2.32 -18 3 C-26.91 3 -35.82 3 -45 3 C-45 2.67 -45 2.34 -45 2 C-40.48 1.57 -35.97 1.14 -31.45 0.72 C-29.92 0.57 -28.39 0.43 -26.85 0.28 C-3.85 -1.93 -3.85 -1.93 0 0 Z " fill="#1E6F8D" transform="translate(248,192)"/><path d="M0 0 C4.8 2.14 8.36 4.73 12.19 8.31 C12.74 8.83 13.3 9.35 13.87 9.88 C20.49 16.19 28.67 24.31 32 33 C31.62 35.75 31.62 35.75 31 38 C30.67 38 30.34 38 30 38 C29.01 34.53 29.01 34.53 28 31 C24.99 30.07 24.13 29.96 21 31 C21.33 29.35 21.66 27.7 22 26 C20.02 26.99 20.02 26.99 18 28 C17.01 26.35 16.02 24.7 15 23 C15.66 22.67 16.32 22.34 17 22 C17 22.66 17 23.32 17 24 C17.66 24 18.32 24 19 24 C19.8 22.22 19.8 22.22 20 20 C18.74 17.83 18.74 17.83 16.81 15.88 C16.2 15.19 15.59 14.51 14.96 13.8 C13.03 12.03 11.34 11.12 9 10 C7.59 8.75 7.59 8.75 6.38 7.44 C4.25 4.99 4.25 4.99 2 4 C2 5.65 2 7.3 2 9 C1.67 9 1.34 9 1 9 C0.67 6.03 0.34 3.06 0 0 Z " fill="#126C88" transform="translate(259,111)"/><path d="M0 0 C4.5 -0.23 4.5 -0.23 6.79 0.2 C8.53 2.55 8.53 2.55 9.79 5.2 C12.71 6.65 12.71 6.65 15.98 7.51 C17.06 7.84 18.15 8.16 19.27 8.5 C20.1 8.73 20.93 8.96 21.79 9.2 C21.79 10.19 21.79 11.18 21.79 12.2 C18 11.17 14.33 10.06 10.67 8.64 C7.73 7.5 4.91 6.69 1.79 6.2 C1.79 5.54 1.79 4.88 1.79 4.2 C-12.53 2.97 -26.85 3.1 -41.21 3.2 C-37.54 0.87 -33.95 0.85 -29.73 0.78 C-28.65 0.76 -28.65 0.76 -27.54 0.73 C-25.22 0.67 -22.9 0.62 -20.58 0.57 C-19.05 0.54 -17.51 0.5 -15.98 0.46 C-13.04 0.38 -10.09 0.32 -7.15 0.28 C-4.75 0.24 -2.39 0.15 0 0 Z " fill="#F6C025" transform="translate(222.2099609375,89.8017578125)"/><path d="M0 0 C1.32 0 2.64 0 4 0 C4.03 1.08 4.05 2.16 4.08 3.27 C4.17 7.27 4.27 11.27 4.37 15.27 C4.42 17 4.46 18.74 4.5 20.47 C4.55 22.96 4.62 25.44 4.68 27.93 C4.7 28.71 4.72 29.48 4.73 30.28 C4.75 31.01 4.77 31.73 4.79 32.47 C4.81 33.1 4.83 33.74 4.84 34.39 C4.92 36.13 4.92 36.13 6 38 C6.07 39.37 6.08 40.75 6.06 42.12 C6.05 42.85 6.04 43.57 6.04 44.32 C6.02 44.87 6.01 45.43 6 46 C5.67 46 5.34 46 5 46 C2.69 38.26 2.35 30.48 1.9 22.47 C1.79 20.69 1.68 18.9 1.56 17.11 C1.5 16.06 1.44 15.01 1.38 13.92 C1 10.97 0.11 8.74 -1 6 C-0.62 2.69 -0.62 2.69 0 0 Z " fill="#F6C534" transform="translate(90,180)"/><path d="M0 0 C6.97 13.94 4.14 36.67 -0.38 51.17 C-1.5 54.48 -2.73 57.74 -4 61 C-4.9 57.76 -4.95 55.79 -4.12 52.5 C-3.94 51.75 -3.76 50.99 -3.57 50.22 C-3.38 49.49 -3.19 48.75 -3 48 C-2.83 47.27 -2.66 46.54 -2.49 45.78 C-2 44 -2 44 -1 43 C-0.79 41.17 -0.63 39.34 -0.5 37.5 C-0.11 32.11 -0.11 32.11 1 31 C1.16 29.51 1.25 28.02 1.32 26.53 C1.36 25.63 1.4 24.73 1.44 23.8 C1.48 22.86 1.52 21.91 1.56 20.94 C1.61 19.99 1.65 19.04 1.69 18.06 C1.8 15.71 1.9 13.35 2 11 C1.34 11 0.68 11 0 11 C0 7.37 0 3.74 0 0 Z " fill="#FEF2B6" transform="translate(303,176)"/><path d="M0 0 C2.35 0.45 4.71 0.91 7.06 1.38 C7.72 1.5 8.38 1.63 9.05 1.76 C9.71 1.89 10.36 2.02 11.04 2.15 C11.63 2.26 12.22 2.38 12.83 2.5 C14.67 2.92 16.48 3.47 18.28 4.04 C22.05 5.13 25.57 5.29 29.47 5.27 C30.16 5.27 30.84 5.27 31.55 5.27 C32.99 5.27 34.43 5.27 35.87 5.26 C38.06 5.25 40.25 5.26 42.44 5.27 C43.85 5.27 45.25 5.27 46.66 5.27 C47.31 5.27 47.95 5.27 48.62 5.28 C52.78 5.24 56.05 4.44 60 3 C62.88 2.88 62.88 2.88 65 3 C63.67 3.67 62.33 4.33 61 5 C60.07 5.52 60.07 5.52 59.13 6.05 C56.81 7.08 55.26 7.26 52.74 7.29 C51.49 7.31 51.49 7.31 50.22 7.33 C49.33 7.33 48.44 7.33 47.52 7.34 C46.59 7.34 45.66 7.35 44.71 7.36 C42.75 7.37 40.78 7.37 38.82 7.37 C35.84 7.37 32.86 7.41 29.88 7.45 C27.97 7.46 26.06 7.46 24.14 7.46 C22.82 7.48 22.82 7.48 21.47 7.5 C15.14 7.46 10.6 5.87 5 3 C3.34 2.32 1.67 1.65 0 1 C0 0.67 0 0.34 0 0 Z " fill="#F5CE52" transform="translate(162,298)"/><path d="M0 0 C2.64 0 5.28 0 8 0 C8 0.99 8 1.98 8 3 C7.01 3.5 7.01 3.5 6 4 C6.19 4.58 6.37 5.16 6.56 5.75 C7.04 8.21 6.76 9.64 6 12 C8.47 12.99 8.47 12.99 11 14 C10.67 14.99 10.34 15.98 10 17 C5.47 13.32 1.61 9.59 -2 5 C-1.34 3.35 -0.68 1.7 0 0 Z " fill="#0B6F94" transform="translate(185,196)"/><path d="M0 0 C1.12 3.3 0.9 5.05 -0.44 8.25 C-0.72 8.96 -1.01 9.66 -1.31 10.39 C-1.54 10.92 -1.76 11.45 -2 12 C-2.66 12 -3.32 12 -4 12 C-4 13.98 -4 15.96 -4 18 C-3.01 18 -2.02 18 -1 18 C-0.34 16.68 0.32 15.36 1 14 C1.33 14 1.66 14 2 14 C1.14 21.57 1.14 21.57 -1 24 C-1.76 23.48 -2.53 22.97 -3.31 22.44 C-4.2 21.96 -5.09 21.49 -6 21 C-9.12 21.65 -9.12 21.65 -10 24 C-10.66 23.67 -11.32 23.34 -12 23 C-11.74 22.55 -11.49 22.1 -11.22 21.64 C-10.04 19.58 -8.86 17.51 -7.69 15.44 C-7.08 14.38 -7.08 14.38 -6.46 13.3 C-4 8.96 -1.88 4.63 0 0 Z " fill="#146F8C" transform="translate(254,138)"/><path d="M0 0 C0.33 0 0.66 0 1 0 C0.67 3.63 0.34 7.26 0 11 C-5 12 -5 12 -7.62 10.38 C-9.95 8.05 -11.47 5.89 -13 3 C-7.63 1.78 -7.63 1.78 -4.69 2.81 C-3 4 -3 4 -2 6 C-1.34 4.02 -0.68 2.04 0 0 Z " fill="#106C8C" transform="translate(241,244)"/><path d="M0 0 C0.66 0 1.32 0 2 0 C2.97 2.61 3.03 3.89 2.31 6.62 C0.8 9.36 -0.23 9.75 -3 11 C-3.33 11.99 -3.66 12.98 -4 14 C-5.74 15.75 -5.74 15.75 -7.88 17.56 C-8.57 18.16 -9.27 18.76 -9.99 19.38 C-11.62 20.69 -13.23 21.88 -15 23 C-13.38 19.34 -11.06 16.33 -8.62 13.19 C-5.38 8.95 -2.48 4.75 0 0 Z " fill="#F7C229" transform="translate(291,251)"/><path d="M0 0 C0.33 0.66 0.66 1.32 1 2 C2.32 1.67 3.64 1.34 5 1 C-3 9.8 -13.72 15.3 -24 21 C-24 20.01 -24 19.02 -24 18 C-23.43 17.75 -22.87 17.49 -22.29 17.23 C-21.55 16.89 -20.82 16.54 -20.06 16.19 C-19.33 15.85 -18.6 15.51 -17.85 15.17 C-15.67 14.06 -15.67 14.06 -15 11 C-13.37 10.05 -13.37 10.05 -11.44 9.31 C-10.8 9.06 -10.16 8.81 -9.5 8.55 C-9 8.37 -8.51 8.19 -8 8 C-8 7.34 -8 6.68 -8 6 C-7.01 6.33 -6.02 6.66 -5 7 C-4.67 6.34 -4.34 5.68 -4 5 C-3.01 4.67 -2.02 4.34 -1 4 C-0.27 1.98 -0.27 1.98 0 0 Z " fill="#1B6C87" transform="translate(201,257)"/><path d="M0 0 C2.52 2.81 2.29 5.83 2.27 9.4 C2.27 10.03 2.27 10.66 2.27 11.31 C2.27 12.65 2.27 13.99 2.26 15.33 C2.25 17.33 2.26 19.34 2.27 21.34 C2.28 31.51 1.03 41.03 -1 51 C-1.99 50.67 -2.98 50.34 -4 50 C-3.52 47.58 -3.04 45.17 -2.56 42.75 C-2.36 41.73 -2.36 41.73 -2.15 40.68 C-2.02 40.02 -1.89 39.36 -1.75 38.67 C-1.63 38.06 -1.51 37.46 -1.39 36.83 C-1 35 -1 35 -0.46 33.22 C0.19 30.09 0.12 27 0.1 23.83 C0.1 22.8 0.1 22.8 0.09 21.76 C0.09 19.59 0.08 17.42 0.06 15.25 C0.06 13.77 0.05 12.3 0.05 10.82 C0.04 7.22 0.02 3.61 0 0 Z " fill="#EFBF31" transform="translate(305,181)"/><path d="M0 0 C0.99 0.33 1.98 0.66 3 1 C1.88 2.77 0.75 4.54 -0.38 6.31 C-0.69 6.81 -1.01 7.31 -1.34 7.83 C-2.22 9.22 -3.11 10.61 -4 12 C-4.34 12.61 -4.68 13.21 -5.04 13.84 C-5.35 14.22 -5.67 14.61 -6 15 C-9.06 15.25 -9.06 15.25 -12 15 C-13 14 -13 14 -13.1 11.93 C-13.09 11.11 -13.07 10.29 -13.06 9.44 C-13.05 8.61 -13.04 7.78 -13.04 6.93 C-13.02 6.3 -13.01 5.66 -13 5 C-12.67 5 -12.34 5 -12 5 C-11.67 7.31 -11.34 9.62 -11 12 C-9.68 12 -8.36 12 -7 12 C-6.67 10.68 -6.34 9.36 -6 8 C-5.01 8 -4.02 8 -3 8 C-3.33 6.68 -3.66 5.36 -4 4 C-5.32 3.67 -6.64 3.34 -8 3 C-8 2.34 -8 1.68 -8 1 C-6.21 1.03 -4.42 1.07 -2.63 1.1 C-0.96 1.18 -0.96 1.18 0 0 Z " fill="#186E8E" transform="translate(273,183)"/><path d="M0 0 C0 0.33 0 0.66 0 1 C-1.19 1.13 -1.19 1.13 -2.4 1.26 C-5.35 1.58 -8.31 1.9 -11.26 2.23 C-12.54 2.37 -13.81 2.5 -15.09 2.64 C-16.93 2.84 -18.77 3.04 -20.61 3.25 C-21.71 3.37 -22.82 3.49 -23.95 3.61 C-26.67 3.96 -29.32 4.45 -32 5 C-34.35 5.11 -36.65 5.05 -39 5 C-29.19 -2.75 -11.56 -0.31 0 0 Z " fill="#FEF2B4" transform="translate(208,92)"/><path d="M0 0 C0.66 0.66 1.32 1.32 2 2 C1.07 3.36 1.07 3.36 0.12 4.75 C-3.09 9.48 -3.09 9.48 -4 15 C3.59 15 11.18 15 19 15 C19 15.33 19 15.66 19 16 C15.06 16.42 11.13 16.81 7.19 17.19 C6.07 17.31 4.95 17.43 3.79 17.55 C2.19 17.7 2.19 17.7 0.54 17.86 C-0.45 17.95 -1.44 18.05 -2.46 18.16 C-5 18 -5 18 -6.85 16.66 C-8 15 -8 15 -7.91 12.64 C-6.84 9.55 -5.37 7.33 -3.44 4.69 C-2.8 3.8 -2.16 2.92 -1.5 2.01 C-0.76 1.02 -0.76 1.02 0 0 Z " fill="#246F8A" transform="translate(241,162)"/><path d="M0 0 C1.26 3.65 0.74 6.43 0.07 10.2 C-1.26 18.43 -1.23 26.55 -1.12 34.88 C-1.11 36.35 -1.11 37.83 -1.1 39.31 C-1.08 42.87 -1.04 46.44 -1 50 C-3.49 47.51 -3.26 46 -3.3 42.59 C-3.3 41.85 -3.3 41.11 -3.3 40.35 C-3.31 39.58 -3.31 38.82 -3.31 38.02 C-3.32 36.39 -3.32 34.76 -3.32 33.13 C-3.31 30.67 -3.34 28.21 -3.36 25.75 C-3.4 16.7 -2.84 8.68 0 0 Z " fill="#FEF9CE" transform="translate(97,168)"/><path d="M0 0 C0.33 0.99 0.66 1.98 1 3 C1.99 2.67 2.98 2.34 4 2 C4.33 2.99 4.66 3.98 5 5 C4.06 6.69 4.06 6.69 3 8 C3.33 8.66 3.66 9.32 4 10 C1.03 9.5 1.03 9.5 -2 9 C-2.33 9.66 -2.66 10.32 -3 11 C-3.6 10.79 -4.2 10.59 -4.81 10.38 C-7 9.77 -7 9.77 -8.75 10.94 C-9.16 11.29 -9.57 11.64 -10 12 C-8.63 8.82 -7.14 7.03 -4.44 4.88 C-1.79 2.79 -1.79 2.79 0 0 Z " fill="#156F90" transform="translate(195,213)"/><path d="M0 0 C5 2.2 8.56 5 12.5 8.75 C13.07 9.28 13.64 9.81 14.22 10.36 C18.08 14.02 21.75 17.78 25 22 C24.67 22.66 24.34 23.32 24 24 C23.28 23.11 22.56 22.23 21.81 21.31 C18.7 17.59 15.71 14.02 11.5 11.5 C8.47 9.68 6.46 7.53 4 5 C3.34 4.67 2.68 4.34 2 4 C2 5.65 2 7.3 2 9 C1.67 9 1.34 9 1 9 C0.67 6.03 0.34 3.06 0 0 Z " fill="#1F6573" transform="translate(259,111)"/><path d="M0 0 C0.66 0.33 1.32 0.66 2 1 C0.9 2.13 -0.21 3.25 -1.31 4.38 C-1.93 5 -2.54 5.63 -3.18 6.27 C-7.11 10 -7.11 10 -11 10 C-11.23 10.6 -11.45 11.2 -11.69 11.81 C-13.39 14.66 -15.01 15.61 -18 17 C-20.81 17.19 -20.81 17.19 -23 17 C-18.77 13.53 -14.34 10.43 -9.82 7.36 C-6.42 5.03 -3.18 2.61 0 0 Z " fill="#1E6D8B" transform="translate(182,225)"/><path d="M0 0 C2.82 2.18 3.48 4.34 4.34 7.71 C5.2 10.68 6.27 13.56 7.38 16.44 C7.59 17 7.81 17.56 8.03 18.15 C9.57 22.08 11.33 25.82 13.4 29.51 C13.6 30 13.8 30.49 14 31 C13.67 31.66 13.34 32.32 13 33 C12.34 31.35 11.68 29.7 11 28 C10.34 28 9.68 28 9 28 C7.87 25.29 6.75 22.58 5.62 19.88 C5.31 19.11 4.99 18.35 4.66 17.57 C-0.32 5.51 -0.32 5.51 0 0 Z " fill="#FEF5BE" transform="translate(96,221)"/><path d="M0 0 C5.28 0 10.56 0 16 0 C16 0.66 16 1.32 16 2 C13.03 2 10.06 2 7 2 C7.3 6.85 7.3 6.85 9.56 10.94 C10.04 11.29 10.51 11.64 11 12 C10.67 12.66 10.34 13.32 10 14 C8.89 12.8 7.79 11.59 6.69 10.38 C6.07 9.7 5.46 9.03 4.82 8.34 C3 6 3 6 0 0 Z " fill="#206A7F" transform="translate(110,255)"/><path d="M0 0 C7.26 0 14.52 0 22 0 C22 0.33 22 0.66 22 1 C20.35 1 18.7 1 17 1 C17 1.66 17 2.32 17 3 C9.57 3.14 9.57 3.14 6 2 C5.67 2.99 5.34 3.98 5 5 C2.5 3.62 2.5 3.62 0 2 C0 1.34 0 0.68 0 0 Z " fill="#F6BE1C" transform="translate(186,305)"/><path d="M0 0 C-1.32 0.99 -2.64 1.98 -4 3 C-3.01 3.99 -2.02 4.98 -1 6 C-1.99 6.33 -2.98 6.66 -4 7 C-4.66 6.67 -5.32 6.34 -6 6 C-8.04 5.93 -10.08 5.92 -12.12 5.94 C-13.22 5.95 -14.32 5.96 -15.45 5.96 C-16.71 5.98 -16.71 5.98 -18 6 C-18 6.66 -18 7.32 -18 8 C-19.65 8 -21.3 8 -23 8 C-22 6 -22 6 -19.56 5.04 C-18.53 4.71 -17.5 4.39 -16.44 4.06 C-12.05 2.67 -7.77 1.18 -3.52 -0.58 C-2 -1 -2 -1 0 0 Z " fill="#F8BF1B" transform="translate(242,297)"/><path d="M0 0 C0.66 0 1.32 0 2 0 C0.84 8.71 -3.16 16.21 -7 24 C-8.24 20.29 -7.57 19.32 -6.06 15.81 C-5.68 14.91 -5.3 14.01 -4.91 13.08 C-4.46 12.05 -4.46 12.05 -4 11 C-4.66 11 -5.32 11 -6 11 C-6 10.34 -6 9.68 -6 9 C-5.01 9 -4.02 9 -3 9 C-3 7.35 -3 5.7 -3 4 C-2.01 4 -1.02 4 0 4 C0 2.68 0 1.36 0 0 Z " fill="#106D8F" transform="translate(287,153)"/><path d="M0 0 C5.28 0.33 10.56 0.66 16 1 C16 1.66 16 2.32 16 3 C16.48 3.04 16.97 3.07 17.47 3.11 C22.7 3.63 27.17 4.96 32 7 C32 7.33 32 7.66 32 8 C28.06 8.36 25.56 7.42 22.01 5.8 C15.1 3.06 7.34 2.59 0 2 C0 1.34 0 0.68 0 0 Z " fill="#FEF6C1" transform="translate(208,93)"/><path d="M0 0 C0.66 0.33 1.32 0.66 2 1 C1 4 1 4 -1.06 5.19 C-1.7 5.46 -2.34 5.72 -3 6 C-3 6.33 -3 6.66 -3 7 C-4.07 7.09 -4.07 7.09 -5.16 7.18 C-10.47 7.65 -15.73 8.18 -21 9 C-18.43 7.07 -15.77 6.11 -12.75 5.06 C-9.41 3.89 -6.16 2.66 -2.94 1.19 C-1.97 0.8 -1 0.4 0 0 Z " fill="#1D6E8E" transform="translate(150,246)"/><path d="M0 0 C-3.4 2.09 -6.05 2.18 -10 2 C-10 2.66 -10 3.32 -10 4 C-10.68 4.27 -11.35 4.53 -12.05 4.8 C-12.94 5.16 -13.83 5.51 -14.75 5.88 C-15.63 6.22 -16.51 6.57 -17.42 6.93 C-19.67 7.86 -21.84 8.88 -24 10 C-23.67 9.01 -23.34 8.02 -23 7 C-21 6 -19 5 -17 4 C-16.67 3.01 -16.34 2.02 -16 1 C-14.7 0.78 -14.7 0.78 -13.38 0.56 C-11.2 0.2 -9.03 -0.19 -6.88 -0.62 C-4.16 -0.98 -2.55 -0.88 0 0 Z " fill="#F5C535" transform="translate(172,96)"/><path d="M0 0 C0.66 0 1.32 0 2 0 C3.43 2.06 4.73 4.1 6 6.25 C6.36 6.84 6.71 7.42 7.08 8.03 C8.85 10.96 10.53 13.9 12 17 C11.34 17 10.68 17 10 17 C9.38 16.22 8.76 15.43 8.12 14.62 C6.29 11.93 6.29 11.93 3.95 11.16 C2 10 2 10 1.17 7.62 C1.03 6.71 0.89 5.81 0.75 4.88 C0.6 3.96 0.45 3.05 0.3 2.12 C0.2 1.42 0.1 0.72 0 0 Z " fill="#EDC23B" transform="translate(105,249)"/><path d="M0 0 C2.47 0.5 2.47 0.5 5 1 C5 1.99 5 2.98 5 4 C5.99 4 6.98 4 8 4 C9.27 5.24 10.54 6.48 11.72 7.81 C13.11 9.27 13.11 9.27 16 10 C16 10.66 16 11.32 16 12 C16.66 11.67 17.32 11.34 18 11 C20 10.96 22 10.96 24 11 C22 13 22 13 19.06 13.62 C12.4 13.49 6.22 7.1 1.67 2.8 C0 1 0 1 0 0 Z " fill="#216878" transform="translate(127,275)"/><path d="M0 0 C0.33 0 0.66 0 1 0 C1.86 12.04 -0.09 21 -5 32 C-5.66 31.34 -6.32 30.68 -7 30 C-6.55 29.22 -6.09 28.43 -5.62 27.62 C-3.8 24.01 -3.13 20.33 -2.43 16.37 C-2 14 -2 14 -1.48 12.02 C-0.91 9.6 -0.67 7.23 -0.44 4.75 C-0.35 3.86 -0.27 2.97 -0.18 2.05 C-0.12 1.37 -0.06 0.7 0 0 Z " fill="#DAF6FC" transform="translate(258,111)"/><path d="M0 0 C2.46 2.46 2.91 4.43 3.94 7.75 C5.03 11.17 6.07 14.41 7.81 17.56 C9 20 9 20 8 23 C7.71 22.36 7.42 21.72 7.12 21.06 C6.17 18.85 6.17 18.85 4 18 C3.37 16.37 3.37 16.37 2.88 14.44 C2.71 13.8 2.54 13.16 2.37 12.5 C2.25 12 2.12 11.51 2 11 C1.01 11.5 1.01 11.5 0 12 C0 8.04 0 4.08 0 0 Z " fill="#F7C126" transform="translate(96,226)"/><path d="M0 0 C0.99 0.33 1.98 0.66 3 1 C3.33 3.31 3.66 5.62 4 8 C2.35 8.33 0.7 8.66 -1 9 C-2.32 7.35 -3.64 5.7 -5 4 C-2.69 1.94 -2.69 1.94 0 0 Z " fill="#106B86" transform="translate(126,266)"/><path d="M0 0 C0 3.13 -0.22 3.71 -1.86 6.18 C-2.26 6.78 -2.65 7.38 -3.05 8 C-3.47 8.62 -3.88 9.24 -4.31 9.88 C-5.12 11.1 -5.93 12.33 -6.74 13.55 C-7.12 14.14 -7.51 14.72 -7.91 15.32 C-9.33 17.51 -10.68 19.75 -12 22 C-12.69 20.3 -12.69 20.3 -13 18 C-11.78 15.7 -11.78 15.7 -9.94 13.25 C-9.3 12.38 -8.65 11.51 -7.99 10.62 C-7.33 9.75 -6.68 8.89 -6 8 C-5.4 7.2 -4.81 6.4 -4.2 5.57 C-2.81 3.7 -1.41 1.85 0 0 Z " fill="#FDEFAB" transform="translate(119,128)"/><path d="M0 0 C-1.33 0.67 -2.67 1.33 -4 2 C-4.56 2.35 -5.13 2.7 -5.71 3.06 C-8.79 4.32 -11.68 4.25 -14.95 4.2 C-15.61 4.19 -16.27 4.19 -16.95 4.19 C-19.05 4.18 -21.15 4.15 -23.25 4.12 C-24.68 4.11 -26.1 4.11 -27.53 4.1 C-31.02 4.08 -34.51 4.04 -38 4 C-38 3.67 -38 3.34 -38 3 C-37.21 2.98 -36.43 2.96 -35.62 2.94 C-32.68 2.86 -29.73 2.77 -26.79 2.68 C-25.53 2.64 -24.26 2.61 -22.99 2.58 C-21.16 2.53 -19.32 2.47 -17.49 2.41 C-16.39 2.38 -15.29 2.35 -14.16 2.32 C-9.16 1.81 -5.1 -0.3 0 0 Z " fill="#F8D86F" transform="translate(227,301)"/><path d="M0 0 C0.33 0 0.66 0 1 0 C1.37 1.89 1.72 3.79 2.06 5.69 C2.26 6.74 2.46 7.8 2.66 8.89 C2.99 11.93 2.74 14.06 2 17 C2 17.66 2 18.32 2 19 C1.29 19.46 1.29 19.46 0.56 19.94 C-1.34 21 -1.34 21 -2 24 C-2.66 23.67 -3.32 23.34 -4 23 C-3.69 22.27 -3.69 22.27 -3.38 21.52 C-0.68 14.42 -0.31 7.51 0 0 Z " fill="#28728D" transform="translate(259,113)"/><path d="M0 0 C6.92 2.15 6.92 2.15 9 4 C9 4.66 9 5.32 9 6 C10.32 6.33 11.64 6.66 13 7 C13 7.66 13 8.32 13 9 C13.66 9 14.32 9 15 9 C15 9.66 15 10.32 15 11 C15.99 11 16.98 11 18 11 C17.67 11.99 17.34 12.98 17 14 C16.42 13.54 15.84 13.08 15.24 12.61 C10.03 8.5 10.03 8.5 4.56 4.75 C2.25 3.17 1.39 2.3 0 0 Z " fill="#EEC43A" transform="translate(254,106)"/><path d="M0 0 C0.66 0.33 1.32 0.66 2 1 C1.67 2.65 1.34 4.3 1 6 C1.6 6.43 2.2 6.87 2.81 7.31 C4.71 8.78 6.31 10.31 8 12 C8.98 12.69 9.98 13.37 11 14 C10.67 14.99 10.34 15.98 10 17 C5.47 13.32 1.61 9.59 -2 5 C-1.34 3.35 -0.68 1.7 0 0 Z " fill="#27708A" transform="translate(185,196)"/><path d="M0 0 C1.92 0.76 3.84 1.54 5.75 2.31 C6.82 2.74 7.88 3.17 8.98 3.61 C11.67 4.85 13.74 6.13 16 8 C13.36 8 10.72 8 8 8 C8 7.34 8 6.68 8 6 C7.34 6 6.68 6 6 6 C6 5.34 6 4.68 6 4 C4.35 4.33 2.7 4.66 1 5 C0.67 3.35 0.34 1.7 0 0 Z " fill="#F6C023" transform="translate(146,291)"/><path d="M0 0 C0.66 0 1.32 0 2 0 C-0.67 6.67 -3.33 13.33 -6 20 C-6.33 20 -6.66 20 -7 20 C-7 18.02 -7 16.04 -7 14 C-7.66 13.67 -8.32 13.34 -9 13 C-8.34 12.01 -7.68 11.02 -7 10 C-6.34 10.33 -5.68 10.66 -5 11 C-3.35 7.37 -1.7 3.74 0 0 Z " fill="#F4C434" transform="translate(104,148)"/><path d="M0 0 C-11.2 8.08 -11.2 8.08 -16 10 C-16.66 9.67 -17.32 9.34 -18 9 C-17.36 8.9 -16.72 8.79 -16.06 8.69 C-15.04 8.35 -15.04 8.35 -14 8 C-13.67 7.01 -13.34 6.02 -13 5 C-10.4 3.35 -9.14 3 -6 3 C-6 2.34 -6 1.68 -6 1 C-3.57 -1.2 -3.3 -1.1 0 0 Z " fill="#FDEBA3" transform="translate(260,286)"/><path d="M0 0 C3.31 1.53 6.16 3.44 9.12 5.56 C12.45 7.97 12.45 7.97 16 10 C16 10.66 16 11.32 16 12 C16.66 12.33 17.32 12.66 18 13 C17.01 13 16.02 13 15 13 C15 12.34 15 11.68 15 11 C13.68 11 12.36 11 11 11 C11 10.34 11 9.68 11 9 C10.3 8.81 9.6 8.63 8.88 8.44 C4.9 6.45 2.69 3.46 0 0 Z " fill="#EBC038" transform="translate(128,278)"/><path d="M0 0 C1.47 2.05 2.18 3.53 3 6 C3.99 5.67 4.98 5.34 6 5 C6.33 7.64 6.66 10.28 7 13 C6.34 12.34 5.68 11.68 5 11 C4.34 11.66 3.68 12.32 3 13 C-0.44 4.74 -0.44 4.74 0 0 Z " fill="#F9C01F" transform="translate(303,171)"/><path d="M0 0 C7.34 -0.56 13.16 1.45 20 4 C20 4.99 20 5.98 20 7 C16.21 5.97 12.54 4.86 8.88 3.44 C5.94 2.31 3.12 1.49 0 1 C0 0.67 0 0.34 0 0 Z " fill="#F3C848" transform="translate(224,95)"/><path d="M0 0 C2.47 0.5 2.47 0.5 5 1 C-0.67 4.05 -6.03 5.31 -12.38 5.62 C-13.02 5.66 -13.66 5.7 -14.32 5.74 C-15.88 5.84 -17.44 5.92 -19 6 C-19 5.67 -19 5.34 -19 5 C-6.16 2 -6.16 2 0 2 C0 1.34 0 0.68 0 0 Z " fill="#D6F3FC" transform="translate(134,250)"/><path d="M0 0 C2.6 2.6 3.71 5.6 5.12 8.94 C5.54 9.89 5.54 9.89 5.96 10.86 C6.23 11.47 6.49 12.08 6.76 12.71 C7 13.27 7.24 13.83 7.48 14.41 C8 16 8 16 8 19 C7.34 19 6.68 19 6 19 C5.34 16.03 4.68 13.06 4 10 C3.34 10 2.68 10 2 10 C0.75 6.57 -0.28 3.68 0 0 Z " fill="#FEF7C3" transform="translate(291,144)"/><path d="M0 0 C1.39 3.84 0.7 7.33 0.06 11.25 C-0.04 11.9 -0.14 12.55 -0.24 13.22 C-0.49 14.81 -0.74 16.41 -1 18 C-1.66 18 -2.32 18 -3 18 C-2.52 11.82 -1.72 5.97 0 0 Z " fill="#FDF0AE" transform="translate(97,168)"/><path d="M0 0 C1 2 1 2 0.47 3.6 C0.17 4.22 -0.13 4.84 -0.43 5.48 C-0.91 6.48 -0.91 6.48 -1.4 7.51 C-1.74 8.21 -2.08 8.91 -2.44 9.62 C-2.78 10.33 -3.11 11.04 -3.46 11.77 C-4.3 13.51 -5.15 15.26 -6 17 C-7.29 13.14 -6.41 12.11 -4.69 8.5 C-4.24 7.54 -3.79 6.58 -3.32 5.59 C-2.31 3.61 -1.3 1.8 0 0 Z " fill="#256E87" transform="translate(286,160)"/><path d="M0 0 C0.99 0.33 1.98 0.66 3 1 C1.73 3.54 0.8 3.69 -1.81 4.69 C-2.5 4.96 -3.19 5.23 -3.89 5.51 C-6.29 6.07 -7.69 5.77 -10 5 C-3.71 1.57 -3.71 1.57 0 2 C0 1.34 0 0.68 0 0 Z " fill="#FEF2B4" transform="translate(162,98)"/><path d="M0 0 C6.14 0.41 11.35 1.55 17 4 C17 4.33 17 4.66 17 5 C12.92 5.37 10.32 4.41 6.71 2.73 C4.53 1.8 2.35 1.36 0 1 C0 0.67 0 0.34 0 0 Z " fill="#FEFACE" transform="translate(223,96)"/><path d="M0 0 C0.66 0 1.32 0 2 0 C3.35 6.4 3.35 6.4 1.56 9.44 C1.05 9.95 0.53 10.47 0 11 C0.33 9.02 0.66 7.04 1 5 C0.34 4.67 -0.32 4.34 -1 4 C-0.67 2.68 -0.34 1.36 0 0 Z " fill="#116F8B" transform="translate(276,172)"/><path d="M0 0 C1.65 1.32 3.3 2.64 5 4 C3.75 6.88 2.78 8.48 0 10 C0.39 9.26 0.78 8.51 1.19 7.75 C1.59 6.39 1.59 6.39 2 5 C0.74 2.67 0.74 2.67 -1 1 C-0.67 0.67 -0.34 0.34 0 0 Z " fill="#DDF8FD" transform="translate(190,209)"/><path d="M0 0 C2.31 0.33 4.62 0.66 7 1 C7 1.99 7 2.98 7 4 C7.94 5.66 7.94 5.66 9 7 C1.89 4.79 1.89 4.79 0 3 C0 2.01 0 1.02 0 0 Z " fill="#F6C128" transform="translate(244,99)"/><path d="M0 0 C0.99 0 1.98 0 3 0 C2.67 2.64 2.34 5.28 2 8 C1.01 7.67 0.02 7.34 -1 7 C-0.67 4.69 -0.34 2.38 0 0 Z " fill="#F7C32B" transform="translate(302,224)"/><path d="M0 0 C0.66 0 1.32 0 2 0 C2.36 1.46 2.71 2.92 3.06 4.38 C3.26 5.19 3.46 6 3.66 6.84 C4 9 4 9 3 11 C2.49 9.73 2 8.46 1.5 7.19 C1.22 6.48 0.94 5.77 0.66 5.04 C0 3 0 3 0 0 Z " fill="#F7C329" transform="translate(105,249)"/><path d="M0 0 C-7.11 4.59 -7.11 4.59 -12 4 C-8.71 1.22 -4.25 -2.12 0 0 Z " fill="#F4CB4F" transform="translate(242,297)"/><path d="M0 0 C0 3.4 -0.52 4.07 -2.5 6.69 C-2.96 7.31 -3.43 7.93 -3.91 8.57 C-4.27 9.04 -4.63 9.52 -5 10 C-5.33 9.01 -5.66 8.02 -6 7 C-5.53 6.57 -5.05 6.13 -4.56 5.69 C-2.76 3.98 -2.76 3.98 -2 1 C-1.34 0.67 -0.68 0.34 0 0 Z " fill="#FEF9C9" transform="translate(287,256)"/><path d="M0 0 C0.66 0 1.32 0 2 0 C2.33 1.32 2.66 2.64 3 4 C1.12 5.06 1.12 5.06 -1 6 C-1.66 5.67 -2.32 5.34 -3 5 C-1.62 2.5 -1.62 2.5 0 0 Z " fill="#F9C837" transform="translate(291,251)"/><path d="M0 0 C-1.45 0.86 -2.91 1.72 -4.38 2.56 C-5.59 3.28 -5.59 3.28 -6.84 4 C-7.55 4.33 -8.26 4.66 -9 5 C-9.66 4.67 -10.32 4.34 -11 4 C-4.45 -1.48 -4.45 -1.48 0 0 Z " fill="#D7F4FC" transform="translate(161,241)"/><path d="M0 0 C0.33 0 0.66 0 1 0 C1.08 1.09 1.17 2.19 1.25 3.31 C1.65 6.25 1.8 6.81 4.06 8.94 C4.7 9.29 5.34 9.64 6 10 C4.33 10.04 2.67 10.04 1 10 C0 9 0 9 -0.1 6.93 C-0.09 6.11 -0.07 5.29 -0.06 4.44 C-0.05 3.61 -0.04 2.78 -0.04 1.93 C-0.02 1.3 -0.01 0.66 0 0 Z " fill="#2B6F81" transform="translate(260,188)"/><path d="M0 0 C-3.96 2.47 -3.96 2.47 -8 5 C-7 1 -7 1 -5.12 -0.31 C-3 -1 -3 -1 0 0 Z " fill="#DCF7FD" transform="translate(184,225)"/><path d="M0 0 C1.65 1.32 3.3 2.64 5 4 C3.35 4.33 1.7 4.66 0 5 C-0.33 4.34 -0.66 3.68 -1 3 C-0.67 2.01 -0.34 1.02 0 0 Z " fill="#0A6F93" transform="translate(262,191)"/><path d="M0 0 C0.99 0.33 1.98 0.66 3 1 C3 1.66 3 2.32 3 3 C3.99 3.33 4.98 3.66 6 4 C6 4.66 6 5.32 6 6 C3.38 4.95 2.21 4.35 0.75 1.88 C0.5 1.26 0.25 0.64 0 0 Z " fill="#EAC036" transform="translate(122,272)"/><path d="M0 0 C2.52 1.97 2.99 2.97 3.69 6.19 C3.79 7.12 3.89 8.04 4 9 C0.06 4.57 0.06 4.57 -0.25 1.69 C-0.13 0.85 -0.13 0.85 0 0 Z " fill="#F1C743" transform="translate(101,240)"/><path d="M0 0 C1.98 0 3.96 0 6 0 C6 0.99 6 1.98 6 3 C3.69 2.67 1.38 2.34 -1 2 C-0.67 1.34 -0.34 0.68 0 0 Z " fill="#106886" transform="translate(187,196)"/><path d="M0 0 C0.99 0.99 1.98 1.98 3 3 C2.67 3.99 2.34 4.98 2 6 C1.34 6 0.68 6 0 6 C-1.12 2.25 -1.12 2.25 0 0 Z " fill="#086E8C" transform="translate(196,210)"/><path d="M0 0 C1.32 0.66 2.64 1.32 4 2 C2.35 3.32 0.7 4.64 -1 6 C-0.67 4.02 -0.34 2.04 0 0 Z " fill="#F5BF24" transform="translate(124,118)"/><path d="M0 0 C-2.47 1.49 -2.47 1.49 -5 3 C-5.99 2.34 -6.98 1.68 -8 1 C-2.25 -1.12 -2.25 -1.12 0 0 Z " fill="#DEF6FC" transform="translate(168,283)"/><path d="M0 0 C0 0.99 0 1.98 0 3 C-0.99 3.33 -1.98 3.66 -3 4 C-3.33 4.66 -3.66 5.32 -4 6 C-4 5.01 -4 4.02 -4 3 C-2 1.31 -2 1.31 0 0 Z " fill="#DDF7FD" transform="translate(221,247)"/><path d="M0 0 C0.66 0.33 1.32 0.66 2 1 C1.01 2.65 0.02 4.3 -1 6 C-1.62 4.12 -1.62 4.12 -2 2 C-1.34 1.34 -0.68 0.68 0 0 Z " fill="#FEF5C1" transform="translate(108,144)"/><path d="M0 0 C1.98 0 3.96 0 6 0 C4.68 1.32 3.36 2.64 2 4 C1.34 2.68 0.68 1.36 0 0 Z " fill="#F6C023" transform="translate(117,124)"/><path d="M0 0 C3.69 0.62 3.69 0.62 5.25 2.56 C5.5 3.04 5.75 3.51 6 4 C4.02 3.34 2.04 2.68 0 2 C0 1.34 0 0.68 0 0 Z " fill="#FEF4BB" transform="translate(251,106)"/><path d="M0 0 C2.31 0 4.62 0 7 0 C7 0.99 7 1.98 7 3 C4.69 2.34 2.38 1.68 0 1 C0 0.67 0 0.34 0 0 Z " fill="#F6D05A" transform="translate(237,99)"/><path d="M0 0 C0.99 0.33 1.98 0.66 3 1 C1.02 2.32 -0.96 3.64 -3 5 C-1.12 1.12 -1.12 1.12 0 0 Z " fill="#FEF4B8" transform="translate(269,276)"/><path d="M0 0 C0.66 0.33 1.32 0.66 2 1 C0.35 2.65 -1.3 4.3 -3 6 C-2.67 4.68 -2.34 3.36 -2 2 C-1.34 2 -0.68 2 0 2 C0 1.34 0 0.68 0 0 Z " fill="#FEF1B0" transform="translate(279,266)"/><path d="M0 0 C3.27 0.56 4.83 1.5 7 4 C2.32 3.38 2.32 3.38 0.69 1.44 C0.46 0.96 0.23 0.49 0 0 Z " fill="#29718C" transform="translate(232,252)"/><path d="M0 0 C2.12 0.94 2.12 0.94 4 2 C2.02 2.33 0.04 2.66 -2 3 C-2 2.34 -2 1.68 -2 1 C-1.34 0.67 -0.68 0.34 0 0 Z " fill="#126A8C" transform="translate(154,244)"/><path d="M0 0 C0.66 0.33 1.32 0.66 2 1 C1.01 2.48 1.01 2.48 0 4 C-1.32 3.67 -2.64 3.34 -4 3 C-2.68 2.01 -1.36 1.02 0 0 Z " fill="#FDEBA0" transform="translate(142,108)"/><path d="M0 0 C0.99 0 1.98 0 3 0 C3 0.66 3 1.32 3 2 C2.34 2 1.68 2 1 2 C1 2.66 1 3.32 1 4 C0.34 4 -0.32 4 -1 4 C-0.67 2.68 -0.34 1.36 0 0 Z " fill="#FDEBA0" transform="translate(273,272)"/><path d="M0 0 C3.88 1.75 3.88 1.75 5 4 C2.52 3.01 2.52 3.01 0 2 C0 1.34 0 0.68 0 0 Z " fill="#276B7A" transform="translate(275,125)"/><path d="M0 0 C2.47 0.5 2.47 0.5 5 1 C3.68 1.99 2.36 2.98 1 4 C0.67 2.68 0.34 1.36 0 0 Z " fill="#F7C22A" transform="translate(131,112)"/><path d="M0 0 C0.66 0.33 1.32 0.66 2 1 C0.68 1.99 -0.64 2.98 -2 4 C-2 3.01 -2 2.02 -2 1 C-1.34 0.67 -0.68 0.34 0 0 Z " fill="#F5C026" transform="translate(255,289)"/><path d="M0 0 C1.32 0.33 2.64 0.66 4 1 C2.02 1.99 2.02 1.99 0 3 C0 2.01 0 1.02 0 0 Z " fill="#0D6A81" transform="translate(126,255)"/><path d="M0 0 C0.99 0 1.98 0 3 0 C2.34 1.32 1.68 2.64 1 4 C0.67 2.68 0.34 1.36 0 0 Z " fill="#25718E" transform="translate(220,244)"/><path d="M0 0 C1.98 0.5 1.98 0.5 4 1 C2.02 1.99 2.02 1.99 0 3 C0 2.01 0 1.02 0 0 Z " fill="#F6C22C" transform="translate(128,116)"/><path d="M0 0 C0.99 0.33 1.98 0.66 3 1 C1.02 1.99 1.02 1.99 -1 3 C-0.67 2.01 -0.34 1.02 0 0 Z " fill="#FEF8C4" transform="translate(257,285)"/><path d="M0 0 C0.99 0 1.98 0 3 0 C2.67 0.99 2.34 1.98 2 3 C1.34 3 0.68 3 0 3 C0 2.01 0 1.02 0 0 Z " fill="#18647E" transform="translate(267,191)"/><path d="M0 0 C0.66 0.33 1.32 0.66 2 1 C1.67 1.99 1.34 2.98 1 4 C0.34 3.34 -0.32 2.68 -1 2 C-0.67 1.34 -0.34 0.68 0 0 Z " fill="#0E6786" transform="translate(196,210)"/><path d="M0 0 C0.66 0.99 1.32 1.98 2 3 C1.01 3.33 0.02 3.66 -1 4 C-0.67 2.68 -0.34 1.36 0 0 Z " fill="#156583" transform="translate(285,138)"/><path d="M0 0 C-0.33 0.99 -0.66 1.98 -1 3 C-1.99 2.34 -2.98 1.68 -4 1 C-2 0 -2 0 0 0 Z " fill="#FDEEA9" transform="translate(148,106)"/><path d="M0 0 C0.66 0.33 1.32 0.66 2 1 C2 1.66 2 2.32 2 3 C1.01 2.67 0.02 2.34 -1 2 C-0.67 1.34 -0.34 0.68 0 0 Z " fill="#E6FDFF" transform="translate(134,117)"/></svg>