<svg xmlns="http://www.w3.org/2000/svg" width="640" height="640" viewBox="0 0 640 640"><path d="M0 0 C1.46 -0 2.92 -0.01 4.38 -0.02 C8.32 -0.03 12.26 -0.03 16.21 -0.03 C19.51 -0.03 22.81 -0.03 26.11 -0.04 C33.91 -0.05 41.71 -0.05 49.51 -0.04 C57.52 -0.03 65.54 -0.05 73.56 -0.07 C80.47 -0.09 87.37 -0.09 94.28 -0.09 C98.4 -0.09 102.51 -0.09 106.63 -0.1 C110.5 -0.12 114.37 -0.11 118.25 -0.1 C119.66 -0.1 121.07 -0.1 122.48 -0.11 C135.96 -0.18 147.65 1.55 158.4 10.27 C166.63 18.52 169.9 27.84 169.93 39.37 C169.93 40.66 169.92 41.95 169.91 43.24 C169.91 44.64 169.92 46.03 169.93 47.43 C169.94 51.24 169.93 55.05 169.92 58.86 C169.91 62.98 169.93 67.1 169.94 71.22 C169.96 79.29 169.95 87.35 169.94 95.41 C169.93 101.96 169.93 108.52 169.93 115.07 C169.94 116.01 169.94 116.94 169.94 117.9 C169.94 119.8 169.94 121.7 169.94 123.59 C169.95 141.37 169.94 159.15 169.92 176.93 C169.9 192.17 169.9 207.42 169.92 222.66 C169.94 240.38 169.95 258.09 169.94 275.81 C169.94 277.7 169.94 279.59 169.93 281.48 C169.93 282.87 169.93 282.87 169.93 284.3 C169.93 290.84 169.93 297.38 169.94 303.93 C169.96 311.9 169.95 319.88 169.93 327.86 C169.92 331.93 169.92 336 169.93 340.06 C169.94 343.79 169.94 347.52 169.91 351.25 C169.91 352.59 169.91 353.94 169.92 355.28 C170 367.64 167.35 376.18 158.74 385.08 C147.85 395.3 133.64 395.73 119.43 395.66 C117.99 395.67 116.55 395.67 115.11 395.68 C111.25 395.69 107.39 395.69 103.52 395.68 C99.45 395.67 95.38 395.68 91.31 395.68 C84.48 395.69 77.65 395.68 70.82 395.67 C62.96 395.65 55.1 395.65 47.23 395.67 C40.45 395.68 33.66 395.69 26.87 395.68 C22.83 395.67 18.79 395.67 14.75 395.68 C10.96 395.69 7.16 395.69 3.36 395.67 C1.98 395.66 0.59 395.67 -0.79 395.67 C-12.18 395.72 -25.7 395.42 -34.6 387.27 C-34.6 386.61 -34.6 385.95 -34.6 385.27 C-35.2 385.04 -35.79 384.81 -36.41 384.57 C-39.15 382.95 -40.12 381.32 -41.73 378.59 C-42.47 377.34 -42.47 377.34 -43.23 376.08 C-46.97 368.41 -46.89 361.09 -46.86 352.74 C-46.86 351.36 -46.87 349.97 -46.87 348.59 C-46.88 344.79 -46.88 341 -46.88 337.2 C-46.87 333.1 -46.88 329.01 -46.89 324.91 C-46.9 316.89 -46.91 308.86 -46.9 300.84 C-46.9 294.31 -46.9 287.79 -46.91 281.27 C-46.91 280.34 -46.91 279.41 -46.91 278.45 C-46.91 276.57 -46.91 274.68 -46.91 272.79 C-46.92 255.1 -46.92 237.41 -46.92 219.72 C-46.91 203.54 -46.92 187.36 -46.94 171.18 C-46.96 154.56 -46.97 137.94 -46.96 121.33 C-46.96 112 -46.97 102.67 -46.98 93.34 C-46.99 85.4 -46.99 77.46 -46.98 69.52 C-46.97 65.47 -46.97 61.42 -46.99 57.37 C-47 53.66 -46.99 49.95 -46.98 46.24 C-46.98 44.9 -46.98 43.56 -46.99 42.22 C-47.06 29.76 -45.23 20.59 -36.6 11.27 C-26.05 0.8 -14.17 -0.03 0 0 Z M-25.98 22.15 C-26.44 22.62 -26.9 23.09 -27.37 23.58 C-30.24 27.54 -30.85 31.3 -30.86 36.1 C-30.86 36.67 -30.86 37.24 -30.87 37.83 C-30.87 39.74 -30.87 41.65 -30.86 43.55 C-30.86 44.94 -30.87 46.32 -30.87 47.7 C-30.88 51.5 -30.88 55.29 -30.88 59.09 C-30.87 63.18 -30.88 67.28 -30.89 71.37 C-30.9 79.4 -30.91 87.42 -30.9 95.44 C-30.9 101.96 -30.9 108.48 -30.91 115 C-30.91 115.92 -30.91 116.85 -30.91 117.81 C-30.91 119.69 -30.91 121.57 -30.91 123.46 C-30.92 141.13 -30.92 158.8 -30.92 176.47 C-30.91 192.64 -30.92 208.82 -30.94 224.99 C-30.96 241.59 -30.97 258.19 -30.96 274.79 C-30.96 284.11 -30.97 293.43 -30.98 302.75 C-30.99 310.69 -30.99 318.62 -30.98 326.56 C-30.97 330.61 -30.97 334.66 -30.99 338.71 C-31 342.41 -30.99 346.12 -30.98 349.83 C-30.98 351.17 -30.98 352.51 -30.99 353.85 C-31.03 361.25 -30.98 366.75 -26.43 372.85 C-25.86 373.4 -25.86 373.4 -25.29 373.96 C-24.92 374.34 -24.55 374.71 -24.18 375.1 C-19.53 378.57 -15.8 379.65 -10.01 379.66 C-9.37 379.67 -8.74 379.67 -8.08 379.68 C-5.96 379.69 -3.85 379.69 -1.73 379.68 C-0.2 379.68 1.32 379.69 2.85 379.7 C6.98 379.72 11.11 379.72 15.25 379.71 C18.7 379.71 22.15 379.71 25.61 379.72 C33.76 379.73 41.91 379.73 50.06 379.72 C58.46 379.71 66.86 379.72 75.26 379.75 C82.48 379.77 89.7 379.78 96.92 379.77 C101.23 379.77 105.54 379.77 109.85 379.79 C113.9 379.8 117.95 379.8 122.01 379.78 C123.49 379.78 124.97 379.78 126.46 379.79 C137.55 379.96 137.55 379.96 147.4 375.27 C149.78 372.84 149.78 372.84 151.4 370.27 C151.76 369.85 152.12 369.42 152.48 368.97 C153.81 366.51 153.65 364.45 153.66 361.66 C153.66 360.81 153.66 360.81 153.67 359.94 C153.68 358.02 153.68 356.1 153.67 354.17 C153.68 352.79 153.68 351.4 153.69 350.01 C153.7 346.19 153.71 342.37 153.7 338.55 C153.71 334.44 153.72 330.32 153.73 326.2 C153.75 317.2 153.76 308.19 153.77 299.18 C153.77 293.56 153.78 287.94 153.78 282.32 C153.8 266.75 153.82 251.19 153.82 235.62 C153.82 234.63 153.82 233.63 153.82 232.61 C153.82 230.58 153.82 228.56 153.82 226.54 C153.82 225.54 153.82 224.54 153.82 223.51 C153.82 222.5 153.83 221.5 153.83 220.46 C153.83 204.2 153.86 187.93 153.89 171.66 C153.93 154.96 153.95 138.27 153.95 121.57 C153.95 112.19 153.96 102.82 153.99 93.44 C154.01 85.45 154.02 77.47 154.01 69.48 C154 65.41 154 61.34 154.02 57.26 C154.04 53.53 154.04 49.8 154.02 46.07 C154.02 44.72 154.02 43.37 154.03 42.03 C154.11 34.37 153.78 28.19 148.4 22.27 C142.4 16.97 137.29 16.11 129.35 16.18 C128.36 16.18 128.36 16.18 127.35 16.18 C125.26 16.19 123.18 16.2 121.09 16.21 C119.66 16.22 118.24 16.22 116.82 16.23 C113.35 16.24 109.87 16.25 106.4 16.27 C106.35 16.89 106.29 17.51 106.24 18.14 C106.16 18.95 106.08 19.76 106 20.59 C105.92 21.39 105.85 22.19 105.77 23.02 C105.29 25.91 104.06 27.89 102.4 30.27 C102.4 30.93 102.4 31.59 102.4 32.27 C94.46 36.72 86.49 36.59 77.65 36.58 C76.31 36.58 74.98 36.58 73.64 36.59 C70.84 36.6 68.04 36.6 65.25 36.59 C61.68 36.58 58.12 36.6 54.55 36.62 C51.79 36.64 49.03 36.64 46.27 36.64 C44.96 36.64 43.64 36.64 42.33 36.65 C33.73 36.71 26.8 36.24 19.52 31.34 C17.02 28.63 16.8 25.65 16.27 22.08 C16.02 20.45 16.02 20.45 15.76 18.79 C15.64 17.96 15.52 17.13 15.4 16.27 C11.27 16.2 7.15 16.15 3.02 16.11 C1.62 16.09 0.22 16.07 -1.18 16.05 C-14.71 15.54 -14.71 15.54 -25.98 22.15 Z M36.4 16.27 C36.73 17.92 37.06 19.57 37.4 21.27 C52.91 21.27 68.42 21.27 84.4 21.27 C84.73 19.95 85.06 18.63 85.4 17.27 C84.41 16.06 84.41 16.06 82.46 16.15 C81.61 16.16 80.76 16.16 79.88 16.16 C78.92 16.16 77.96 16.16 76.97 16.16 C75.4 16.17 75.4 16.17 73.8 16.18 C72.74 16.18 71.67 16.18 70.58 16.18 C67.16 16.19 63.75 16.2 60.34 16.21 C58.03 16.22 55.72 16.22 53.41 16.23 C47.74 16.24 42.07 16.25 36.4 16.27 Z " fill="#E11F27" transform="translate(258.600830078125,122.725341796875)"/><path d="M0 0 C1.34 0.01 1.34 0.01 2.71 0.01 C5.57 0.04 8.42 0.09 11.27 0.15 C13.2 0.16 15.13 0.18 17.05 0.19 C20.58 0.23 24.1 0.26 27.62 0.33 C28.33 0.34 29.04 0.36 29.76 0.37 C31.65 0.52 31.65 0.52 34.65 1.52 C34.65 2.18 34.65 2.84 34.65 3.52 C35.31 3.52 35.97 3.52 36.65 3.52 C37.99 9.77 37.99 9.77 36.34 13.4 C34.65 15.52 34.65 15.52 32.65 16.52 C31.32 16.64 29.98 16.69 28.65 16.72 C27.41 16.74 27.41 16.74 26.15 16.76 C22.37 16.81 18.6 16.85 14.83 16.87 C12.84 16.89 10.85 16.92 8.86 16.96 C5.99 17.01 3.12 17.03 0.25 17.05 C-0.63 17.07 -1.52 17.09 -2.43 17.12 C-6.52 17.1 -9.35 17.08 -12.41 14.18 C-14.35 11.52 -14.35 11.52 -14.98 8.52 C-14.32 5.35 -13.37 3.78 -11.02 1.57 C-7.65 -0.54 -3.85 -0.1 0 0 Z " fill="#E01E25" transform="translate(308.3515625,470.4765625)"/></svg>