<svg xmlns="http://www.w3.org/2000/svg" width="640" height="640" viewBox="0 0 640 640"><path d="M0 0 C1.09 -0.01 2.17 -0.01 3.29 -0.02 C6.24 -0.04 9.2 -0.04 12.15 -0.03 C14.63 -0.03 17.1 -0.03 19.58 -0.04 C25.43 -0.05 31.28 -0.05 37.13 -0.04 C43.14 -0.03 49.15 -0.04 55.16 -0.07 C60.34 -0.09 65.53 -0.1 70.71 -0.09 C73.8 -0.09 76.88 -0.09 79.96 -0.11 C83.41 -0.13 86.86 -0.11 90.3 -0.1 C91.3 -0.11 92.31 -0.12 93.34 -0.13 C103.05 -0.03 112.02 2.47 119.07 9.42 C127.65 19.39 126.49 30.45 126.43 42.94 C126.43 45.14 126.44 47.33 126.45 49.52 C126.47 54.84 126.47 60.16 126.46 65.48 C126.44 69.8 126.44 74.13 126.45 78.45 C126.45 79.07 126.45 79.69 126.45 80.32 C126.45 81.58 126.45 82.83 126.46 84.09 C126.47 95.83 126.45 107.57 126.43 119.32 C126.4 129.38 126.41 139.44 126.43 149.5 C126.46 161.2 126.47 172.9 126.45 184.61 C126.45 185.86 126.45 187.11 126.45 188.36 C126.45 188.97 126.45 189.59 126.45 190.22 C126.44 194.54 126.45 198.85 126.46 203.17 C126.48 208.99 126.47 214.8 126.44 220.62 C126.43 222.75 126.43 224.88 126.44 227.01 C126.54 248.57 126.54 248.57 118.57 258.03 C117.5 258.92 117.5 258.92 116.4 259.84 C115.7 260.46 114.99 261.08 114.26 261.71 C107.31 266.45 101.54 266.85 93.31 266.82 C92.18 266.83 91.04 266.84 89.87 266.85 C86.77 266.87 83.67 266.87 80.57 266.87 C77.98 266.87 75.38 266.88 72.78 266.89 C66.65 266.91 60.52 266.91 54.39 266.91 C48.08 266.9 41.78 266.92 35.48 266.96 C30.04 266.99 24.61 267 19.18 267 C15.95 266.99 12.71 267 9.48 267.02 C5.86 267.05 2.25 267.04 -1.36 267.02 C-2.42 267.03 -3.48 267.05 -4.57 267.06 C-14.42 266.95 -21.7 263.47 -28.65 256.54 C-33.32 250.19 -34.81 244.74 -34.73 236.92 C-34.73 235.99 -34.74 235.07 -34.75 234.12 C-34.76 231.04 -34.75 227.96 -34.74 224.88 C-34.74 222.66 -34.75 220.45 -34.76 218.23 C-34.78 212.85 -34.77 207.47 -34.76 202.09 C-34.75 197.71 -34.75 193.34 -34.76 188.96 C-34.76 188.34 -34.76 187.72 -34.76 187.07 C-34.76 185.81 -34.76 184.54 -34.76 183.27 C-34.77 171.4 -34.76 159.53 -34.74 147.65 C-34.72 137.48 -34.72 127.3 -34.74 117.13 C-34.76 105.29 -34.77 93.46 -34.76 81.63 C-34.76 80.37 -34.76 79.11 -34.76 77.84 C-34.75 77.22 -34.75 76.6 -34.75 75.96 C-34.75 71.59 -34.76 67.23 -34.77 62.86 C-34.78 56.98 -34.77 51.09 -34.75 45.21 C-34.74 43.05 -34.74 40.89 -34.75 38.74 C-34.76 35.79 -34.75 32.84 -34.73 29.89 C-34.74 29.04 -34.75 28.19 -34.76 27.31 C-34.66 20.38 -32.65 14.7 -27.78 9.65 C-26.51 8.54 -26.51 8.54 -25.22 7.4 C-24.48 6.7 -23.74 6 -22.97 5.28 C-15.87 0.44 -8.37 -0.04 0 0 Z M-17.22 19.4 C-20.05 24.88 -20.65 29.18 -20.6 35.29 C-20.61 36.16 -20.61 37.03 -20.62 37.92 C-20.63 40.83 -20.62 43.73 -20.61 46.64 C-20.61 48.73 -20.62 50.82 -20.62 52.9 C-20.64 57.98 -20.63 63.06 -20.63 68.13 C-20.62 72.26 -20.62 76.38 -20.62 80.51 C-20.62 81.39 -20.62 81.39 -20.62 82.29 C-20.62 83.49 -20.62 84.68 -20.63 85.88 C-20.63 97.07 -20.62 108.27 -20.61 119.46 C-20.6 129.06 -20.6 138.66 -20.61 148.26 C-20.63 159.41 -20.63 170.57 -20.62 181.73 C-20.62 182.92 -20.62 184.11 -20.62 185.3 C-20.62 185.88 -20.62 186.47 -20.62 187.07 C-20.62 191.19 -20.62 195.31 -20.63 199.43 C-20.64 204.98 -20.63 210.53 -20.61 216.08 C-20.61 218.11 -20.61 220.15 -20.62 222.18 C-20.63 224.96 -20.62 227.74 -20.6 230.52 C-20.61 231.33 -20.61 232.13 -20.62 232.96 C-20.56 239.18 -19.33 243.9 -15.22 248.78 C-12.13 251.29 -9.5 251.53 -5.66 251.56 C-4.73 251.57 -3.79 251.58 -2.83 251.6 C-1.8 251.6 -0.78 251.61 0.27 251.61 C1.89 251.63 1.89 251.63 3.55 251.64 C7.13 251.67 10.71 251.69 14.29 251.71 C15.21 251.72 15.21 251.72 16.14 251.72 C21.9 251.75 27.66 251.78 33.42 251.8 C40.78 251.82 48.13 251.86 55.48 251.93 C60.66 251.98 65.84 252 71.02 252.01 C74.11 252.01 77.19 252.03 80.28 252.07 C83.74 252.11 87.19 252.11 90.64 252.1 C91.65 252.12 92.67 252.14 93.71 252.16 C100.64 252.09 104.88 250.4 109.78 245.4 C110.87 243.22 110.91 242.15 110.91 239.74 C110.92 238.97 110.92 238.2 110.92 237.41 C110.92 236.56 110.92 235.72 110.92 234.85 C110.92 233.95 110.93 233.05 110.93 232.13 C110.94 229.11 110.94 226.08 110.94 223.06 C110.95 220.9 110.95 218.74 110.96 216.58 C110.97 210.7 110.98 204.82 110.98 198.94 C110.98 195.27 110.99 191.6 110.99 187.93 C111 177.77 111.01 167.61 111.02 157.45 C111.02 156.79 111.02 156.14 111.02 155.47 C111.02 154.82 111.02 154.17 111.02 153.5 C111.02 152.18 111.02 150.86 111.02 149.53 C111.02 148.88 111.02 148.22 111.02 147.55 C111.02 136.93 111.04 126.31 111.07 115.68 C111.09 104.78 111.1 93.88 111.1 82.98 C111.1 76.86 111.11 70.74 111.13 64.61 C111.14 58.86 111.15 53.1 111.14 47.34 C111.14 45.23 111.14 43.11 111.15 41 C111.16 38.11 111.16 35.23 111.15 32.34 C111.16 31.5 111.16 30.66 111.17 29.8 C111.13 25.16 110.74 22.19 107.78 18.4 C102.48 14.2 96.79 13.88 90.28 14.15 C89.46 14.17 88.63 14.19 87.79 14.21 C85.78 14.26 83.78 14.32 81.78 14.4 C81.68 15 81.58 15.59 81.48 16.2 C80.53 21.24 79.58 24.72 75.78 28.4 C72.66 30.32 70.28 30.66 66.65 30.69 C65.63 30.71 64.6 30.72 63.55 30.73 C61.91 30.74 61.91 30.74 60.23 30.74 C58.52 30.75 58.52 30.75 56.79 30.76 C54.39 30.77 51.99 30.78 49.59 30.77 C46.53 30.77 43.47 30.8 40.41 30.84 C37.47 30.86 34.54 30.86 31.6 30.86 C29.96 30.89 29.96 30.89 28.29 30.91 C22.14 30.87 18.44 30.55 13.78 26.4 C11.84 23.82 11.61 21.4 11.24 18.26 C11.15 17.54 11.06 16.82 10.97 16.07 C10.91 15.52 10.85 14.97 10.78 14.4 C7.61 14.26 4.45 14.17 1.28 14.09 C0.39 14.05 -0.49 14.01 -1.41 13.96 C-7.62 13.85 -12.79 14.73 -17.22 19.4 Z M25.78 14.4 C25.45 15.39 25.12 16.38 24.78 17.4 C27.06 19.16 28.51 19.65 31.38 19.65 C32.44 19.65 32.44 19.65 33.53 19.66 C34.29 19.65 35.06 19.64 35.84 19.63 C36.63 19.63 37.42 19.63 38.23 19.63 C39.89 19.63 41.56 19.62 43.22 19.61 C45.77 19.59 48.32 19.59 50.87 19.59 C52.48 19.58 54.1 19.58 55.72 19.57 C56.48 19.57 57.24 19.57 58.03 19.57 C59.09 19.56 59.09 19.56 60.18 19.55 C61.12 19.54 61.12 19.54 62.07 19.54 C64.03 19.45 64.03 19.45 66.78 18.4 C66.28 16.42 66.28 16.42 65.78 14.4 C52.58 14.4 39.38 14.4 25.78 14.4 Z " fill="#25211C" transform="translate(274.22021484375,153.595947265625)"/><path d="M0 0 C1.54 -0 1.54 -0 3.12 -0 C5.29 -0 7.46 0.01 9.63 0.03 C12.96 0.06 16.28 0.05 19.61 0.04 C21.72 0.04 23.83 0.05 25.94 0.06 C26.93 0.06 27.93 0.06 28.95 0.05 C29.88 0.07 30.81 0.08 31.76 0.09 C32.58 0.1 33.39 0.1 34.23 0.11 C37.03 0.59 38.4 1.57 40.47 3.5 C41.53 6.37 41.53 6.37 41.47 9.5 C39.31 12.61 37.98 14.19 34.23 14.96 C31.42 15.14 28.65 15.16 25.84 15.12 C24.81 15.13 23.79 15.13 22.73 15.13 C20.56 15.13 18.4 15.12 16.23 15.09 C12.91 15.06 9.6 15.07 6.28 15.09 C4.18 15.08 2.07 15.08 -0.04 15.06 C-1.03 15.07 -2.02 15.07 -3.04 15.08 C-9.87 14.96 -9.87 14.96 -13.16 12.65 C-15.05 9.69 -15.11 7.95 -14.53 4.5 C-11.05 -0.97 -5.82 -0.07 0 0 Z " fill="#26221D" transform="translate(306.53125,379.50390625)"/><path d="M0 0 C0 0.66 0 1.32 0 2 C-1.57 3.55 -1.57 3.55 -3.69 5.31 C-6.95 8.08 -10.02 10.93 -13 14 C-12.59 9.25 -10.48 6.98 -7 4 C-6.55 3.6 -6.1 3.21 -5.63 2.8 C-2.31 0 -2.31 0 0 0 Z " fill="#1D1913" transform="translate(256,157)"/></svg>