<svg xmlns="http://www.w3.org/2000/svg" width="640" height="360" viewBox="0 0 640 360"><path fill="rgb(0,78,255)" stroke="rgb(0,78,255)" stroke-width="0.5" opacity="1" d="M 525 115 L 550.5 115 Q 551.4 114.9 551 118.5 L 549 122.5 L 549 127.5 L 547 132.5 L 547 137.5 L 544 149.5 L 545.5 149 L 559.5 143 L 574.5 142 L 588.5 147 L 595 153.5 L 599 162.5 L 599 179.5 Q 594.6 199.6 580.5 210 L 569.5 216 Q 564.5 215.5 562.5 218 L 543.5 218 L 534.5 214 L 530.5 210 L 526.5 217 L 504.5 217 L 504 215.5 L 507 205.5 L 507 200.5 L 509 196.5 L 509 191.5 L 511 186.5 L 512 176.5 Q 514.5 174.5 514 169.5 L 521.5 161 L 527 159.5 L 520 154.5 Q 517.5 151 519 143.5 L 520 142.5 L 521 132.5 L 523 127.5 L 523 122.5 L 525 115 Z M 557 163 L 550 165 L 545 168 L 540 174 L 537 183 L 537 188 L 540 194 L 547 197 L 557 197 L 564 194 Q 571 189 573 179 Q 574 172 571 170 L 567 165 L 561 163 L 557 163 Z "/><path fill="rgb(0,78,255)" stroke="rgb(0,78,255)" stroke-width="0.5" opacity="1" d="M 82.5 142 L 94.5 142 L 102.5 144 L 112 150.5 L 117 158.5 Q 116.5 163.5 119 165.5 L 119 175.5 L 114 192.5 Q 109.5 201.1 102.5 207 L 99.5 209 L 94.5 213 L 80.5 218 L 62.5 218 Q 61.1 215.4 56.5 216 L 50 212 L 46 234.5 L 41.5 241 L 35.5 244 L 19 244 L 26 204.5 Q 27.6 197.6 33.5 195 L 38 193.5 Q 33.3 193.7 32 190.5 Q 29.5 187 31 179.5 L 39 144 L 60.5 144 Q 61.8 144.3 61 150.5 L 63.5 149 L 73.5 144 L 77.5 144 L 82.5 142 Z M 75 163 L 64 168 Q 59 172 57 179 L 57 190 L 58 192 Q 61 196 67 197 L 76 197 L 83 194 L 89 188 L 92 179 L 91 171 L 89 167 L 81 163 L 75 163 Z "/><path fill="rgb(0,78,255)" stroke="rgb(0,78,255)" stroke-width="0.5" opacity="1" d="M 162.5 142 L 177.5 142 Q 178.5 144 182.5 143 L 190.5 146 L 197 152.5 L 199 156.5 Q 198 162 200 164.5 L 199 165.5 L 199 173.5 L 197 177.5 L 197 182.5 L 195 187.5 L 195 192.5 L 192 202.5 L 192 207.5 Q 189.3 211.1 190 217 L 167 217 L 167 209.5 L 162.5 213 L 150.5 218 L 135.5 218 Q 127.2 215.9 123 209.5 L 121 203.5 L 121 198.5 L 125 187.5 L 133.5 179 L 143.5 174 L 153.5 173 L 154.5 172 L 165.5 172 L 166.5 171 L 173 171 Q 174.5 164.7 170.5 163 L 159.5 163 L 154 167.5 L 153.5 169 L 129.5 169 L 130 167.5 Q 129.5 162.5 132 160.5 L 141.5 150 L 153.5 144 L 157.5 144 L 162.5 142 Z M 163 187 L 162 188 Q 155 187 152 189 L 148 194 L 151 199 L 158 199 L 163 197 L 169 190 L 169 187 L 163 187 Z "/><path fill="rgb(0,78,255)" stroke="rgb(0,78,255)" stroke-width="0.5" opacity="1" d="M 342.5 142 L 352.5 142 L 357.5 144 L 364 149.5 L 365.5 152 L 377.5 144 Q 382.5 144.5 384.5 142 L 396.5 142 Q 404.8 143.7 409 149.5 Q 413.9 156 412 169.5 L 407 188.5 L 405 203.5 L 403 209.5 L 400 214 L 392.5 217 L 376 217 L 377 207.5 L 379 202.5 L 379 197.5 L 381 193.5 L 381 188.5 L 385 172.5 L 385 168.5 L 381.5 164 L 376.5 163 L 368 169.5 L 364 184.5 L 364 189.5 L 362 194.5 L 361 204.5 L 358 217 L 332 216.5 L 333 215.5 L 333 210.5 L 335 205.5 L 336 195.5 L 338 190.5 L 338 185.5 L 340 181.5 L 340 176.5 L 342 168.5 L 338.5 164 L 333.5 163 Q 327.8 164.3 325 168.5 L 323 173.5 L 323 178.5 L 320 188.5 L 320 193.5 L 316 207.5 L 315 217 L 289.5 217 Q 288.5 217 289 212.5 L 292 202.5 L 292 197.5 L 294 192.5 L 294 187.5 L 297 177.5 L 297 172.5 L 299 168.5 L 299 163.5 L 301 158.5 L 301 153.5 Q 303.7 149.9 303 144 L 326.5 144 Q 327.6 144.2 327 149 L 328.5 149 L 331.5 146 L 342.5 142 Z "/><path fill="rgb(0,78,255)" stroke="rgb(0,78,255)" stroke-width="0.5" opacity="1" d="M 460.5 142 L 475.5 142 L 483.5 144 Q 492.8 147.2 498 154.5 Q 503.3 161.7 503 174.5 L 499 189.5 L 492 202 Q 489.3 200.9 490 203.5 Q 481.9 211.9 469.5 216 L 461.5 218 L 443.5 218 Q 441.5 215.5 436.5 216 L 427 211 L 427 209 Q 424.3 210.1 425 207.5 L 422 204.5 L 418 194.5 L 418 182.5 L 424 165.5 L 432.5 155 L 435.5 153 L 446.5 146 L 460.5 142 Z M 461 164 L 451 168 L 446 177 L 445 181 Q 444 187 446 192 L 453 196 L 462 196 L 470 192 L 475 183 Q 474 178 476 178 L 475 170 Q 472 163 461 164 Z "/><path fill="rgb(0,78,255)" stroke="rgb(0,78,255)" stroke-width="0.5" opacity="1" d="M 606 143 L 612 143 L 612 145 L 610 145 L 610 151 L 608 151 L 608 145.5 L 606 145 L 606 143 Z "/><path fill="rgb(0,78,255)" stroke="rgb(0,78,255)" stroke-width="0.5" opacity="1" d="M 613 143 Q 615.7 141.9 615 144.5 L 616 147 Q 618.7 148.1 618 145.5 L 619 143 L 621 143.5 L 621 151 Q 618.3 152.1 619 149.5 L 618 149.5 Q 618.8 151.8 616.5 151 Q 615.5 149 614.5 151 L 613 150.5 L 613 143 Z "/><path fill="rgb(0,78,255)" stroke="rgb(0,78,255)" stroke-width="0.5" opacity="1" d="M 216 144 L 241.5 144 Q 242.4 143.9 242 147.5 L 238 162.5 L 238 167.5 L 236 172.5 L 235 186.5 Q 237.4 191.6 245.5 191 L 249.5 190 L 254 186.5 L 258 176.5 L 258 171.5 L 260 167.5 L 260 162.5 L 262 157.5 L 262 152.5 L 264 144 L 289.5 144 Q 290.4 143.9 290 147.5 L 288 152.5 L 288 157.5 L 286 162.5 L 286 167.5 L 284 171.5 L 284 176.5 L 282 181.5 L 282 186.5 L 279 196.5 L 279 201.5 L 277 205.5 L 277 210.5 L 275 218.5 L 268 232 Q 265.3 230.9 266 233.5 Q 259.7 239.7 250.5 243 L 242.5 245 L 231.5 245 L 230.5 246 L 229.5 245 L 219.5 245 L 212.5 243 Q 205.7 240.3 202 234.5 L 199 226.5 L 199 219.5 L 200.5 218 L 224.5 218 L 227 224 L 229.5 225 L 240.5 225 L 247 222 L 249 218.5 L 251 207 L 242.5 211 Q 238.5 210 237.5 212 L 224.5 212 Q 216.7 210.3 212 205.5 L 208 197.5 L 208 182.5 L 210 177.5 L 210 172.5 L 212 167.5 L 212 162.5 L 214 157.5 L 216 144 Z "/></svg>