<svg xmlns="http://www.w3.org/2000/svg" width="500" height="168" viewBox="0 0 500 168"><path d="M0 0 C3.34 1.53 5.36 3.51 6.8 6.89 C7.38 8.81 7.38 8.81 8 12 C8.59 11.47 9.19 10.94 9.8 10.39 C19.97 1.72 29.83 -1.27 43.17 -0.21 C52.5 0.88 58.03 6.25 64 13 C64.56 12.47 65.11 11.94 65.69 11.39 C76.35 1.53 84.95 -0.67 99.1 -0.14 C105.89 0.35 112.11 3.29 117 8 C124.54 17.32 124.32 27.83 124.34 39.23 C124.34 40.7 124.35 42.18 124.36 43.66 C124.37 46.74 124.37 49.82 124.37 52.9 C124.37 56.84 124.4 60.78 124.43 64.71 C124.45 67.76 124.46 70.8 124.46 73.85 C124.46 75.3 124.47 76.75 124.48 78.2 C124.5 80.23 124.5 82.26 124.49 84.3 C124.49 85.45 124.49 86.6 124.49 87.79 C123.75 92.65 121.56 95.7 117.75 98.88 C113.54 100.6 109.58 100.97 105.26 99.34 C101.84 97.37 100.08 94.96 98.6 91.28 C97.43 86.85 97.58 82.32 97.59 77.76 C97.59 75.87 97.58 73.99 97.56 72.1 C97.52 68.09 97.51 64.07 97.5 60.06 C97.49 55.41 97.47 50.76 97.42 46.11 C97.41 44.27 97.41 42.42 97.42 40.57 C97.37 31.39 97.37 31.39 94 23 C90.56 20.18 87.02 20.6 82.73 20.68 C77.68 21.27 75.39 23.68 71.75 27.12 C67.38 34.31 67.71 43.28 67.69 51.45 C67.67 53.62 67.64 55.79 67.62 57.96 C67.59 61.33 67.56 64.71 67.54 68.09 C67.52 71.37 67.48 74.66 67.44 77.95 C67.44 78.95 67.44 79.96 67.44 80.99 C67.36 86.98 67.16 92.85 62.65 97.35 C59.33 100.05 56.1 100.56 51.89 100.32 C48.05 99.67 45.76 97.87 43.25 95 C41.06 91.49 40.87 88.59 40.83 84.55 C40.81 83.44 40.8 82.32 40.79 81.17 C40.78 80.58 40.78 79.98 40.77 79.37 C40.75 77.5 40.73 75.63 40.71 73.76 C40.63 68.43 40.57 63.11 40.52 57.79 C40.49 54.53 40.45 51.27 40.4 48.02 C40.39 46.78 40.37 45.55 40.37 44.31 C40.52 32.86 40.52 32.86 36.27 22.53 C31.72 19.46 26.25 20.39 21 21 C18.16 21.72 16.71 22.61 15 25 C10.44 34.36 9.87 43.54 9.79 53.75 C9.76 55.85 9.73 57.94 9.7 60.03 C9.66 63.3 9.62 66.58 9.6 69.85 C9.57 73.03 9.53 76.2 9.48 79.38 C9.47 80.35 9.47 81.33 9.47 82.33 C9.35 88.68 8.63 92.82 4.5 97.81 C1.36 100.3 -2.1 100.34 -5.94 100.27 C-9.41 99.81 -11.56 98.46 -14 96 C-16.92 91.2 -17.44 86.57 -17.39 81.06 C-17.39 80.3 -17.4 79.54 -17.4 78.76 C-17.42 76.27 -17.41 73.77 -17.4 71.28 C-17.4 69.54 -17.4 67.79 -17.41 66.05 C-17.41 62.4 -17.41 58.75 -17.39 55.1 C-17.37 50.44 -17.38 45.78 -17.4 41.11 C-17.41 37.51 -17.41 33.91 -17.4 30.31 C-17.4 28.59 -17.4 26.88 -17.41 25.16 C-17.42 22.75 -17.4 20.34 -17.39 17.94 C-17.39 17.23 -17.4 16.53 -17.41 15.81 C-17.34 10.19 -16.15 5.18 -12.12 1.09 C-8.19 -0.93 -4.28 -0.71 0 0 Z " fill="#FF395A" transform="translate(199,27)"/><path d="M0 0 C3.46 1.62 4.6 2.95 5.96 6.49 C6.73 8.98 7.4 11.46 8 14 C8.46 13.48 8.92 12.96 9.4 12.43 C16 5.37 23.65 0.29 33.5 -0.24 C45.79 -0.57 55.66 1.45 65 10 C75.91 20.37 79.88 34.95 80.31 49.69 C80.25 51.13 80.14 52.57 80 54 C79.91 54.98 79.81 55.96 79.72 56.97 C78.03 70.57 73.59 82.7 62.87 91.81 C52.22 99.45 40.98 101.56 28.2 99.56 C19.78 97.47 13.98 92.02 8 86 C8 86.48 7.99 86.97 7.99 87.46 C7.95 92.53 7.88 97.59 7.79 102.65 C7.76 104.54 7.74 106.42 7.73 108.31 C7.71 111.03 7.66 113.75 7.61 116.47 C7.61 117.72 7.61 117.72 7.61 118.99 C7.47 124.68 6.34 129.31 3 134 C-0.48 136.83 -4.07 136.4 -8.4 136.31 C-11 136 -11 136 -13.56 134.38 C-17.44 127.97 -17.29 122 -17.27 114.67 C-17.28 113.54 -17.28 112.41 -17.29 111.24 C-17.3 108.15 -17.3 105.06 -17.3 101.96 C-17.3 99.38 -17.31 96.79 -17.31 94.2 C-17.32 88.1 -17.32 81.99 -17.32 75.89 C-17.31 69.6 -17.32 63.31 -17.34 57.02 C-17.36 51.62 -17.37 46.21 -17.36 40.8 C-17.36 37.57 -17.36 34.35 -17.38 31.12 C-17.39 27.52 -17.38 23.92 -17.37 20.33 C-17.38 18.73 -17.38 18.73 -17.4 17.1 C-17.36 11.56 -17.1 7.67 -14 3 C-9.88 -1.05 -5.46 -0.75 0 0 Z M13.25 28.07 C7.35 37.16 6.61 49.03 8.68 59.42 C10.87 67.83 14.11 73.95 21.69 78.44 C27.36 80.94 33.32 80.96 39.27 79.41 C46.41 76.45 50 69.88 52.88 63 C55.75 53.27 55.42 40.16 51 31 C48.11 25.84 44.78 21.98 39.27 19.62 C28.81 16.74 19.89 19.65 13.25 28.07 Z " fill="#FF395A" transform="translate(351,27)"/><path d="M0 0 C5.16 3.78 8.81 7.85 10.06 14.25 C10.28 17.8 9.65 20.19 7.43 22.99 C4.6 25.36 1.64 26.06 -2 26.19 C-7.08 25.5 -9.73 22.53 -12.94 18.75 C-17.27 13.65 -20.94 10.75 -27.67 9.82 C-33.61 9.55 -39.42 10.03 -44 14.19 C-45.21 16.59 -45.67 18.57 -45 21.19 C-42.26 24.35 -39.94 25.89 -36 27.23 C-35.03 27.56 -34.06 27.89 -33.06 28.23 C-29.08 29.48 -25.08 30.62 -21.06 31.72 C-7.16 35.54 4.26 38.92 13 51.19 C15.3 58.08 15.16 67.52 12.31 74.25 C7.56 83.08 1.3 88.07 -8.31 90.96 C-24.81 95.42 -42.51 94.79 -57.74 86.64 C-63.25 83.1 -67.9 78.48 -70 72.19 C-70.58 68.16 -71.15 64.06 -68.95 60.47 C-66.6 58.08 -64.38 56.22 -60.98 56.13 C-54.6 56.62 -54.6 56.62 -51.81 59.25 C-51.21 60.22 -50.62 61.19 -50 62.19 C-45.79 68.31 -42.26 72.77 -35 75.19 C-32.55 75.34 -30.14 75.42 -27.69 75.44 C-27.04 75.46 -26.38 75.48 -25.71 75.5 C-20.14 75.54 -16.35 74.23 -12.06 70.5 C-10.7 67.53 -10.58 65.44 -11.21 62.25 C-12.72 58.33 -16.36 56.91 -20 55.19 C-24.36 53.66 -28.79 52.44 -33.25 51.25 C-46.55 47.7 -60.55 43.69 -68 31.19 C-70.28 24.34 -70 16.38 -67 9.81 C-61.72 0.7 -54.05 -3.47 -44.18 -6.34 C-29.67 -9.47 -12.69 -7.7 0 0 Z " fill="#FF395A" transform="translate(70,33.8125)"/><path d="M0 0 C4.25 0.69 6.23 2.89 8.79 6.14 C10.57 12.57 7.54 19.58 5.35 25.58 C5.04 26.44 4.73 27.31 4.41 28.2 C0.88 37.99 -2.87 47.7 -6.65 57.39 C-7.4 59.3 -8.14 61.21 -8.88 63.12 C-10.01 66.03 -11.14 68.94 -12.28 71.85 C-14.41 77.34 -16.53 82.85 -18.63 88.36 C-19.88 91.64 -21.14 94.92 -22.39 98.2 C-22.97 99.72 -23.55 101.24 -24.13 102.76 C-33.79 128.4 -33.79 128.4 -45.24 134.23 C-50.99 136.71 -56.4 136.84 -62.59 136.77 C-63.54 136.78 -64.48 136.79 -65.46 136.8 C-71.26 136.78 -76.45 136.26 -81.59 133.39 C-83.96 130.65 -84.51 128.95 -85.03 125.39 C-84.48 121.67 -83.18 120.06 -80.59 117.39 C-78.35 116.27 -77.32 116.31 -74.85 116.4 C-74.11 116.42 -73.38 116.43 -72.62 116.45 C-71.07 116.49 -69.52 116.55 -67.97 116.61 C-67.23 116.62 -66.49 116.63 -65.73 116.65 C-65.05 116.67 -64.38 116.69 -63.69 116.72 C-60.67 116.25 -59.01 115.26 -56.59 113.39 C-55.2 111.14 -54.13 109.1 -53.08 106.7 C-52.75 105.97 -52.42 105.24 -52.08 104.49 C-46.54 92.05 -41.64 79.32 -36.63 66.67 C-35.23 63.12 -33.82 59.58 -32.41 56.04 C-31.99 55 -31.99 55 -31.57 53.93 C-29.38 48.42 -27.18 42.91 -24.98 37.4 C-23.39 33.4 -21.8 29.4 -20.23 25.4 C-19.23 22.88 -18.23 20.36 -17.22 17.85 C-16.76 16.68 -16.3 15.51 -15.84 14.33 C-15.21 12.73 -14.57 11.12 -13.92 9.52 C-13.57 8.62 -13.21 7.72 -12.84 6.8 C-9.67 0.7 -6.51 -0.27 0 0 Z " fill="#FF395A" transform="translate(165.58984375,24.609375)"/><path d="M0 0 C3.67 1.75 5.5 3.8 7.06 7.54 C8.38 11.67 8.26 15.74 8.23 20.03 C8.23 20.92 8.23 21.81 8.23 22.73 C8.23 25.65 8.21 28.57 8.2 31.49 C8.19 33.52 8.19 35.56 8.19 37.59 C8.18 42.92 8.16 48.26 8.14 53.6 C8.12 59.05 8.11 64.5 8.1 69.95 C8.08 80.63 8.04 91.32 8 102 C11.63 102 15.26 102 19 102 C18.71 104.19 18.42 106.38 18.12 108.56 C18.05 109.17 17.97 109.78 17.89 110.41 C17.29 114.75 16.28 118.81 15 123 C11.81 123.06 8.63 123.09 5.44 123.12 C4.09 123.15 4.09 123.15 2.72 123.18 C-3.55 123.22 -9.31 123.19 -14.38 119.06 C-16.8 115.98 -17.13 113.44 -17.14 109.65 C-17.15 108.76 -17.15 107.87 -17.16 106.96 C-17.16 105.5 -17.16 105.5 -17.16 104.01 C-17.17 102.98 -17.17 101.96 -17.18 100.9 C-17.19 98.08 -17.2 95.27 -17.2 92.46 C-17.2 90.7 -17.21 88.94 -17.21 87.18 C-17.23 81.67 -17.24 76.17 -17.24 70.66 C-17.24 64.31 -17.26 57.96 -17.29 51.61 C-17.31 46.69 -17.32 41.78 -17.32 36.87 C-17.32 33.93 -17.33 31 -17.35 28.07 C-17.36 24.8 -17.36 21.52 -17.36 18.25 C-17.37 17.28 -17.37 16.31 -17.38 15.32 C-17.35 10.38 -17.23 6.99 -14 3 C-9.81 -0.96 -5.49 -0.92 0 0 Z " fill="#FF395A" transform="translate(455,3)"/><path d="M0 0 C2.38 -0.11 4.75 -0.19 7.12 -0.25 C7.79 -0.28 8.46 -0.32 9.14 -0.35 C14.34 -0.45 16.97 0.69 21 4 C22.75 7.49 22.7 11.2 22 15 C19.47 18.52 16.24 20.3 12 21 C9.41 21.11 6.84 21.09 4.25 21.06 C3.55 21.06 2.86 21.05 2.14 21.05 C0.42 21.04 -1.29 21.02 -3 21 C-4.28 18.43 -3.83 17.42 -3.22 14.65 C-3.04 13.8 -2.86 12.95 -2.67 12.07 C-2.37 10.74 -2.37 10.74 -2.06 9.38 C-1.87 8.48 -1.67 7.58 -1.47 6.66 C-0.99 4.44 -0.5 2.22 0 0 Z " fill="#FF395A" transform="translate(478,105)"/><path d="M0 0 C3.15 1.77 4.51 3.2 6.38 6.25 C7.24 10.05 7.19 13.27 6 17 C4.13 19.66 1.93 21.53 -1 23 C-5.54 23.54 -8.95 23.62 -12.94 21.25 C-16.32 17.56 -17.47 14.95 -17.32 9.81 C-16.66 6.12 -14.49 3.28 -11.67 0.86 C-8.1 -0.98 -3.88 -0.5 0 0 Z " fill="#FF395A" transform="translate(104,25)"/></svg>