<svg xmlns="http://www.w3.org/2000/svg" width="640" height="318" viewBox="0 0 640 318"><path d="M0 0 C4.14 3.07 7.5 6.43 10.56 10.56 C10.95 11.08 11.33 11.6 11.73 12.13 C19.82 23.44 22.3 35.95 22.24 49.61 C22.25 51.6 22.27 53.59 22.29 55.58 C22.3 58.68 22.31 61.77 22.31 64.87 C22.3 67.89 22.33 70.9 22.36 73.92 C22.35 75.3 22.35 75.3 22.33 76.72 C22.41 81.99 23.01 85.06 26.73 88.91 C29.18 91.02 30.93 91.98 34.18 92.05 C40.4 91.41 40.4 91.41 46 89 C48.18 83.24 48.27 77.89 48.24 71.78 C48.25 69.78 48.27 67.77 48.29 65.77 C48.3 62.64 48.31 59.52 48.31 56.4 C48.29 36.51 51.06 20.07 65.03 4.88 C76.98 -6.51 91.3 -11.39 107.48 -11.37 C114.52 -11.19 120.45 -9.65 127 -7 C128.29 -6.51 128.29 -6.51 129.6 -6.01 C142.8 -0.27 152.81 11.55 158.02 24.75 C160.97 32.7 161.73 39.83 161.63 48.3 C161.63 49.62 161.63 50.95 161.64 52.28 C161.64 55.04 161.62 57.8 161.6 60.56 C161.56 64.04 161.57 67.52 161.59 71 C161.65 85.7 161.4 99.83 157 114 C156.81 114.63 156.61 115.27 156.41 115.92 C150.07 136.35 139.01 153.9 124 169 C123.56 169.44 123.13 169.88 122.68 170.33 C105.48 187.43 84.35 197.38 61 203 C59.91 203.27 58.81 203.54 57.69 203.81 C26.43 209.93 -7.39 202.32 -33.87 185.14 C-36.66 183.18 -39.35 181.13 -42 179 C-42.55 178.56 -43.1 178.12 -43.67 177.67 C-71.21 155.54 -86.76 124.88 -91 90 C-91.59 82.36 -91.62 74.72 -91.58 67.06 C-91.56 63.67 -91.6 60.29 -91.63 56.9 C-91.71 36.83 -88.87 20.28 -74.75 5.25 C-53.46 -14.89 -23.73 -16.24 0 0 Z M-58.73 24.82 C-65.14 32.64 -66.47 41.47 -66.36 51.33 C-66.36 52.28 -66.36 53.23 -66.36 54.21 C-66.36 56.21 -66.35 58.21 -66.34 60.21 C-66.31 63.23 -66.32 66.24 -66.32 69.26 C-66.3 82.59 -65.77 95.52 -61.88 108.38 C-61.66 109.08 -61.45 109.78 -61.23 110.51 C-56.98 123.87 -50.21 135.47 -41 146 C-40.38 146.72 -40.38 146.72 -39.74 147.45 C-23.59 165.6 -0.24 177.84 24 180 C55.46 181.57 81.97 173.89 105.7 152.62 C115.73 143.07 123.47 131.68 129 119 C129.55 117.77 129.55 117.77 130.11 116.51 C136.49 100.73 137.66 83.85 137.52 67.01 C137.5 63.91 137.52 60.8 137.55 57.7 C137.57 44.19 137.05 32.17 127 22 C118.24 14.83 110.23 12.92 99 14 C90.24 15.76 84.49 20.04 79 27 C75.66 32.27 73.89 37.26 73.84 43.52 C73.83 44.41 73.82 45.29 73.81 46.21 C73.8 47.16 73.8 48.12 73.79 49.1 C73.76 51.14 73.73 53.18 73.7 55.21 C73.66 58.41 73.63 61.61 73.6 64.81 C73.57 67.91 73.52 71 73.48 74.1 C73.47 75.04 73.47 75.99 73.47 76.96 C73.26 88.26 70.06 97.89 62.01 106.01 C53.92 113.29 45.95 116.85 35 117 C24.01 116.22 13.46 112.42 6 104 C-0.22 95.04 -2.44 85.97 -2.37 75.19 C-2.39 73.12 -2.41 71.06 -2.42 68.99 C-2.43 65.77 -2.44 62.56 -2.44 59.34 C-2.44 56.21 -2.47 53.07 -2.5 49.94 C-2.49 48.99 -2.48 48.04 -2.47 47.07 C-2.58 37.07 -5.85 29.24 -12.71 21.98 C-19.93 15.73 -27.8 13.67 -37.12 13.79 C-45.95 14.44 -52.7 18.48 -58.73 24.82 Z " fill="#F6931C" transform="translate(479,24)"/><path d="M0 0 C18.45 15.24 29.14 36.59 31.76 60.19 C32.37 67.14 32.24 74.15 32.24 81.12 C32.24 82.91 32.25 84.69 32.25 86.47 C32.26 90.17 32.26 93.88 32.25 97.58 C32.25 102.32 32.26 107.06 32.29 111.8 C32.3 115.47 32.3 119.13 32.3 122.8 C32.3 124.55 32.31 126.29 32.32 128.04 C32.33 130.48 32.32 132.92 32.31 135.36 C32.32 136.07 32.33 136.78 32.33 137.52 C32.27 143.37 30.78 147.13 26.88 151.62 C22.58 154 18.74 154.16 13.94 153.25 C10.18 151.27 8.28 149.28 6.94 145.25 C6.8 144.06 6.69 142.87 6.62 141.68 C6.56 140.68 6.56 140.68 6.49 139.65 C6.45 138.96 6.42 138.27 6.38 137.56 C6.33 136.86 6.29 136.16 6.24 135.44 C6.14 133.71 6.04 131.98 5.94 130.25 C2.68 132.39 -0.44 134.51 -3.44 137 C-22.8 151.58 -46.96 155.83 -70.65 152.93 C-75.26 152.11 -79.66 150.82 -84.06 149.25 C-85.12 148.89 -86.18 148.53 -87.27 148.15 C-108.48 140.11 -125.13 123.04 -134.56 102.69 C-143.99 81.46 -144.54 58.17 -136.58 36.39 C-128.01 14.22 -111.24 -2.37 -89.83 -12.29 C-86.94 -13.55 -84.02 -14.68 -81.06 -15.75 C-80.12 -16.09 -79.18 -16.43 -78.2 -16.79 C-50.95 -24.7 -21.98 -16.85 0 0 Z M-101.5 25.69 C-112.68 39.25 -118.73 55.59 -117.06 73.25 C-114.29 90.52 -106.75 105.97 -92.62 116.62 C-76.33 127.72 -59.28 131.25 -39.95 127.67 C-28.95 125.21 -17.78 118.49 -10.06 110.25 C-10.06 109.59 -10.06 108.93 -10.06 108.25 C-9.07 107.92 -8.08 107.59 -7.06 107.25 C3.99 92.89 8.55 76.08 6.43 58.06 C3.3 40.3 -5.88 25.73 -20.7 15.36 C-46.22 -1.36 -80.89 3.54 -101.5 25.69 Z " fill="#12A79D" transform="translate(293.0625,74.75)"/><path d="M0 0 C6.44 5.42 9.23 13.95 12.33 21.56 C13.44 24.28 14.57 26.99 15.69 29.7 C16.3 31.16 16.9 32.63 17.51 34.09 C21.17 42.94 24.93 51.75 28.69 60.56 C33.12 70.96 37.54 81.36 41.91 91.79 C42.28 92.66 42.64 93.53 43.02 94.43 C44.78 98.62 46.53 102.81 48.29 106.99 C48.92 108.5 49.55 110 50.18 111.51 C50.46 112.18 50.74 112.85 51.03 113.55 C52.67 117.45 54.44 121.24 56.38 125 C56.62 124.4 56.86 123.8 57.11 123.19 C65.06 103.5 65.06 103.5 68.31 96.62 C73.97 84.65 78.83 72.29 83.81 60.02 C87.31 51.38 90.85 42.83 94.84 34.41 C97.28 29.13 99.32 23.67 101.4 18.24 C107.47 2.65 107.47 2.65 112.25 -0.06 C116.97 -1.48 120.49 -1.86 125.12 0.25 C127.95 2.45 129.99 4.49 130.89 8.02 C131.17 16.77 127.45 23.95 123.94 31.75 C123.29 33.22 122.65 34.69 122 36.17 C121.04 38.38 120.07 40.58 119.1 42.79 C116.4 48.9 113.86 55.05 111.38 61.25 C109.18 66.69 106.94 72.07 104.44 77.38 C101.33 83.98 98.55 90.7 95.75 97.45 C91.63 107.42 87.44 117.37 83.25 127.31 C82.26 129.66 81.27 132.01 80.28 134.36 C79.63 135.9 78.98 137.44 78.33 138.97 C76.61 143.02 74.94 147.08 73.35 151.19 C73.01 152.04 72.67 152.89 72.32 153.77 C71.67 155.4 71.05 157.03 70.43 158.67 C68.22 164.18 65.35 167.7 60.38 171 C57.93 171.76 57.93 171.76 55.81 171.69 C54.76 171.69 54.76 171.69 53.68 171.7 C49.21 170.34 46.4 167.8 44.09 163.74 C42.81 160.98 41.64 158.2 40.5 155.38 C40.07 154.35 39.64 153.32 39.2 152.27 C38.32 150.17 37.46 148.07 36.59 145.97 C35.52 143.34 34.42 140.72 33.3 138.11 C30.56 131.66 27.87 125.19 25.18 118.71 C19.87 105.91 14.45 93.16 8.96 80.43 C4.19 69.33 -0.47 58.19 -4.95 46.96 C-7.53 40.52 -10.31 34.22 -13.25 27.94 C-20.27 12.9 -20.27 12.9 -18.62 7 C-14.23 -0.12 -8.12 -3.09 0 0 Z " fill="#12A79D" transform="translate(18.625,57)"/><path d="M0 0 C4.43 1.92 7.04 4.56 9 9 C9.44 12.85 9.46 16.69 9.5 20.56 C10.03 39.6 14.73 54.33 28.64 67.75 C39.67 77.89 54.93 82.62 69.73 82.31 C86.31 80.73 100.38 73.18 111.13 60.48 C120.22 48.42 123.1 36.16 123 21.25 C122.99 19.83 122.99 18.42 123 17 C123 16.24 123.01 15.48 123.01 14.7 C123.29 9.2 124.76 6.31 128.53 2.31 C131.49 -0.33 134.09 -0.34 137.9 -0.28 C141.27 0.17 143.73 1.49 146 4 C149.37 9.19 149.47 13.72 149.38 19.81 C149.36 20.74 149.35 21.67 149.34 22.62 C148.78 48.27 139.79 68.18 121.62 86.38 C104.25 102.84 83.32 107.72 59.99 107.3 C42.53 106.64 26.11 99.53 13 88 C12.24 87.39 11.49 86.77 10.71 86.14 C-4.28 73.61 -13.17 54.07 -16 35 C-16.22 31.26 -16.27 27.52 -16.3 23.77 C-16.31 22.59 -16.33 21.41 -16.36 20.23 C-16.66 8.05 -16.66 8.05 -12 3 C-8.29 -0.01 -4.69 -0.93 0 0 Z " fill="#F6931C" transform="translate(448,78)"/><path d="M0 0 C3.25 1.94 6.41 4.12 7.58 7.84 C8.01 10.03 8.13 12 8.14 14.22 C8.14 15.05 8.15 15.89 8.15 16.75 C8.16 17.66 8.16 18.56 8.16 19.5 C8.17 20.94 8.17 20.94 8.17 22.42 C8.18 24.51 8.19 26.61 8.2 28.7 C8.21 32.03 8.23 35.37 8.25 38.7 C8.31 48.18 8.37 57.65 8.4 67.13 C8.42 72.93 8.46 78.73 8.5 84.54 C8.52 86.73 8.52 88.92 8.53 91.12 C8.56 108.66 9.64 125.94 14.81 142.81 C15.07 143.68 15.33 144.55 15.59 145.44 C17.94 153.16 20.7 160.64 24 168 C24.25 168.56 24.5 169.12 24.75 169.7 C31.42 184.58 41.1 197.88 51.08 210.7 C58.67 220.54 58.67 220.54 58.12 226.5 C57.42 230.95 55.71 233.32 52.09 235.95 C48.28 237.86 45.11 238.15 41 237 C34.49 233.24 30.34 226.74 26.17 220.68 C24.9 218.85 23.58 217.07 22.25 215.29 C5.12 192.04 -6.66 166.2 -13.19 138.12 C-13.34 137.48 -13.5 136.83 -13.66 136.17 C-17.18 120.19 -17.31 103.89 -17.3 87.61 C-17.3 85.41 -17.31 83.21 -17.31 81.01 C-17.32 76.44 -17.32 71.87 -17.32 67.3 C-17.31 62.04 -17.32 56.77 -17.34 51.51 C-17.36 46.4 -17.37 41.29 -17.36 36.18 C-17.36 34.02 -17.37 31.87 -17.38 29.71 C-17.39 26.7 -17.38 23.7 -17.37 20.69 C-17.38 19.81 -17.39 18.93 -17.4 18.02 C-17.35 12.36 -16.87 6.88 -12.65 2.65 C-8.9 -0.39 -4.65 -1.2 0 0 Z " fill="#12A79D" transform="translate(357,0)"/></svg>