<svg xmlns="http://www.w3.org/2000/svg" width="640" height="640" viewBox="0 0 640 640"><path fill="rgb(254,50,56)" stroke="rgb(254,50,56)" stroke-width="0.5" opacity="1" d="M 435.5 357 L 435.5 358 L 435.5 357 Z "/><path fill="rgb(254,44,51)" stroke="rgb(254,44,51)" stroke-width="0.5" opacity="1" d="M 436.5 357 Q 451.9 357.1 458 366.5 L 462 375.5 L 462 383.5 Q 459.9 393.4 452.5 398 Q 446.8 403.8 433.5 402 Q 424.8 399.2 420 392.5 L 417 386.5 L 416 379.5 L 417 378.5 L 418 370.5 L 424.5 362 L 429.5 359 L 436.5 357 Z "/><path fill="rgb(25,25,25)" stroke="rgb(25,25,25)" stroke-width="0.5" opacity="1" d="M 165.5 193 L 474.5 193 L 486.5 197 L 498 207.5 L 502 214.5 L 504 222.5 L 504 409.5 L 500 421.5 L 489.5 434 L 483.5 438 L 471.5 442 L 166.5 442 Q 151.9 438.6 144 428.5 L 139 420.5 L 135 406.5 L 135 225.5 L 136 224.5 L 137 216.5 L 140 210.5 L 147.5 201 L 157.5 195 L 165.5 193 Z M 168 210 L 159 214 L 153 223 L 153 247 L 154 247 L 487 247 L 487 223 L 484 216 L 479 212 L 473 210 L 168 210 Z M 153 265 L 153 279 L 154 279 L 487 279 L 487 266 L 487 265 L 153 265 Z M 153 297 L 153 410 L 158 419 L 170 425 L 471 425 L 479 421 Q 485 417 487 409 L 487 297 L 153 297 Z "/></svg>