<svg xmlns="http://www.w3.org/2000/svg" width="100" height="17" viewBox="0 0 100 17"><path fill="rgb(255,255,255)" stroke="rgb(255,255,255)" stroke-width="0.5" opacity="1" d="M 35 0 L 53.5 0 L 57 3.5 Q 57.5 8.3 56 10 L 49.5 12 L 40 12 L 40 16 L 35 16 L 35 0 Z M 40 4 L 40 7 L 52 7 L 52 6 L 51 4 L 40 4 Z "/><path fill="rgb(255,255,255)" stroke="rgb(255,255,255)" stroke-width="0.5" opacity="1" d="M 65.5 0 Q 71.6 -1.3 71 1.5 L 79 12.5 L 80 16 Q 75.4 17.3 74 14.5 L 73.5 13 L 62.5 13 L 61 16 L 55 15.5 L 65.5 0 Z M 68 5 L 65 9 L 71 9 L 69 7 Q 70 4 68 5 Z "/><path fill="rgb(255,255,255)" stroke="rgb(255,255,255)" stroke-width="0.5" opacity="1" d="M 76.5 0 L 82.5 0 L 83 1.5 L 88.5 7 L 90 5.5 L 94.5 0 L 100 0.5 L 91 10.5 L 91 16 L 86 16 L 86 10.5 L 76 0.5 L 76.5 0 Z "/><path fill="rgb(64,181,232)" stroke="rgb(64,181,232)" stroke-width="0.5" opacity="1" d="M 18.5 0 L 25 0.5 L 18.5 7 L 17 7 L 18.5 10 L 25 15.5 L 18.5 16 Q 12.8 13.7 12 6.5 L 18.5 0 Z "/><path fill="rgb(64,181,232)" stroke="rgb(64,181,232)" stroke-width="0.5" opacity="1" d="M 22 6 L 27 6 L 27 10 L 22 10 L 22 6 Z "/><path fill="rgb(65,61,246)" stroke="rgb(65,61,246)" stroke-width="0.5" opacity="1" d="M 2.5 0 L 8.5 0 L 13 4.5 L 12 8.5 L 13 11.5 L 8.5 16 L 2.5 16 L 2 15.5 L 8.5 9 Q 11.1 9.7 10 7 L 8.5 7 L 2 0.5 L 2.5 0 Z "/><path fill="rgb(65,61,246)" stroke="rgb(65,61,246)" stroke-width="0.5" opacity="1" d="M 0 6 L 5 6 L 5 10 L 0 10 L 0 6 Z "/></svg>